%FSLAX46Y46*%
%MOMM*%
%TF.FileFunction,Soldermask,Bot*%
%TF.Part,Single*%
%TF.GenerationSoftware,ClaudeMicro,build_pcb.py,1.0*%
%LPD*%
G01*
%ADD10C,1.700000*%
%ADD11C,3.100000*%
%ADD12R,1.300000X1.500000*%
%ADD13R,1.000000X1.050000*%
%ADD14R,1.300000X1.100000*%
%ADD15R,0.700000X1.200000*%
%ADD16R,1.600000X1.900000*%
%ADD17R,1.900000X2.700000*%
%ADD18R,1.250000X1.500000*%
%ADD19C,1.900000*%
%ADD20C,1.800000*%
%ADD21C,0.400000*%
D10*
X43230000Y86630000D03*
X43230000Y84090000D03*
X43230000Y81550000D03*
X43230000Y79010000D03*
X43230000Y76470000D03*
X43230000Y73930000D03*
X43230000Y71390000D03*
X43230000Y68850000D03*
X43230000Y66310000D03*
X43230000Y63770000D03*
X43230000Y61230000D03*
X43230000Y58690000D03*
X43230000Y56150000D03*
X43230000Y53610000D03*
X43230000Y51070000D03*
X43230000Y48530000D03*
X43230000Y45990000D03*
X43230000Y43450000D03*
X43230000Y40910000D03*
X43230000Y38370000D03*
X25450000Y38370000D03*
X25450000Y40910000D03*
X25450000Y43450000D03*
X25450000Y45990000D03*
X25450000Y48530000D03*
X25450000Y51070000D03*
X25450000Y53610000D03*
X25450000Y56150000D03*
X25450000Y58690000D03*
X25450000Y61230000D03*
X25450000Y63770000D03*
X25450000Y66310000D03*
X25450000Y68850000D03*
X25450000Y71390000D03*
X25450000Y73930000D03*
X25450000Y76470000D03*
X25450000Y79010000D03*
X25450000Y81550000D03*
X25450000Y84090000D03*
X25450000Y86630000D03*
D11*
X17000000Y66100000D03*
X22000000Y68200000D03*
D12*
X12800000Y77200000D03*
X10000000Y77200000D03*
D11*
X35000000Y66100000D03*
X40000000Y68200000D03*
D12*
X30800000Y77200000D03*
X28000000Y77200000D03*
D11*
X53000000Y66100000D03*
X58000000Y68200000D03*
D12*
X48800000Y77200000D03*
X46000000Y77200000D03*
D11*
X71000000Y66100000D03*
X76000000Y68200000D03*
D12*
X66800000Y77200000D03*
X64000000Y77200000D03*
D11*
X89000000Y66100000D03*
X94000000Y68200000D03*
D12*
X84800000Y77200000D03*
X82000000Y77200000D03*
D11*
X107000000Y66100000D03*
X112000000Y68200000D03*
D12*
X102800000Y77200000D03*
X100000000Y77200000D03*
D11*
X17000000Y49100000D03*
X22000000Y51200000D03*
D12*
X12800000Y60200000D03*
X10000000Y60200000D03*
D11*
X35000000Y49100000D03*
X40000000Y51200000D03*
D12*
X30800000Y60200000D03*
X28000000Y60200000D03*
D11*
X53000000Y49100000D03*
X58000000Y51200000D03*
D12*
X48800000Y60200000D03*
X46000000Y60200000D03*
D11*
X71000000Y49100000D03*
X76000000Y51200000D03*
D12*
X66800000Y60200000D03*
X64000000Y60200000D03*
D11*
X17000000Y32100000D03*
X22000000Y34200000D03*
D12*
X12800000Y43200000D03*
X10000000Y43200000D03*
D11*
X35000000Y32100000D03*
X40000000Y34200000D03*
D12*
X30800000Y43200000D03*
X28000000Y43200000D03*
D11*
X53000000Y32100000D03*
X58000000Y34200000D03*
D12*
X48800000Y43200000D03*
X46000000Y43200000D03*
X97400000Y35500000D03*
X94600000Y35500000D03*
D13*
X41800000Y9000000D03*
X40200000Y9000000D03*
X22600000Y77200000D03*
X21000000Y77200000D03*
X40600000Y77200000D03*
X39000000Y77200000D03*
X58600000Y77200000D03*
X57000000Y77200000D03*
X76600000Y77200000D03*
X75000000Y77200000D03*
X94600000Y77200000D03*
X93000000Y77200000D03*
X112600000Y77200000D03*
X111000000Y77200000D03*
X76600000Y60200000D03*
X75000000Y60200000D03*
X58600000Y60200000D03*
X57000000Y60200000D03*
X40600000Y60200000D03*
X39000000Y60200000D03*
X22600000Y60200000D03*
X21000000Y60200000D03*
X22600000Y43200000D03*
X21000000Y43200000D03*
X40600000Y43200000D03*
X39000000Y43200000D03*
X58600000Y43200000D03*
X57000000Y43200000D03*
D14*
X7700000Y62450000D03*
X7700000Y64550000D03*
X4300000Y64550000D03*
X4300000Y62450000D03*
D13*
X6800000Y60100000D03*
X5200000Y60100000D03*
D14*
X51700000Y81450000D03*
X51700000Y83550000D03*
X48300000Y83550000D03*
X48300000Y81450000D03*
D13*
X50800000Y79100000D03*
X49200000Y79100000D03*
D14*
X114700000Y24950000D03*
X114700000Y27050000D03*
X111300000Y27050000D03*
X111300000Y24950000D03*
D13*
X113800000Y22600000D03*
X112200000Y22600000D03*
D14*
X114700000Y62450000D03*
X114700000Y64550000D03*
X111300000Y64550000D03*
X111300000Y62450000D03*
D13*
X113800000Y60100000D03*
X112200000Y60100000D03*
D14*
X30700000Y25950000D03*
X30700000Y28050000D03*
X27300000Y28050000D03*
X27300000Y25950000D03*
D13*
X29800000Y23600000D03*
X28200000Y23600000D03*
D14*
X81700000Y7450000D03*
X81700000Y9550000D03*
X78300000Y9550000D03*
X78300000Y7450000D03*
D13*
X80800000Y5100000D03*
X79200000Y5100000D03*
D15*
X47450000Y7900000D03*
X46500000Y7900000D03*
X45550000Y7900000D03*
X45550000Y10100000D03*
X47450000Y10100000D03*
D13*
X51800000Y9000000D03*
X50200000Y9000000D03*
D16*
X20500000Y9000000D03*
X17500000Y9000000D03*
D17*
X27300000Y9000000D03*
X23700000Y9000000D03*
D18*
X32000000Y9000000D03*
X30000000Y9000000D03*
X37000000Y9000000D03*
X35000000Y9000000D03*
D19*
X104500000Y39500000D03*
X107000000Y39500000D03*
X109500000Y39500000D03*
X104500000Y53500000D03*
X109500000Y53500000D03*
D13*
X101800000Y34500000D03*
X100200000Y34500000D03*
X113800000Y34500000D03*
X112200000Y34500000D03*
X101800000Y32000000D03*
X100200000Y32000000D03*
X113800000Y32000000D03*
X112200000Y32000000D03*
D20*
X74920000Y42000000D03*
X77460000Y42000000D03*
X80000000Y42000000D03*
X82540000Y42000000D03*
X85080000Y42000000D03*
D13*
X76800000Y45500000D03*
X75200000Y45500000D03*
X81300000Y45500000D03*
X79700000Y45500000D03*
X76800000Y48000000D03*
X75200000Y48000000D03*
X81300000Y48000000D03*
X79700000Y48000000D03*
X19120000Y12500000D03*
X17520000Y12500000D03*
X40960000Y12500000D03*
X39360000Y12500000D03*
X62800000Y12500000D03*
X61200000Y12500000D03*
X84640000Y12500000D03*
X83040000Y12500000D03*
X106480000Y12500000D03*
X104880000Y12500000D03*
D19*
X12250000Y11250000D03*
X5750000Y11250000D03*
X12250000Y6750000D03*
X5750000Y6750000D03*
D21*
X51200000Y76200000D03*
X17400000Y13000000D03*
X39400000Y13000000D03*
X61200000Y13000000D03*
X83000000Y13000000D03*
X104800000Y13000000D03*
X76200000Y76800000D03*
X58200000Y59800000D03*
X76200000Y59800000D03*
X58200000Y42800000D03*
X22200000Y76800000D03*
X40200000Y76800000D03*
X94200000Y76800000D03*
X112200000Y76800000D03*
X22200000Y59800000D03*
X40200000Y59800000D03*
X22200000Y42800000D03*
X40200000Y42800000D03*
X19800000Y43200000D03*
X18800000Y42000000D03*
X18400000Y45200000D03*
X36000000Y42000000D03*
X49600000Y44600000D03*
X54000000Y42000000D03*
X44400000Y62000000D03*
X50200000Y58800000D03*
X56000000Y60400000D03*
X103600000Y76000000D03*
X101800000Y76000000D03*
X44400000Y12600000D03*
X47400000Y8400000D03*
X18800000Y68000000D03*
X30800000Y75200000D03*
X31600000Y76000000D03*
X47600000Y81000000D03*
X51600000Y45200000D03*
X45000000Y51200000D03*
X39600000Y53600000D03*
X43800000Y15000000D03*
X77600000Y8000000D03*
X52600000Y22000000D03*
X45000000Y14400000D03*
X37600000Y9600000D03*
X43200000Y47200000D03*
X51800000Y47200000D03*
X74200000Y47200000D03*
X112600000Y35000000D03*
X38000000Y10800000D03*
X34800000Y15000000D03*
X13600000Y38600000D03*
X10000000Y22000000D03*
X18000000Y13800000D03*
X19800000Y10000000D03*
X59800000Y76200000D03*
X69000000Y65800000D03*
X96600000Y39600000D03*
X110800000Y25400000D03*
X83400000Y53600000D03*
X27800000Y26400000D03*
X6000000Y82000000D03*
X6000000Y70000000D03*
X6000000Y58000000D03*
X6000000Y46000000D03*
X6000000Y34000000D03*
X6000000Y22000000D03*
X18000000Y82000000D03*
X30000000Y82000000D03*
X30000000Y70000000D03*
X30000000Y46000000D03*
X30000000Y34000000D03*
X42000000Y82000000D03*
X42000000Y70000000D03*
X54000000Y46000000D03*
X54000000Y10000000D03*
X66000000Y82000000D03*
X66000000Y46000000D03*
X66000000Y34000000D03*
X66000000Y10000000D03*
X78000000Y82000000D03*
X78000000Y70000000D03*
X78000000Y34000000D03*
X78000000Y10000000D03*
X90000000Y82000000D03*
X90000000Y58000000D03*
X90000000Y34000000D03*
X90000000Y10000000D03*
X102000000Y82000000D03*
X102000000Y70000000D03*
X102000000Y58000000D03*
X102000000Y10000000D03*
X114000000Y82000000D03*
X114000000Y70000000D03*
X114000000Y58000000D03*
X114000000Y10000000D03*
X18000000Y77200000D03*
X57400000Y76200000D03*
X37200000Y60800000D03*
X18000000Y60400000D03*
X18000000Y43200000D03*
X36200000Y43200000D03*
M02*
