%FSLAX46Y46*%
%MOMM*%
%TF.FileFunction,Soldermask,Bot*%
%TF.Part,Single*%
%TF.GenerationSoftware,ClaudeMicro,build_pcb.py,1.0*%
%LPD*%
G01*
%ADD10C,1.700000*%
%ADD11C,2.600000*%
%ADD12R,1.300000X1.500000*%
%ADD13R,1.000000X1.050000*%
%ADD14R,1.300000X1.100000*%
%ADD15R,0.700000X1.200000*%
%ADD16R,1.600000X1.900000*%
%ADD17R,1.900000X2.700000*%
%ADD18R,1.250000X1.500000*%
%ADD19C,1.900000*%
%ADD20C,1.800000*%
%ADD21C,0.400000*%
D10*
X45030000Y100630000D03*
X45030000Y98090000D03*
X45030000Y95550000D03*
X45030000Y93010000D03*
X45030000Y90470000D03*
X45030000Y87930000D03*
X45030000Y85390000D03*
X45030000Y82850000D03*
X45030000Y80310000D03*
X45030000Y77770000D03*
X45030000Y75230000D03*
X45030000Y72690000D03*
X45030000Y70150000D03*
X45030000Y67610000D03*
X45030000Y65070000D03*
X45030000Y62530000D03*
X45030000Y59990000D03*
X45030000Y57450000D03*
X45030000Y54910000D03*
X45030000Y52370000D03*
X27250000Y52370000D03*
X27250000Y54910000D03*
X27250000Y57450000D03*
X27250000Y59990000D03*
X27250000Y62530000D03*
X27250000Y65070000D03*
X27250000Y67610000D03*
X27250000Y70150000D03*
X27250000Y72690000D03*
X27250000Y75230000D03*
X27250000Y77770000D03*
X27250000Y80310000D03*
X27250000Y82850000D03*
X27250000Y85390000D03*
X27250000Y87930000D03*
X27250000Y90470000D03*
X27250000Y93010000D03*
X27250000Y95550000D03*
X27250000Y98090000D03*
X27250000Y100630000D03*
D11*
X14190000Y82460000D03*
X20540000Y79920000D03*
D12*
X12900000Y90500000D03*
X10100000Y90500000D03*
D11*
X33240000Y82460000D03*
X39590000Y79920000D03*
D12*
X31950000Y90500000D03*
X29150000Y90500000D03*
D11*
X52290000Y82460000D03*
X58640000Y79920000D03*
D12*
X51000000Y90500000D03*
X48200000Y90500000D03*
D11*
X71340000Y82460000D03*
X77690000Y79920000D03*
D12*
X70050000Y90500000D03*
X67250000Y90500000D03*
D11*
X90390000Y82460000D03*
X96740000Y79920000D03*
D12*
X89100000Y90500000D03*
X86300000Y90500000D03*
D11*
X109440000Y82460000D03*
X115790000Y79920000D03*
D12*
X108150000Y90500000D03*
X105350000Y90500000D03*
D11*
X14190000Y63410000D03*
X20540000Y60870000D03*
D12*
X12900000Y71450000D03*
X10100000Y71450000D03*
D11*
X33240000Y63410000D03*
X39590000Y60870000D03*
D12*
X31950000Y71450000D03*
X29150000Y71450000D03*
D11*
X52290000Y63410000D03*
X58640000Y60870000D03*
D12*
X51000000Y71450000D03*
X48200000Y71450000D03*
D11*
X71340000Y63410000D03*
X77690000Y60870000D03*
D12*
X70050000Y71450000D03*
X67250000Y71450000D03*
D11*
X14190000Y44360000D03*
X20540000Y41820000D03*
D12*
X12900000Y52400000D03*
X10100000Y52400000D03*
D11*
X33240000Y44360000D03*
X39590000Y41820000D03*
D12*
X31950000Y52400000D03*
X29150000Y52400000D03*
D11*
X52290000Y44360000D03*
X58640000Y41820000D03*
D12*
X51000000Y52400000D03*
X48200000Y52400000D03*
X128400000Y45500000D03*
X125600000Y45500000D03*
D13*
X42800000Y11000000D03*
X41200000Y11000000D03*
X24300000Y90500000D03*
X22700000Y90500000D03*
X43350000Y90500000D03*
X41750000Y90500000D03*
X62400000Y90500000D03*
X60800000Y90500000D03*
X81450000Y90500000D03*
X79850000Y90500000D03*
X100500000Y90500000D03*
X98900000Y90500000D03*
X119550000Y90500000D03*
X117950000Y90500000D03*
X81450000Y71450000D03*
X79850000Y71450000D03*
X62400000Y71450000D03*
X60800000Y71450000D03*
X43350000Y71450000D03*
X41750000Y71450000D03*
X24300000Y71450000D03*
X22700000Y71450000D03*
X24300000Y52400000D03*
X22700000Y52400000D03*
X43350000Y52400000D03*
X41750000Y52400000D03*
X62400000Y52400000D03*
X60800000Y52400000D03*
D14*
X6700000Y74950000D03*
X6700000Y77050000D03*
X3300000Y77050000D03*
X3300000Y74950000D03*
D13*
X5800000Y72600000D03*
X4200000Y72600000D03*
D14*
X66700000Y95950000D03*
X66700000Y98050000D03*
X63300000Y98050000D03*
X63300000Y95950000D03*
D13*
X65800000Y93600000D03*
X64200000Y93600000D03*
D14*
X147700000Y74950000D03*
X147700000Y77050000D03*
X144300000Y77050000D03*
X144300000Y74950000D03*
D13*
X146800000Y72600000D03*
X145200000Y72600000D03*
D14*
X147700000Y31950000D03*
X147700000Y34050000D03*
X144300000Y34050000D03*
X144300000Y31950000D03*
D13*
X146800000Y29600000D03*
X145200000Y29600000D03*
D14*
X33700000Y31950000D03*
X33700000Y34050000D03*
X30300000Y34050000D03*
X30300000Y31950000D03*
D13*
X32800000Y29600000D03*
X31200000Y29600000D03*
D14*
X119700000Y11950000D03*
X119700000Y14050000D03*
X116300000Y14050000D03*
X116300000Y11950000D03*
D13*
X118800000Y9600000D03*
X117200000Y9600000D03*
D15*
X48950000Y9900000D03*
X48000000Y9900000D03*
X47050000Y9900000D03*
X47050000Y12100000D03*
X48950000Y12100000D03*
D13*
X54300000Y11000000D03*
X52700000Y11000000D03*
D16*
X19500000Y11000000D03*
X16500000Y11000000D03*
D17*
X26800000Y11000000D03*
X23200000Y11000000D03*
D18*
X32000000Y11000000D03*
X30000000Y11000000D03*
X37500000Y11000000D03*
X35500000Y11000000D03*
D19*
X135500000Y49500000D03*
X138000000Y49500000D03*
X140500000Y49500000D03*
X135500000Y63500000D03*
X140500000Y63500000D03*
D13*
X132800000Y44500000D03*
X131200000Y44500000D03*
X144800000Y44500000D03*
X143200000Y44500000D03*
X132800000Y42000000D03*
X131200000Y42000000D03*
X144800000Y42000000D03*
X143200000Y42000000D03*
D20*
X90920000Y49000000D03*
X93460000Y49000000D03*
X96000000Y49000000D03*
X98540000Y49000000D03*
X101080000Y49000000D03*
D13*
X92800000Y52500000D03*
X91200000Y52500000D03*
X97300000Y52500000D03*
X95700000Y52500000D03*
X92800000Y55000000D03*
X91200000Y55000000D03*
X97300000Y55000000D03*
X95700000Y55000000D03*
X20620000Y16000000D03*
X19020000Y16000000D03*
X43460000Y16000000D03*
X41860000Y16000000D03*
X66300000Y16000000D03*
X64700000Y16000000D03*
X89140000Y16000000D03*
X87540000Y16000000D03*
X111980000Y16000000D03*
X110380000Y16000000D03*
D19*
X11250000Y13250000D03*
X4750000Y13250000D03*
X11250000Y8750000D03*
X4750000Y8750000D03*
D21*
X19000000Y16400000D03*
X41800000Y16400000D03*
X64600000Y16400000D03*
X87400000Y16400000D03*
X110400000Y16400000D03*
X81000000Y90000000D03*
X62000000Y71200000D03*
X81000000Y71000000D03*
X62000000Y52000000D03*
X23800000Y90000000D03*
X43000000Y90200000D03*
X23800000Y71000000D03*
X43000000Y71200000D03*
X23800000Y52000000D03*
X43000000Y52000000D03*
X100000000Y90000000D03*
X119000000Y90000000D03*
X61800000Y90800000D03*
X42800000Y69000000D03*
X39200000Y69600000D03*
X18000000Y52600000D03*
X19200000Y51400000D03*
X17000000Y52400000D03*
X30000000Y50600000D03*
X32800000Y50600000D03*
X38200000Y50600000D03*
X37600000Y53400000D03*
X57200000Y51400000D03*
X46800000Y73400000D03*
X48600000Y70200000D03*
X43200000Y77200000D03*
X40800000Y71600000D03*
X49200000Y54200000D03*
X50400000Y53000000D03*
X109800000Y89800000D03*
X107400000Y89200000D03*
X67200000Y65800000D03*
X69600000Y68200000D03*
X46200000Y25600000D03*
X46200000Y16200000D03*
X48800000Y10400000D03*
X53000000Y54200000D03*
X49600000Y55000000D03*
X46800000Y55000000D03*
X17400000Y79400000D03*
X59800000Y90200000D03*
X46800000Y18400000D03*
X38000000Y11600000D03*
X34200000Y72600000D03*
X43000000Y67800000D03*
X51800000Y61800000D03*
X94600000Y55200000D03*
X89600000Y48400000D03*
X127800000Y46000000D03*
X37800000Y14400000D03*
X26000000Y70800000D03*
X26000000Y73400000D03*
X24600000Y81400000D03*
X20200000Y88600000D03*
X61200000Y33600000D03*
X102400000Y25600000D03*
X11600000Y25600000D03*
X17800000Y13000000D03*
X18800000Y12000000D03*
X143600000Y45000000D03*
X147200000Y34600000D03*
X46800000Y33000000D03*
X6000000Y96000000D03*
X6000000Y84000000D03*
X6000000Y60000000D03*
X6000000Y48000000D03*
X6000000Y36000000D03*
X6000000Y24000000D03*
X6000000Y12000000D03*
X18000000Y96000000D03*
X18000000Y72000000D03*
X18000000Y36000000D03*
X30000000Y96000000D03*
X30000000Y60000000D03*
X30000000Y36000000D03*
X42000000Y96000000D03*
X42000000Y60000000D03*
X42000000Y36000000D03*
X54000000Y96000000D03*
X54000000Y60000000D03*
X66000000Y84000000D03*
X66000000Y48000000D03*
X66000000Y12000000D03*
X78000000Y96000000D03*
X78000000Y84000000D03*
X78000000Y72000000D03*
X78000000Y12000000D03*
X90000000Y96000000D03*
X90000000Y72000000D03*
X90000000Y12000000D03*
X102000000Y96000000D03*
X102000000Y84000000D03*
X102000000Y72000000D03*
X102000000Y60000000D03*
X102000000Y12000000D03*
X114000000Y96000000D03*
X114000000Y72000000D03*
X114000000Y60000000D03*
X114000000Y36000000D03*
X114000000Y12000000D03*
X126000000Y96000000D03*
X126000000Y84000000D03*
X126000000Y60000000D03*
X126000000Y36000000D03*
X126000000Y24000000D03*
X126000000Y12000000D03*
X138000000Y96000000D03*
X138000000Y84000000D03*
X138000000Y72000000D03*
X138000000Y48000000D03*
X138000000Y36000000D03*
X138000000Y24000000D03*
X138000000Y12000000D03*
X150000000Y96000000D03*
X150000000Y84000000D03*
X150000000Y72000000D03*
X150000000Y60000000D03*
X150000000Y48000000D03*
X150000000Y36000000D03*
X150000000Y24000000D03*
X150000000Y12000000D03*
X44000000Y84600000D03*
X38400000Y90600000D03*
X58200000Y90600000D03*
X61200000Y71600000D03*
X21800000Y51400000D03*
M02*
