%FSLAX46Y46*%
%MOMM*%
%TF.FileFunction,Paste,Bot*%
%TF.Part,Single*%
%TF.GenerationSoftware,ClaudeMicro,build_pcb.py,1.0*%
%LPD*%
G01*
%ADD10R,1.200000X1.400000*%
%ADD11R,0.900000X0.950000*%
%ADD12R,1.200000X1.000000*%
%ADD13R,0.600000X1.100000*%
%ADD14R,1.500000X1.800000*%
%ADD15R,1.800000X2.600000*%
%ADD16R,1.150000X1.400000*%
D10*
X12900000Y90500000D03*
X10100000Y90500000D03*
X31950000Y90500000D03*
X29150000Y90500000D03*
X51000000Y90500000D03*
X48200000Y90500000D03*
X70050000Y90500000D03*
X67250000Y90500000D03*
X89100000Y90500000D03*
X86300000Y90500000D03*
X108150000Y90500000D03*
X105350000Y90500000D03*
X12900000Y71450000D03*
X10100000Y71450000D03*
X31950000Y71450000D03*
X29150000Y71450000D03*
X51000000Y71450000D03*
X48200000Y71450000D03*
X70050000Y71450000D03*
X67250000Y71450000D03*
X12900000Y52400000D03*
X10100000Y52400000D03*
X31950000Y52400000D03*
X29150000Y52400000D03*
X51000000Y52400000D03*
X48200000Y52400000D03*
X128400000Y45500000D03*
X125600000Y45500000D03*
D11*
X42800000Y11000000D03*
X41200000Y11000000D03*
X24300000Y90500000D03*
X22700000Y90500000D03*
X43350000Y90500000D03*
X41750000Y90500000D03*
X62400000Y90500000D03*
X60800000Y90500000D03*
X81450000Y90500000D03*
X79850000Y90500000D03*
X100500000Y90500000D03*
X98900000Y90500000D03*
X119550000Y90500000D03*
X117950000Y90500000D03*
X81450000Y71450000D03*
X79850000Y71450000D03*
X62400000Y71450000D03*
X60800000Y71450000D03*
X43350000Y71450000D03*
X41750000Y71450000D03*
X24300000Y71450000D03*
X22700000Y71450000D03*
X24300000Y52400000D03*
X22700000Y52400000D03*
X43350000Y52400000D03*
X41750000Y52400000D03*
X62400000Y52400000D03*
X60800000Y52400000D03*
D12*
X6700000Y74950000D03*
X6700000Y77050000D03*
X3300000Y77050000D03*
X3300000Y74950000D03*
D11*
X5800000Y72600000D03*
X4200000Y72600000D03*
D12*
X66700000Y95950000D03*
X66700000Y98050000D03*
X63300000Y98050000D03*
X63300000Y95950000D03*
D11*
X65800000Y93600000D03*
X64200000Y93600000D03*
D12*
X147700000Y74950000D03*
X147700000Y77050000D03*
X144300000Y77050000D03*
X144300000Y74950000D03*
D11*
X146800000Y72600000D03*
X145200000Y72600000D03*
D12*
X147700000Y31950000D03*
X147700000Y34050000D03*
X144300000Y34050000D03*
X144300000Y31950000D03*
D11*
X146800000Y29600000D03*
X145200000Y29600000D03*
D12*
X33700000Y31950000D03*
X33700000Y34050000D03*
X30300000Y34050000D03*
X30300000Y31950000D03*
D11*
X32800000Y29600000D03*
X31200000Y29600000D03*
D12*
X119700000Y11950000D03*
X119700000Y14050000D03*
X116300000Y14050000D03*
X116300000Y11950000D03*
D11*
X118800000Y9600000D03*
X117200000Y9600000D03*
D13*
X48950000Y9900000D03*
X48000000Y9900000D03*
X47050000Y9900000D03*
X47050000Y12100000D03*
X48950000Y12100000D03*
D11*
X54300000Y11000000D03*
X52700000Y11000000D03*
D14*
X19500000Y11000000D03*
X16500000Y11000000D03*
D15*
X26800000Y11000000D03*
X23200000Y11000000D03*
D16*
X32000000Y11000000D03*
X30000000Y11000000D03*
X37500000Y11000000D03*
X35500000Y11000000D03*
D11*
X132800000Y44500000D03*
X131200000Y44500000D03*
X144800000Y44500000D03*
X143200000Y44500000D03*
X132800000Y42000000D03*
X131200000Y42000000D03*
X144800000Y42000000D03*
X143200000Y42000000D03*
X92800000Y52500000D03*
X91200000Y52500000D03*
X97300000Y52500000D03*
X95700000Y52500000D03*
X92800000Y55000000D03*
X91200000Y55000000D03*
X97300000Y55000000D03*
X95700000Y55000000D03*
X20620000Y16000000D03*
X19020000Y16000000D03*
X43460000Y16000000D03*
X41860000Y16000000D03*
X66300000Y16000000D03*
X64700000Y16000000D03*
X89140000Y16000000D03*
X87540000Y16000000D03*
X111980000Y16000000D03*
X110380000Y16000000D03*
M02*
