%FSLAX46Y46*%
%MOMM*%
%TF.FileFunction,Paste,Bot*%
%TF.Part,Single*%
%TF.GenerationSoftware,ClaudeMicro,build_pcb.py,1.0*%
%LPD*%
G01*
%ADD10R,1.200000X1.400000*%
%ADD11R,0.900000X0.950000*%
%ADD12R,1.200000X1.000000*%
%ADD13R,0.600000X1.100000*%
%ADD14R,1.500000X1.800000*%
%ADD15R,1.800000X2.600000*%
%ADD16R,1.150000X1.400000*%
D10*
X12800000Y77200000D03*
X10000000Y77200000D03*
X30800000Y77200000D03*
X28000000Y77200000D03*
X48800000Y77200000D03*
X46000000Y77200000D03*
X66800000Y77200000D03*
X64000000Y77200000D03*
X84800000Y77200000D03*
X82000000Y77200000D03*
X102800000Y77200000D03*
X100000000Y77200000D03*
X12800000Y60200000D03*
X10000000Y60200000D03*
X30800000Y60200000D03*
X28000000Y60200000D03*
X48800000Y60200000D03*
X46000000Y60200000D03*
X66800000Y60200000D03*
X64000000Y60200000D03*
X12800000Y43200000D03*
X10000000Y43200000D03*
X30800000Y43200000D03*
X28000000Y43200000D03*
X48800000Y43200000D03*
X46000000Y43200000D03*
X97400000Y35500000D03*
X94600000Y35500000D03*
D11*
X41800000Y9000000D03*
X40200000Y9000000D03*
X22600000Y77200000D03*
X21000000Y77200000D03*
X40600000Y77200000D03*
X39000000Y77200000D03*
X58600000Y77200000D03*
X57000000Y77200000D03*
X76600000Y77200000D03*
X75000000Y77200000D03*
X94600000Y77200000D03*
X93000000Y77200000D03*
X112600000Y77200000D03*
X111000000Y77200000D03*
X76600000Y60200000D03*
X75000000Y60200000D03*
X58600000Y60200000D03*
X57000000Y60200000D03*
X40600000Y60200000D03*
X39000000Y60200000D03*
X22600000Y60200000D03*
X21000000Y60200000D03*
X22600000Y43200000D03*
X21000000Y43200000D03*
X40600000Y43200000D03*
X39000000Y43200000D03*
X58600000Y43200000D03*
X57000000Y43200000D03*
D12*
X7700000Y62450000D03*
X7700000Y64550000D03*
X4300000Y64550000D03*
X4300000Y62450000D03*
D11*
X6800000Y60100000D03*
X5200000Y60100000D03*
D12*
X51700000Y81450000D03*
X51700000Y83550000D03*
X48300000Y83550000D03*
X48300000Y81450000D03*
D11*
X50800000Y79100000D03*
X49200000Y79100000D03*
D12*
X114700000Y24950000D03*
X114700000Y27050000D03*
X111300000Y27050000D03*
X111300000Y24950000D03*
D11*
X113800000Y22600000D03*
X112200000Y22600000D03*
D12*
X114700000Y62450000D03*
X114700000Y64550000D03*
X111300000Y64550000D03*
X111300000Y62450000D03*
D11*
X113800000Y60100000D03*
X112200000Y60100000D03*
D12*
X30700000Y25950000D03*
X30700000Y28050000D03*
X27300000Y28050000D03*
X27300000Y25950000D03*
D11*
X29800000Y23600000D03*
X28200000Y23600000D03*
D12*
X81700000Y7450000D03*
X81700000Y9550000D03*
X78300000Y9550000D03*
X78300000Y7450000D03*
D11*
X80800000Y5100000D03*
X79200000Y5100000D03*
D13*
X47450000Y7900000D03*
X46500000Y7900000D03*
X45550000Y7900000D03*
X45550000Y10100000D03*
X47450000Y10100000D03*
D11*
X51800000Y9000000D03*
X50200000Y9000000D03*
D14*
X20500000Y9000000D03*
X17500000Y9000000D03*
D15*
X27300000Y9000000D03*
X23700000Y9000000D03*
D16*
X32000000Y9000000D03*
X30000000Y9000000D03*
X37000000Y9000000D03*
X35000000Y9000000D03*
D11*
X101800000Y34500000D03*
X100200000Y34500000D03*
X113800000Y34500000D03*
X112200000Y34500000D03*
X101800000Y32000000D03*
X100200000Y32000000D03*
X113800000Y32000000D03*
X112200000Y32000000D03*
X76800000Y45500000D03*
X75200000Y45500000D03*
X81300000Y45500000D03*
X79700000Y45500000D03*
X76800000Y48000000D03*
X75200000Y48000000D03*
X81300000Y48000000D03*
X79700000Y48000000D03*
X19120000Y12500000D03*
X17520000Y12500000D03*
X40960000Y12500000D03*
X39360000Y12500000D03*
X62800000Y12500000D03*
X61200000Y12500000D03*
X84640000Y12500000D03*
X83040000Y12500000D03*
X106480000Y12500000D03*
X104880000Y12500000D03*
M02*
