M48
; CLAUDE MICRO
FMAT,2
METRIC,TZ
; PLATED
T1C0.350
T2C1.000
T3C1.100
T4C1.500
%
G90
G05
T1
X19.000Y16.400
X41.800Y16.400
X64.600Y16.400
X87.400Y16.400
X110.400Y16.400
X81.000Y90.000
X62.000Y71.200
X81.000Y71.000
X62.000Y52.000
X23.800Y90.000
X43.000Y90.200
X23.800Y71.000
X43.000Y71.200
X23.800Y52.000
X43.000Y52.000
X100.000Y90.000
X119.000Y90.000
X61.800Y90.800
X42.800Y69.000
X39.200Y69.600
X18.000Y52.600
X19.200Y51.400
X17.000Y52.400
X30.000Y50.600
X32.800Y50.600
X38.200Y50.600
X37.600Y53.400
X57.200Y51.400
X46.800Y73.400
X48.600Y70.200
X43.200Y77.200
X40.800Y71.600
X49.200Y54.200
X50.400Y53.000
X109.800Y89.800
X107.400Y89.200
X67.200Y65.800
X69.600Y68.200
X46.200Y25.600
X46.200Y16.200
X48.800Y10.400
X53.000Y54.200
X49.600Y55.000
X46.800Y55.000
X17.400Y79.400
X59.800Y90.200
X46.800Y18.400
X38.000Y11.600
X34.200Y72.600
X43.000Y67.800
X51.800Y61.800
X94.600Y55.200
X89.600Y48.400
X127.800Y46.000
X37.800Y14.400
X26.000Y70.800
X26.000Y73.400
X24.600Y81.400
X20.200Y88.600
X61.200Y33.600
X102.400Y25.600
X11.600Y25.600
X17.800Y13.000
X18.800Y12.000
X143.600Y45.000
X147.200Y34.600
X46.800Y33.000
X6.000Y96.000
X6.000Y84.000
X6.000Y60.000
X6.000Y48.000
X6.000Y36.000
X6.000Y24.000
X6.000Y12.000
X18.000Y96.000
X18.000Y72.000
X18.000Y36.000
X30.000Y96.000
X30.000Y60.000
X30.000Y36.000
X42.000Y96.000
X42.000Y60.000
X42.000Y36.000
X54.000Y96.000
X54.000Y60.000
X66.000Y84.000
X66.000Y48.000
X66.000Y12.000
X78.000Y96.000
X78.000Y84.000
X78.000Y72.000
X78.000Y12.000
X90.000Y96.000
X90.000Y72.000
X90.000Y12.000
X102.000Y96.000
X102.000Y84.000
X102.000Y72.000
X102.000Y60.000
X102.000Y12.000
X114.000Y96.000
X114.000Y72.000
X114.000Y60.000
X114.000Y36.000
X114.000Y12.000
X126.000Y96.000
X126.000Y84.000
X126.000Y60.000
X126.000Y36.000
X126.000Y24.000
X126.000Y12.000
X138.000Y96.000
X138.000Y84.000
X138.000Y72.000
X138.000Y48.000
X138.000Y36.000
X138.000Y24.000
X138.000Y12.000
X150.000Y96.000
X150.000Y84.000
X150.000Y72.000
X150.000Y60.000
X150.000Y48.000
X150.000Y36.000
X150.000Y24.000
X150.000Y12.000
X44.000Y84.600
X38.400Y90.600
X58.200Y90.600
X61.200Y71.600
X21.800Y51.400
T2
X45.030Y100.630
X45.030Y98.090
X45.030Y95.550
X45.030Y93.010
X45.030Y90.470
X45.030Y87.930
X45.030Y85.390
X45.030Y82.850
X45.030Y80.310
X45.030Y77.770
X45.030Y75.230
X45.030Y72.690
X45.030Y70.150
X45.030Y67.610
X45.030Y65.070
X45.030Y62.530
X45.030Y59.990
X45.030Y57.450
X45.030Y54.910
X45.030Y52.370
X27.250Y52.370
X27.250Y54.910
X27.250Y57.450
X27.250Y59.990
X27.250Y62.530
X27.250Y65.070
X27.250Y67.610
X27.250Y70.150
X27.250Y72.690
X27.250Y75.230
X27.250Y77.770
X27.250Y80.310
X27.250Y82.850
X27.250Y85.390
X27.250Y87.930
X27.250Y90.470
X27.250Y93.010
X27.250Y95.550
X27.250Y98.090
X27.250Y100.630
X135.500Y49.500
X138.000Y49.500
X140.500Y49.500
X135.500Y63.500
X140.500Y63.500
X90.920Y49.000
X93.460Y49.000
X96.000Y49.000
X98.540Y49.000
X101.080Y49.000
T3
X11.250Y13.250
X4.750Y13.250
X11.250Y8.750
X4.750Y8.750
T4
X14.190Y82.460
X20.540Y79.920
X33.240Y82.460
X39.590Y79.920
X52.290Y82.460
X58.640Y79.920
X71.340Y82.460
X77.690Y79.920
X90.390Y82.460
X96.740Y79.920
X109.440Y82.460
X115.790Y79.920
X14.190Y63.410
X20.540Y60.870
X33.240Y63.410
X39.590Y60.870
X52.290Y63.410
X58.640Y60.870
X71.340Y63.410
X77.690Y60.870
X14.190Y44.360
X20.540Y41.820
X33.240Y44.360
X39.590Y41.820
X52.290Y44.360
X58.640Y41.820
T0
M30
