M48
; CLAUDE MICRO
FMAT,2
METRIC,TZ
; NON-PLATED
T1C1.900
T2C2.200
T3C2.600
T4C3.200
T5C3.450
%
G90
G05
T1
X11.500Y72.000
X22.500Y72.000
X29.500Y72.000
X40.500Y72.000
X47.500Y72.000
X58.500Y72.000
X65.500Y72.000
X76.500Y72.000
X83.500Y72.000
X94.500Y72.000
X101.500Y72.000
X112.500Y72.000
X11.500Y55.000
X22.500Y55.000
X29.500Y55.000
X40.500Y55.000
X47.500Y55.000
X58.500Y55.000
X65.500Y55.000
X76.500Y55.000
X11.500Y38.000
X22.500Y38.000
X29.500Y38.000
X40.500Y38.000
X47.500Y38.000
X58.500Y38.000
T2
X72.000Y26.500
X88.000Y26.500
T3
X3.200Y85.400
X64.000Y85.400
X124.800Y85.400
X3.200Y3.200
X64.000Y3.200
X124.800Y3.200
T4
X101.100Y46.500
X112.900Y46.500
T5
X17.000Y72.000
X35.000Y72.000
X53.000Y72.000
X71.000Y72.000
X89.000Y72.000
X107.000Y72.000
X17.000Y55.000
X35.000Y55.000
X53.000Y55.000
X71.000Y55.000
X17.000Y38.000
X35.000Y38.000
X53.000Y38.000
T0
M30
