M48
; CLAUDE MICRO
FMAT,2
METRIC,TZ
; NON-PLATED
T1C1.700
T2C2.200
T3C2.600
T4C3.200
T5C4.000
%
G90
G05
T1
X12.920Y85.000
X23.080Y85.000
X31.970Y85.000
X42.130Y85.000
X51.020Y85.000
X61.180Y85.000
X70.070Y85.000
X80.230Y85.000
X89.120Y85.000
X99.280Y85.000
X108.170Y85.000
X118.330Y85.000
X12.920Y65.950
X23.080Y65.950
X31.970Y65.950
X42.130Y65.950
X51.020Y65.950
X61.180Y65.950
X70.070Y65.950
X80.230Y65.950
X12.920Y46.900
X23.080Y46.900
X31.970Y46.900
X42.130Y46.900
X51.020Y46.900
X61.180Y46.900
T2
X88.000Y33.500
X104.000Y33.500
T3
X3.800Y98.800
X79.000Y98.800
X155.200Y98.800
X3.800Y3.500
X79.000Y3.500
X155.200Y3.500
T4
X132.100Y56.500
X143.900Y56.500
T5
X18.000Y85.000
X37.050Y85.000
X56.100Y85.000
X75.150Y85.000
X94.200Y85.000
X113.250Y85.000
X18.000Y65.950
X37.050Y65.950
X56.100Y65.950
X75.150Y65.950
X18.000Y46.900
X37.050Y46.900
X56.100Y46.900
T0
M30
