M48
; CLAUDE MICRO
FMAT,2
METRIC,TZ
; PLATED
T1C0.350
T2C1.000
T3C1.100
T4C1.200
%
G90
G05
T1
X51.200Y76.200
X17.400Y13.000
X39.400Y13.000
X61.200Y13.000
X83.000Y13.000
X104.800Y13.000
X76.200Y76.800
X58.200Y59.800
X76.200Y59.800
X58.200Y42.800
X22.200Y76.800
X40.200Y76.800
X94.200Y76.800
X112.200Y76.800
X22.200Y59.800
X40.200Y59.800
X22.200Y42.800
X40.200Y42.800
X19.800Y43.200
X18.800Y42.000
X18.400Y45.200
X36.000Y42.000
X49.600Y44.600
X54.000Y42.000
X44.400Y62.000
X50.200Y58.800
X56.000Y60.400
X103.600Y76.000
X101.800Y76.000
X44.400Y12.600
X47.400Y8.400
X18.800Y68.000
X30.800Y75.200
X31.600Y76.000
X47.600Y81.000
X51.600Y45.200
X45.000Y51.200
X39.600Y53.600
X43.800Y15.000
X77.600Y8.000
X52.600Y22.000
X45.000Y14.400
X37.600Y9.600
X43.200Y47.200
X51.800Y47.200
X74.200Y47.200
X112.600Y35.000
X38.000Y10.800
X34.800Y15.000
X13.600Y38.600
X10.000Y22.000
X18.000Y13.800
X19.800Y10.000
X59.800Y76.200
X69.000Y65.800
X96.600Y39.600
X110.800Y25.400
X83.400Y53.600
X27.800Y26.400
X6.000Y82.000
X6.000Y70.000
X6.000Y58.000
X6.000Y46.000
X6.000Y34.000
X6.000Y22.000
X18.000Y82.000
X30.000Y82.000
X30.000Y70.000
X30.000Y46.000
X30.000Y34.000
X42.000Y82.000
X42.000Y70.000
X54.000Y46.000
X54.000Y10.000
X66.000Y82.000
X66.000Y46.000
X66.000Y34.000
X66.000Y10.000
X78.000Y82.000
X78.000Y70.000
X78.000Y34.000
X78.000Y10.000
X90.000Y82.000
X90.000Y58.000
X90.000Y34.000
X90.000Y10.000
X102.000Y82.000
X102.000Y70.000
X102.000Y58.000
X102.000Y10.000
X114.000Y82.000
X114.000Y70.000
X114.000Y58.000
X114.000Y10.000
X18.000Y77.200
X57.400Y76.200
X37.200Y60.800
X18.000Y60.400
X18.000Y43.200
X36.200Y43.200
T2
X43.230Y86.630
X43.230Y84.090
X43.230Y81.550
X43.230Y79.010
X43.230Y76.470
X43.230Y73.930
X43.230Y71.390
X43.230Y68.850
X43.230Y66.310
X43.230Y63.770
X43.230Y61.230
X43.230Y58.690
X43.230Y56.150
X43.230Y53.610
X43.230Y51.070
X43.230Y48.530
X43.230Y45.990
X43.230Y43.450
X43.230Y40.910
X43.230Y38.370
X25.450Y38.370
X25.450Y40.910
X25.450Y43.450
X25.450Y45.990
X25.450Y48.530
X25.450Y51.070
X25.450Y53.610
X25.450Y56.150
X25.450Y58.690
X25.450Y61.230
X25.450Y63.770
X25.450Y66.310
X25.450Y68.850
X25.450Y71.390
X25.450Y73.930
X25.450Y76.470
X25.450Y79.010
X25.450Y81.550
X25.450Y84.090
X25.450Y86.630
X104.500Y39.500
X107.000Y39.500
X109.500Y39.500
X104.500Y53.500
X109.500Y53.500
X74.920Y42.000
X77.460Y42.000
X80.000Y42.000
X82.540Y42.000
X85.080Y42.000
T3
X12.250Y11.250
X5.750Y11.250
X12.250Y6.750
X5.750Y6.750
T4
X17.000Y66.100
X22.000Y68.200
X35.000Y66.100
X40.000Y68.200
X53.000Y66.100
X58.000Y68.200
X71.000Y66.100
X76.000Y68.200
X89.000Y66.100
X94.000Y68.200
X107.000Y66.100
X112.000Y68.200
X17.000Y49.100
X22.000Y51.200
X35.000Y49.100
X40.000Y51.200
X53.000Y49.100
X58.000Y51.200
X71.000Y49.100
X76.000Y51.200
X17.000Y32.100
X22.000Y34.200
X35.000Y32.100
X40.000Y34.200
X53.000Y32.100
X58.000Y34.200
T0
M30
