%FSLAX46Y46*%
%MOMM*%
%TF.FileFunction,Profile,NP*%
%TF.Part,Single*%
%TF.GenerationSoftware,ClaudeMicro,build_pcb.py,1.0*%
%LPD*%
G01*
%ADD10C,0.100000*%
D10*
X124000000Y88000000D02*
X124625738Y87950753D01*
X124625738Y87950753D02*
X125236068Y87804226D01*
X125236068Y87804226D02*
X125815962Y87564026D01*
X125815962Y87564026D02*
X126351141Y87236068D01*
X126351141Y87236068D02*
X126828427Y86828427D01*
X126828427Y86828427D02*
X127236068Y86351141D01*
X127236068Y86351141D02*
X127564026Y85815962D01*
X127564026Y85815962D02*
X127804226Y85236068D01*
X127804226Y85236068D02*
X127950753Y84625738D01*
X127950753Y84625738D02*
X128000000Y84000000D01*
X128000000Y84000000D02*
X128000000Y4000000D01*
X128000000Y4000000D02*
X127950753Y3374262D01*
X127950753Y3374262D02*
X127804226Y2763932D01*
X127804226Y2763932D02*
X127564026Y2184038D01*
X127564026Y2184038D02*
X127236068Y1648859D01*
X127236068Y1648859D02*
X126828427Y1171573D01*
X126828427Y1171573D02*
X126351141Y763932D01*
X126351141Y763932D02*
X125815962Y435974D01*
X125815962Y435974D02*
X125236068Y195774D01*
X125236068Y195774D02*
X124625738Y49247D01*
X124625738Y49247D02*
X124000000Y0D01*
X124000000Y0D02*
X4000000Y0D01*
X4000000Y0D02*
X3374262Y49247D01*
X3374262Y49247D02*
X2763932Y195774D01*
X2763932Y195774D02*
X2184038Y435974D01*
X2184038Y435974D02*
X1648859Y763932D01*
X1648859Y763932D02*
X1171573Y1171573D01*
X1171573Y1171573D02*
X763932Y1648859D01*
X763932Y1648859D02*
X435974Y2184038D01*
X435974Y2184038D02*
X195774Y2763932D01*
X195774Y2763932D02*
X49247Y3374262D01*
X49247Y3374262D02*
X0Y4000000D01*
X0Y4000000D02*
X0Y84000000D01*
X0Y84000000D02*
X49247Y84625738D01*
X49247Y84625738D02*
X195774Y85236068D01*
X195774Y85236068D02*
X435974Y85815962D01*
X435974Y85815962D02*
X763932Y86351141D01*
X763932Y86351141D02*
X1171573Y86828427D01*
X1171573Y86828427D02*
X1648859Y87236068D01*
X1648859Y87236068D02*
X2184038Y87564026D01*
X2184038Y87564026D02*
X2763932Y87804226D01*
X2763932Y87804226D02*
X3374262Y87950753D01*
X3374262Y87950753D02*
X4000000Y88000000D01*
X4000000Y88000000D02*
X124000000Y88000000D01*
M02*
