%FSLAX46Y46*%
%MOMM*%
%TF.FileFunction,Profile,NP*%
%TF.Part,Single*%
%TF.GenerationSoftware,ClaudeMicro,build_pcb.py,1.0*%
%LPD*%
G01*
%ADD10C,0.100000*%
D10*
X155000000Y102000000D02*
X155625738Y101950753D01*
X155625738Y101950753D02*
X156236068Y101804226D01*
X156236068Y101804226D02*
X156815962Y101564026D01*
X156815962Y101564026D02*
X157351141Y101236068D01*
X157351141Y101236068D02*
X157828427Y100828427D01*
X157828427Y100828427D02*
X158236068Y100351141D01*
X158236068Y100351141D02*
X158564026Y99815962D01*
X158564026Y99815962D02*
X158804226Y99236068D01*
X158804226Y99236068D02*
X158950753Y98625738D01*
X158950753Y98625738D02*
X159000000Y98000000D01*
X159000000Y98000000D02*
X159000000Y4000000D01*
X159000000Y4000000D02*
X158950753Y3374262D01*
X158950753Y3374262D02*
X158804226Y2763932D01*
X158804226Y2763932D02*
X158564026Y2184038D01*
X158564026Y2184038D02*
X158236068Y1648859D01*
X158236068Y1648859D02*
X157828427Y1171573D01*
X157828427Y1171573D02*
X157351141Y763932D01*
X157351141Y763932D02*
X156815962Y435974D01*
X156815962Y435974D02*
X156236068Y195774D01*
X156236068Y195774D02*
X155625738Y49247D01*
X155625738Y49247D02*
X155000000Y0D01*
X155000000Y0D02*
X4000000Y0D01*
X4000000Y0D02*
X3374262Y49247D01*
X3374262Y49247D02*
X2763932Y195774D01*
X2763932Y195774D02*
X2184038Y435974D01*
X2184038Y435974D02*
X1648859Y763932D01*
X1648859Y763932D02*
X1171573Y1171573D01*
X1171573Y1171573D02*
X763932Y1648859D01*
X763932Y1648859D02*
X435974Y2184038D01*
X435974Y2184038D02*
X195774Y2763932D01*
X195774Y2763932D02*
X49247Y3374262D01*
X49247Y3374262D02*
X0Y4000000D01*
X0Y4000000D02*
X0Y98000000D01*
X0Y98000000D02*
X49247Y98625738D01*
X49247Y98625738D02*
X195774Y99236068D01*
X195774Y99236068D02*
X435974Y99815962D01*
X435974Y99815962D02*
X763932Y100351141D01*
X763932Y100351141D02*
X1171573Y100828427D01*
X1171573Y100828427D02*
X1648859Y101236068D01*
X1648859Y101236068D02*
X2184038Y101564026D01*
X2184038Y101564026D02*
X2763932Y101804226D01*
X2763932Y101804226D02*
X3374262Y101950753D01*
X3374262Y101950753D02*
X4000000Y102000000D01*
X4000000Y102000000D02*
X155000000Y102000000D01*
M02*
