%FSLAX46Y46*%
%MOMM*%
%TF.FileFunction,Copper,L1,Top*%
%TF.Part,Single*%
%TF.GenerationSoftware,ClaudeMicro,build_pcb.py,1.0*%
%LPD*%
G01*
%ADD10R,0.220000X0.220000*%
%ADD11C,0.300000*%
%ADD12C,0.700000*%
%ADD13C,1.600000*%
%ADD14C,3.000000*%
%ADD15R,1.100000X0.900000*%
%ADD16C,1.800000*%
%ADD17C,1.700000*%
D10*
X3000000Y87400000D02*
X24400000Y87400000D01*
X26400000Y87400000D02*
X42200000Y87400000D01*
X44200000Y87400000D02*
X125000000Y87400000D01*
X2400000Y87200000D02*
X24400000Y87200000D01*
X26600000Y87200000D02*
X42200000Y87200000D01*
X44400000Y87200000D02*
X125600000Y87200000D01*
X2000000Y87000000D02*
X2600000Y87000000D01*
X3800000Y87000000D02*
X24200000Y87000000D01*
X26600000Y87000000D02*
X42000000Y87000000D01*
X44400000Y87000000D02*
X63400000Y87000000D01*
X64600000Y87000000D02*
X124200000Y87000000D01*
X125400000Y87000000D02*
X126000000Y87000000D01*
X1800000Y86800000D02*
X2200000Y86800000D01*
X4200000Y86800000D02*
X24200000Y86800000D01*
X26600000Y86800000D02*
X42000000Y86800000D01*
X44400000Y86800000D02*
X63000000Y86800000D01*
X65000000Y86800000D02*
X123800000Y86800000D01*
X125800000Y86800000D02*
X126200000Y86800000D01*
X1600000Y86600000D02*
X1800000Y86600000D01*
X4600000Y86600000D02*
X24200000Y86600000D01*
X26600000Y86600000D02*
X42000000Y86600000D01*
X44400000Y86600000D02*
X62600000Y86600000D01*
X65400000Y86600000D02*
X123400000Y86600000D01*
X126200000Y86600000D02*
X126400000Y86600000D01*
X1400000Y86400000D02*
X1800000Y86400000D01*
X4600000Y86400000D02*
X24200000Y86400000D01*
X26600000Y86400000D02*
X42000000Y86400000D01*
X44400000Y86400000D02*
X62600000Y86400000D01*
X65400000Y86400000D02*
X123400000Y86400000D01*
X126200000Y86400000D02*
X126600000Y86400000D01*
X1200000Y86200000D02*
X1600000Y86200000D01*
X4800000Y86200000D02*
X24000000Y86200000D01*
X26600000Y86200000D02*
X42000000Y86200000D01*
X44400000Y86200000D02*
X62400000Y86200000D01*
X65600000Y86200000D02*
X123200000Y86200000D01*
X126400000Y86200000D02*
X126800000Y86200000D01*
X1000000Y86000000D02*
X1600000Y86000000D01*
X4800000Y86000000D02*
X23800000Y86000000D01*
X26600000Y86000000D02*
X42200000Y86000000D01*
X44200000Y86000000D02*
X62400000Y86000000D01*
X65600000Y86000000D02*
X123200000Y86000000D01*
X126400000Y86000000D02*
X127000000Y86000000D01*
X1000000Y85800000D02*
X1400000Y85800000D01*
X5000000Y85800000D02*
X23600000Y85800000D01*
X26400000Y85800000D02*
X42400000Y85800000D01*
X44200000Y85800000D02*
X62200000Y85800000D01*
X65800000Y85800000D02*
X123000000Y85800000D01*
X126600000Y85800000D02*
X127000000Y85800000D01*
X800000Y85600000D02*
X1400000Y85600000D01*
X5000000Y85600000D02*
X23400000Y85600000D01*
X26000000Y85600000D02*
X42600000Y85600000D01*
X43800000Y85600000D02*
X62200000Y85600000D01*
X65800000Y85600000D02*
X123000000Y85600000D01*
X126600000Y85600000D02*
X127200000Y85600000D01*
X800000Y85400000D02*
X1400000Y85400000D01*
X5000000Y85400000D02*
X23200000Y85400000D01*
X24800000Y85400000D02*
X62200000Y85400000D01*
X65800000Y85400000D02*
X123000000Y85400000D01*
X126600000Y85400000D02*
X127200000Y85400000D01*
X800000Y85200000D02*
X1400000Y85200000D01*
X5000000Y85200000D02*
X23000000Y85200000D01*
X24600000Y85200000D02*
X25000000Y85200000D01*
X25800000Y85200000D02*
X42800000Y85200000D01*
X43600000Y85200000D02*
X62200000Y85200000D01*
X65800000Y85200000D02*
X123000000Y85200000D01*
X126600000Y85200000D02*
X127200000Y85200000D01*
X600000Y85000000D02*
X1400000Y85000000D01*
X5000000Y85000000D02*
X22800000Y85000000D01*
X24400000Y85000000D02*
X24600000Y85000000D01*
X26200000Y85000000D02*
X42400000Y85000000D01*
X44000000Y85000000D02*
X62200000Y85000000D01*
X65800000Y85000000D02*
X123000000Y85000000D01*
X126600000Y85000000D02*
X127400000Y85000000D01*
X600000Y84800000D02*
X1600000Y84800000D01*
X4800000Y84800000D02*
X22600000Y84800000D01*
X24200000Y84800000D02*
X24400000Y84800000D01*
X26400000Y84800000D02*
X42200000Y84800000D01*
X44200000Y84800000D02*
X62400000Y84800000D01*
X65600000Y84800000D02*
X123200000Y84800000D01*
X126400000Y84800000D02*
X127400000Y84800000D01*
X600000Y84600000D02*
X1600000Y84600000D01*
X4800000Y84600000D02*
X22400000Y84600000D01*
X24000000Y84600000D02*
X24400000Y84600000D01*
X26600000Y84600000D02*
X42000000Y84600000D01*
X44400000Y84600000D02*
X62400000Y84600000D01*
X65600000Y84600000D02*
X123200000Y84600000D01*
X126400000Y84600000D02*
X127400000Y84600000D01*
X600000Y84400000D02*
X1800000Y84400000D01*
X4600000Y84400000D02*
X22200000Y84400000D01*
X23800000Y84400000D02*
X24200000Y84400000D01*
X26600000Y84400000D02*
X42000000Y84400000D01*
X44400000Y84400000D02*
X62600000Y84400000D01*
X65400000Y84400000D02*
X123400000Y84400000D01*
X126200000Y84400000D02*
X127400000Y84400000D01*
X600000Y84200000D02*
X1800000Y84200000D01*
X4600000Y84200000D02*
X22000000Y84200000D01*
X23600000Y84200000D02*
X24200000Y84200000D01*
X26600000Y84200000D02*
X42000000Y84200000D01*
X44400000Y84200000D02*
X62600000Y84200000D01*
X65400000Y84200000D02*
X123400000Y84200000D01*
X126200000Y84200000D02*
X127400000Y84200000D01*
X600000Y84000000D02*
X2200000Y84000000D01*
X4200000Y84000000D02*
X21800000Y84000000D01*
X23400000Y84000000D02*
X24200000Y84000000D01*
X26600000Y84000000D02*
X42000000Y84000000D01*
X44400000Y84000000D02*
X63000000Y84000000D01*
X65000000Y84000000D02*
X123800000Y84000000D01*
X125800000Y84000000D02*
X127400000Y84000000D01*
X600000Y83800000D02*
X2600000Y83800000D01*
X3800000Y83800000D02*
X21600000Y83800000D01*
X23200000Y83800000D02*
X24200000Y83800000D01*
X26600000Y83800000D02*
X42000000Y83800000D01*
X44400000Y83800000D02*
X63400000Y83800000D01*
X64600000Y83800000D02*
X124200000Y83800000D01*
X125400000Y83800000D02*
X127400000Y83800000D01*
X600000Y83600000D02*
X21400000Y83600000D01*
X23000000Y83600000D02*
X24400000Y83600000D01*
X26600000Y83600000D02*
X42000000Y83600000D01*
X44400000Y83600000D02*
X127400000Y83600000D01*
X600000Y83400000D02*
X21200000Y83400000D01*
X22800000Y83400000D02*
X24400000Y83400000D01*
X26400000Y83400000D02*
X42200000Y83400000D01*
X44200000Y83400000D02*
X127400000Y83400000D01*
X600000Y83200000D02*
X21000000Y83200000D01*
X22600000Y83200000D02*
X24600000Y83200000D01*
X26200000Y83200000D02*
X42400000Y83200000D01*
X44000000Y83200000D02*
X127400000Y83200000D01*
X600000Y83000000D02*
X20800000Y83000000D01*
X22400000Y83000000D02*
X25000000Y83000000D01*
X26000000Y83000000D02*
X42800000Y83000000D01*
X43600000Y83000000D02*
X127400000Y83000000D01*
X600000Y82800000D02*
X20600000Y82800000D01*
X22200000Y82800000D02*
X127400000Y82800000D01*
X600000Y82600000D02*
X20400000Y82600000D01*
X22000000Y82600000D02*
X127400000Y82600000D01*
X600000Y82400000D02*
X20200000Y82400000D01*
X21800000Y82400000D02*
X127400000Y82400000D01*
X600000Y82200000D02*
X20000000Y82200000D01*
X21600000Y82200000D02*
X127400000Y82200000D01*
X600000Y82000000D02*
X19800000Y82000000D01*
X21400000Y82000000D02*
X127400000Y82000000D01*
X600000Y81800000D02*
X19600000Y81800000D01*
X21200000Y81800000D02*
X127400000Y81800000D01*
X600000Y81600000D02*
X19400000Y81600000D01*
X21000000Y81600000D02*
X47200000Y81600000D01*
X48000000Y81600000D02*
X127400000Y81600000D01*
X600000Y81400000D02*
X19200000Y81400000D01*
X20800000Y81400000D02*
X47000000Y81400000D01*
X48200000Y81400000D02*
X127400000Y81400000D01*
X600000Y81200000D02*
X19000000Y81200000D01*
X20600000Y81200000D02*
X46800000Y81200000D01*
X48400000Y81200000D02*
X127400000Y81200000D01*
X600000Y81000000D02*
X18800000Y81000000D01*
X20400000Y81000000D02*
X46800000Y81000000D01*
X48400000Y81000000D02*
X127400000Y81000000D01*
X600000Y80800000D02*
X18600000Y80800000D01*
X20200000Y80800000D02*
X46600000Y80800000D01*
X48400000Y80800000D02*
X127400000Y80800000D01*
X600000Y80600000D02*
X18400000Y80600000D01*
X20000000Y80600000D02*
X42200000Y80600000D01*
X48200000Y80600000D02*
X127400000Y80600000D01*
X600000Y80400000D02*
X18200000Y80400000D01*
X19800000Y80400000D02*
X41800000Y80400000D01*
X48000000Y80400000D02*
X127400000Y80400000D01*
X600000Y80200000D02*
X18000000Y80200000D01*
X19600000Y80200000D02*
X41600000Y80200000D01*
X47600000Y80200000D02*
X127400000Y80200000D01*
X600000Y80000000D02*
X17800000Y80000000D01*
X19400000Y80000000D02*
X24800000Y80000000D01*
X26200000Y80000000D02*
X41400000Y80000000D01*
X47400000Y80000000D02*
X127400000Y80000000D01*
X600000Y79800000D02*
X17600000Y79800000D01*
X19200000Y79800000D02*
X24600000Y79800000D01*
X26400000Y79800000D02*
X41200000Y79800000D01*
X47200000Y79800000D02*
X127400000Y79800000D01*
X600000Y79600000D02*
X16800000Y79600000D01*
X19000000Y79600000D02*
X24400000Y79600000D01*
X26600000Y79600000D02*
X34800000Y79600000D01*
X44400000Y79600000D02*
X127400000Y79600000D01*
X600000Y79400000D02*
X16600000Y79400000D01*
X18800000Y79400000D02*
X24200000Y79400000D01*
X26600000Y79400000D02*
X34600000Y79400000D01*
X44400000Y79400000D02*
X127400000Y79400000D01*
X600000Y79200000D02*
X15200000Y79200000D01*
X18600000Y79200000D02*
X24200000Y79200000D01*
X26600000Y79200000D02*
X33200000Y79200000D01*
X44400000Y79200000D02*
X127400000Y79200000D01*
X600000Y79000000D02*
X13800000Y79000000D01*
X26600000Y79000000D02*
X31800000Y79000000D01*
X44400000Y79000000D02*
X71200000Y79000000D01*
X82600000Y79000000D02*
X89200000Y79000000D01*
X100600000Y79000000D02*
X127400000Y79000000D01*
X600000Y78800000D02*
X13600000Y78800000D01*
X26600000Y78800000D02*
X31600000Y78800000D01*
X44400000Y78800000D02*
X71000000Y78800000D01*
X82800000Y78800000D02*
X89000000Y78800000D01*
X100800000Y78800000D02*
X127400000Y78800000D01*
X600000Y78600000D02*
X13600000Y78600000D01*
X26600000Y78600000D02*
X31600000Y78600000D01*
X44400000Y78600000D02*
X69600000Y78600000D01*
X83000000Y78600000D02*
X87400000Y78600000D01*
X101000000Y78600000D02*
X127400000Y78600000D01*
X600000Y78400000D02*
X13600000Y78400000D01*
X26600000Y78400000D02*
X31600000Y78400000D01*
X44400000Y78400000D02*
X50200000Y78400000D01*
X52400000Y78400000D02*
X68200000Y78400000D01*
X83200000Y78400000D02*
X86200000Y78400000D01*
X101200000Y78400000D02*
X104200000Y78400000D01*
X106400000Y78400000D02*
X127400000Y78400000D01*
X600000Y78200000D02*
X13600000Y78200000D01*
X29400000Y78200000D02*
X31600000Y78200000D01*
X47400000Y78200000D02*
X50200000Y78200000D01*
X52400000Y78200000D02*
X68200000Y78200000D01*
X83400000Y78200000D02*
X86200000Y78200000D01*
X101400000Y78200000D02*
X104200000Y78200000D01*
X106400000Y78200000D02*
X127400000Y78200000D01*
X600000Y78000000D02*
X13600000Y78000000D01*
X17800000Y78000000D02*
X23800000Y78000000D01*
X29600000Y78000000D02*
X31600000Y78000000D01*
X35800000Y78000000D02*
X41600000Y78000000D01*
X47600000Y78000000D02*
X50200000Y78000000D01*
X52400000Y78000000D02*
X68200000Y78000000D01*
X71800000Y78000000D02*
X82000000Y78000000D01*
X83600000Y78000000D02*
X86200000Y78000000D01*
X89800000Y78000000D02*
X100000000Y78000000D01*
X101600000Y78000000D02*
X104200000Y78000000D01*
X106400000Y78000000D02*
X127400000Y78000000D01*
X600000Y77800000D02*
X13600000Y77800000D01*
X17600000Y77800000D02*
X24000000Y77800000D01*
X29800000Y77800000D02*
X31600000Y77800000D01*
X35600000Y77800000D02*
X41800000Y77800000D01*
X47800000Y77800000D02*
X50200000Y77800000D01*
X52400000Y77800000D02*
X68200000Y77800000D01*
X71600000Y77800000D02*
X82200000Y77800000D01*
X83800000Y77800000D02*
X86200000Y77800000D01*
X89600000Y77800000D02*
X100200000Y77800000D01*
X101800000Y77800000D02*
X104200000Y77800000D01*
X106400000Y77800000D02*
X127400000Y77800000D01*
X600000Y77600000D02*
X13600000Y77600000D01*
X16400000Y77600000D02*
X24200000Y77600000D01*
X30000000Y77600000D02*
X31600000Y77600000D01*
X34400000Y77600000D02*
X42000000Y77600000D01*
X48000000Y77600000D02*
X50200000Y77600000D01*
X53600000Y77600000D02*
X68200000Y77600000D01*
X70400000Y77600000D02*
X82400000Y77600000D01*
X84000000Y77600000D02*
X86200000Y77600000D01*
X88400000Y77600000D02*
X100400000Y77600000D01*
X102000000Y77600000D02*
X104200000Y77600000D01*
X106400000Y77600000D02*
X127400000Y77600000D01*
X600000Y77400000D02*
X13600000Y77400000D01*
X16400000Y77400000D02*
X21800000Y77400000D01*
X22600000Y77400000D02*
X24400000Y77400000D01*
X30200000Y77400000D02*
X31600000Y77400000D01*
X34400000Y77400000D02*
X39800000Y77400000D01*
X40600000Y77400000D02*
X42200000Y77400000D01*
X48200000Y77400000D02*
X50200000Y77400000D01*
X53800000Y77400000D02*
X68200000Y77400000D01*
X70400000Y77400000D02*
X75800000Y77400000D01*
X76600000Y77400000D02*
X82600000Y77400000D01*
X84200000Y77400000D02*
X86200000Y77400000D01*
X88400000Y77400000D02*
X93800000Y77400000D01*
X94600000Y77400000D02*
X100600000Y77400000D01*
X102200000Y77400000D02*
X104200000Y77400000D01*
X106400000Y77400000D02*
X111800000Y77400000D01*
X112600000Y77400000D02*
X127400000Y77400000D01*
X600000Y77200000D02*
X13600000Y77200000D01*
X16400000Y77200000D02*
X21600000Y77200000D01*
X22800000Y77200000D02*
X24400000Y77200000D01*
X26400000Y77200000D02*
X28800000Y77200000D01*
X30400000Y77200000D02*
X31600000Y77200000D01*
X34400000Y77200000D02*
X39600000Y77200000D01*
X40800000Y77200000D02*
X42200000Y77200000D01*
X44200000Y77200000D02*
X46800000Y77200000D01*
X48400000Y77200000D02*
X50200000Y77200000D01*
X66400000Y77200000D02*
X68200000Y77200000D01*
X70400000Y77200000D02*
X75600000Y77200000D01*
X76800000Y77200000D02*
X82800000Y77200000D01*
X84400000Y77200000D02*
X86200000Y77200000D01*
X88400000Y77200000D02*
X93600000Y77200000D01*
X94800000Y77200000D02*
X100800000Y77200000D01*
X102400000Y77200000D02*
X104000000Y77200000D01*
X106400000Y77200000D02*
X111600000Y77200000D01*
X112800000Y77200000D02*
X127400000Y77200000D01*
X600000Y77000000D02*
X13600000Y77000000D01*
X16400000Y77000000D02*
X17200000Y77000000D01*
X23000000Y77000000D02*
X24400000Y77000000D01*
X26600000Y77000000D02*
X29000000Y77000000D01*
X30600000Y77000000D02*
X31600000Y77000000D01*
X34400000Y77000000D02*
X35200000Y77000000D01*
X41000000Y77000000D02*
X42200000Y77000000D01*
X44400000Y77000000D02*
X47000000Y77000000D01*
X48600000Y77000000D02*
X50200000Y77000000D01*
X66600000Y77000000D02*
X68200000Y77000000D01*
X70400000Y77000000D02*
X71200000Y77000000D01*
X77000000Y77000000D02*
X83000000Y77000000D01*
X84600000Y77000000D02*
X86200000Y77000000D01*
X88400000Y77000000D02*
X89200000Y77000000D01*
X95000000Y77000000D02*
X101000000Y77000000D01*
X102600000Y77000000D02*
X103800000Y77000000D01*
X106400000Y77000000D02*
X107200000Y77000000D01*
X113000000Y77000000D02*
X127400000Y77000000D01*
X600000Y76800000D02*
X13600000Y76800000D01*
X14800000Y76800000D02*
X17000000Y76800000D01*
X23000000Y76800000D02*
X24200000Y76800000D01*
X26600000Y76800000D02*
X29200000Y76800000D01*
X30800000Y76800000D02*
X31600000Y76800000D01*
X32800000Y76800000D02*
X35000000Y76800000D01*
X41000000Y76800000D02*
X42000000Y76800000D01*
X44400000Y76800000D02*
X47200000Y76800000D01*
X48800000Y76800000D02*
X50800000Y76800000D01*
X51600000Y76800000D02*
X51600000Y76800000D01*
X66800000Y76800000D02*
X71000000Y76800000D01*
X77000000Y76800000D02*
X83200000Y76800000D01*
X84800000Y76800000D02*
X89000000Y76800000D01*
X95000000Y76800000D02*
X101200000Y76800000D01*
X102800000Y76800000D02*
X103600000Y76800000D01*
X105200000Y76800000D02*
X107000000Y76800000D01*
X113000000Y76800000D02*
X127400000Y76800000D01*
X600000Y76600000D02*
X13600000Y76600000D01*
X14800000Y76600000D02*
X15600000Y76600000D01*
X23000000Y76600000D02*
X24200000Y76600000D01*
X26600000Y76600000D02*
X29400000Y76600000D01*
X31000000Y76600000D02*
X31200000Y76600000D01*
X32800000Y76600000D02*
X33600000Y76600000D01*
X41000000Y76600000D02*
X42000000Y76600000D01*
X44400000Y76600000D02*
X47400000Y76600000D01*
X49000000Y76600000D02*
X50600000Y76600000D01*
X51800000Y76600000D02*
X53000000Y76600000D01*
X67000000Y76600000D02*
X69600000Y76600000D01*
X77000000Y76600000D02*
X83400000Y76600000D01*
X85000000Y76600000D02*
X87400000Y76600000D01*
X95000000Y76600000D02*
X101400000Y76600000D01*
X103000000Y76600000D02*
X103200000Y76600000D01*
X105000000Y76600000D02*
X105400000Y76600000D01*
X113000000Y76600000D02*
X127400000Y76600000D01*
X600000Y76400000D02*
X13600000Y76400000D01*
X22800000Y76400000D02*
X24200000Y76400000D01*
X26600000Y76400000D02*
X29600000Y76400000D01*
X40800000Y76400000D02*
X42000000Y76400000D01*
X44400000Y76400000D02*
X47600000Y76400000D01*
X49200000Y76400000D02*
X50200000Y76400000D01*
X52400000Y76400000D02*
X53200000Y76400000D01*
X67200000Y76400000D02*
X68200000Y76400000D01*
X76800000Y76400000D02*
X83600000Y76400000D01*
X85200000Y76400000D02*
X86200000Y76400000D01*
X94800000Y76400000D02*
X95800000Y76400000D01*
X112800000Y76400000D02*
X127400000Y76400000D01*
X600000Y76200000D02*
X13600000Y76200000D01*
X22600000Y76200000D02*
X24200000Y76200000D01*
X26600000Y76200000D02*
X29800000Y76200000D01*
X40600000Y76200000D02*
X42000000Y76200000D01*
X44400000Y76200000D02*
X47800000Y76200000D01*
X49400000Y76200000D02*
X50200000Y76200000D01*
X52400000Y76200000D02*
X53600000Y76200000D01*
X55800000Y76200000D02*
X59000000Y76200000D01*
X60600000Y76200000D02*
X65800000Y76200000D01*
X67400000Y76200000D02*
X68200000Y76200000D01*
X76600000Y76200000D02*
X83800000Y76200000D01*
X85400000Y76200000D02*
X86200000Y76200000D01*
X94600000Y76200000D02*
X95600000Y76200000D01*
X112600000Y76200000D02*
X127400000Y76200000D01*
X600000Y76000000D02*
X13600000Y76000000D01*
X19800000Y76000000D02*
X24400000Y76000000D01*
X26600000Y76000000D02*
X30000000Y76000000D01*
X37800000Y76000000D02*
X42000000Y76000000D01*
X44400000Y76000000D02*
X48000000Y76000000D01*
X49600000Y76000000D02*
X50200000Y76000000D01*
X52400000Y76000000D02*
X53600000Y76000000D01*
X55800000Y76000000D02*
X59000000Y76000000D01*
X60800000Y76000000D02*
X66000000Y76000000D01*
X67600000Y76000000D02*
X68200000Y76000000D01*
X73800000Y76000000D02*
X84000000Y76000000D01*
X85600000Y76000000D02*
X86200000Y76000000D01*
X91800000Y76000000D02*
X95400000Y76000000D01*
X109800000Y76000000D02*
X127400000Y76000000D01*
X600000Y75800000D02*
X13600000Y75800000D01*
X17600000Y75800000D02*
X17600000Y75800000D01*
X19800000Y75800000D02*
X24400000Y75800000D01*
X26400000Y75800000D02*
X30200000Y75800000D01*
X35600000Y75800000D02*
X35600000Y75800000D01*
X37800000Y75800000D02*
X42200000Y75800000D01*
X44200000Y75800000D02*
X48200000Y75800000D01*
X49800000Y75800000D02*
X50200000Y75800000D01*
X52400000Y75800000D02*
X53600000Y75800000D01*
X55800000Y75800000D02*
X59200000Y75800000D01*
X61000000Y75800000D02*
X66200000Y75800000D01*
X67800000Y75800000D02*
X68200000Y75800000D01*
X71600000Y75800000D02*
X71600000Y75800000D01*
X73800000Y75800000D02*
X84200000Y75800000D01*
X85800000Y75800000D02*
X86200000Y75800000D01*
X89600000Y75800000D02*
X89600000Y75800000D01*
X91800000Y75800000D02*
X95200000Y75800000D01*
X107600000Y75800000D02*
X107600000Y75800000D01*
X109800000Y75800000D02*
X127400000Y75800000D01*
X600000Y75600000D02*
X13600000Y75600000D01*
X16400000Y75600000D02*
X17600000Y75600000D01*
X19800000Y75600000D02*
X24600000Y75600000D01*
X26400000Y75600000D02*
X30200000Y75600000D01*
X32200000Y75600000D02*
X32200000Y75600000D01*
X34400000Y75600000D02*
X35600000Y75600000D01*
X37800000Y75600000D02*
X42400000Y75600000D01*
X44000000Y75600000D02*
X48400000Y75600000D01*
X50000000Y75600000D02*
X50200000Y75600000D01*
X52400000Y75600000D02*
X53600000Y75600000D01*
X55800000Y75600000D02*
X59400000Y75600000D01*
X61200000Y75600000D02*
X66400000Y75600000D01*
X68000000Y75600000D02*
X68200000Y75600000D01*
X70400000Y75600000D02*
X71600000Y75600000D01*
X73800000Y75600000D02*
X84400000Y75600000D01*
X86000000Y75600000D02*
X86200000Y75600000D01*
X88400000Y75600000D02*
X89600000Y75600000D01*
X91800000Y75600000D02*
X95000000Y75600000D01*
X102400000Y75600000D02*
X102400000Y75600000D01*
X104200000Y75600000D02*
X104200000Y75600000D01*
X106400000Y75600000D02*
X107600000Y75600000D01*
X109800000Y75600000D02*
X127400000Y75600000D01*
X600000Y75400000D02*
X13600000Y75400000D01*
X16400000Y75400000D02*
X17600000Y75400000D01*
X19800000Y75400000D02*
X24800000Y75400000D01*
X26000000Y75400000D02*
X30000000Y75400000D01*
X32200000Y75400000D02*
X32200000Y75400000D01*
X34400000Y75400000D02*
X35400000Y75400000D01*
X37800000Y75400000D02*
X42800000Y75400000D01*
X43800000Y75400000D02*
X48600000Y75400000D01*
X50200000Y75400000D02*
X50200000Y75400000D01*
X52400000Y75400000D02*
X53400000Y75400000D01*
X55800000Y75400000D02*
X59800000Y75400000D01*
X61400000Y75400000D02*
X66600000Y75400000D01*
X68200000Y75400000D02*
X68200000Y75400000D01*
X70400000Y75400000D02*
X71400000Y75400000D01*
X73800000Y75400000D02*
X84600000Y75400000D01*
X86200000Y75400000D02*
X86200000Y75400000D01*
X88400000Y75400000D02*
X89400000Y75400000D01*
X91800000Y75400000D02*
X94800000Y75400000D01*
X96400000Y75400000D02*
X101400000Y75400000D01*
X102200000Y75400000D02*
X102600000Y75400000D01*
X104200000Y75400000D02*
X104200000Y75400000D01*
X106400000Y75400000D02*
X107400000Y75400000D01*
X109800000Y75400000D02*
X127400000Y75400000D01*
X600000Y75200000D02*
X13600000Y75200000D01*
X16400000Y75200000D02*
X17600000Y75200000D01*
X19800000Y75200000D02*
X24800000Y75200000D01*
X26000000Y75200000D02*
X30000000Y75200000D01*
X34400000Y75200000D02*
X35200000Y75200000D01*
X37800000Y75200000D02*
X48800000Y75200000D01*
X52400000Y75200000D02*
X53200000Y75200000D01*
X55800000Y75200000D02*
X60000000Y75200000D01*
X61600000Y75200000D02*
X66800000Y75200000D01*
X70400000Y75200000D02*
X71200000Y75200000D01*
X73800000Y75200000D02*
X84800000Y75200000D01*
X88400000Y75200000D02*
X89200000Y75200000D01*
X91800000Y75200000D02*
X94600000Y75200000D01*
X96200000Y75200000D02*
X102800000Y75200000D01*
X106400000Y75200000D02*
X107200000Y75200000D01*
X109800000Y75200000D02*
X127400000Y75200000D01*
X600000Y75000000D02*
X13600000Y75000000D01*
X16400000Y75000000D02*
X17600000Y75000000D01*
X19800000Y75000000D02*
X24800000Y75000000D01*
X26000000Y75000000D02*
X29800000Y75000000D01*
X37800000Y75000000D02*
X42800000Y75000000D01*
X43800000Y75000000D02*
X49000000Y75000000D01*
X55800000Y75000000D02*
X60200000Y75000000D01*
X61800000Y75000000D02*
X67000000Y75000000D01*
X73800000Y75000000D02*
X85000000Y75000000D01*
X91800000Y75000000D02*
X94400000Y75000000D01*
X96000000Y75000000D02*
X103000000Y75000000D01*
X109800000Y75000000D02*
X127400000Y75000000D01*
X600000Y74800000D02*
X13600000Y74800000D01*
X16400000Y74800000D02*
X17600000Y74800000D01*
X19800000Y74800000D02*
X24600000Y74800000D01*
X26400000Y74800000D02*
X29600000Y74800000D01*
X37800000Y74800000D02*
X42400000Y74800000D01*
X44000000Y74800000D02*
X49200000Y74800000D01*
X55800000Y74800000D02*
X60400000Y74800000D01*
X62000000Y74800000D02*
X67200000Y74800000D01*
X73800000Y74800000D02*
X85200000Y74800000D01*
X91800000Y74800000D02*
X94200000Y74800000D01*
X95800000Y74800000D02*
X103200000Y74800000D01*
X109800000Y74800000D02*
X127400000Y74800000D01*
X600000Y74600000D02*
X13600000Y74600000D01*
X14800000Y74600000D02*
X18600000Y74600000D01*
X19800000Y74600000D02*
X24400000Y74600000D01*
X26400000Y74600000D02*
X29400000Y74600000D01*
X31200000Y74600000D02*
X31400000Y74600000D01*
X36200000Y74600000D02*
X42200000Y74600000D01*
X44200000Y74600000D02*
X49400000Y74600000D01*
X54200000Y74600000D02*
X60600000Y74600000D01*
X62200000Y74600000D02*
X67400000Y74600000D01*
X72200000Y74600000D02*
X85400000Y74600000D01*
X90200000Y74600000D02*
X94000000Y74600000D01*
X95600000Y74600000D02*
X103400000Y74600000D01*
X108200000Y74600000D02*
X127400000Y74600000D01*
X600000Y74400000D02*
X13600000Y74400000D01*
X14800000Y74400000D02*
X18600000Y74400000D01*
X19800000Y74400000D02*
X24400000Y74400000D01*
X26600000Y74400000D02*
X29200000Y74400000D01*
X30800000Y74400000D02*
X31600000Y74400000D01*
X36000000Y74400000D02*
X42000000Y74400000D01*
X44400000Y74400000D02*
X49600000Y74400000D01*
X54000000Y74400000D02*
X60800000Y74400000D01*
X62400000Y74400000D02*
X67600000Y74400000D01*
X72000000Y74400000D02*
X85600000Y74400000D01*
X90000000Y74400000D02*
X93800000Y74400000D01*
X95400000Y74400000D02*
X103600000Y74400000D01*
X108000000Y74400000D02*
X127400000Y74400000D01*
X600000Y74200000D02*
X13600000Y74200000D01*
X14800000Y74200000D02*
X18600000Y74200000D01*
X19800000Y74200000D02*
X24200000Y74200000D01*
X26600000Y74200000D02*
X29000000Y74200000D01*
X30600000Y74200000D02*
X31800000Y74200000D01*
X35800000Y74200000D02*
X42000000Y74200000D01*
X44400000Y74200000D02*
X49800000Y74200000D01*
X53800000Y74200000D02*
X61000000Y74200000D01*
X62600000Y74200000D02*
X67800000Y74200000D01*
X71800000Y74200000D02*
X85800000Y74200000D01*
X89800000Y74200000D02*
X93600000Y74200000D01*
X95200000Y74200000D02*
X103800000Y74200000D01*
X107800000Y74200000D02*
X127400000Y74200000D01*
X600000Y74000000D02*
X13600000Y74000000D01*
X14800000Y74000000D02*
X16200000Y74000000D01*
X17800000Y74000000D02*
X18600000Y74000000D01*
X19800000Y74000000D02*
X24200000Y74000000D01*
X26600000Y74000000D02*
X28800000Y74000000D01*
X30400000Y74000000D02*
X34200000Y74000000D01*
X35800000Y74000000D02*
X42000000Y74000000D01*
X44400000Y74000000D02*
X52200000Y74000000D01*
X53800000Y74000000D02*
X61200000Y74000000D01*
X62800000Y74000000D02*
X70200000Y74000000D01*
X71800000Y74000000D02*
X88200000Y74000000D01*
X89800000Y74000000D02*
X93400000Y74000000D01*
X95000000Y74000000D02*
X106200000Y74000000D01*
X107800000Y74000000D02*
X127400000Y74000000D01*
X600000Y73800000D02*
X13600000Y73800000D01*
X14800000Y73800000D02*
X15800000Y73800000D01*
X18200000Y73800000D02*
X18600000Y73800000D01*
X19800000Y73800000D02*
X24200000Y73800000D01*
X26600000Y73800000D02*
X28400000Y73800000D01*
X30200000Y73800000D02*
X33800000Y73800000D01*
X36200000Y73800000D02*
X42000000Y73800000D01*
X44400000Y73800000D02*
X51800000Y73800000D01*
X54200000Y73800000D02*
X61400000Y73800000D01*
X63000000Y73800000D02*
X69800000Y73800000D01*
X72200000Y73800000D02*
X87800000Y73800000D01*
X90200000Y73800000D02*
X93200000Y73800000D01*
X94800000Y73800000D02*
X105800000Y73800000D01*
X108200000Y73800000D02*
X127400000Y73800000D01*
X600000Y73600000D02*
X13600000Y73600000D01*
X14800000Y73600000D02*
X15600000Y73600000D01*
X18400000Y73600000D02*
X18600000Y73600000D01*
X19800000Y73600000D02*
X24200000Y73600000D01*
X26600000Y73600000D02*
X28000000Y73600000D01*
X30000000Y73600000D02*
X33600000Y73600000D01*
X36400000Y73600000D02*
X42000000Y73600000D01*
X44400000Y73600000D02*
X51600000Y73600000D01*
X54400000Y73600000D02*
X61600000Y73600000D01*
X63200000Y73600000D02*
X69600000Y73600000D01*
X72400000Y73600000D02*
X87600000Y73600000D01*
X90400000Y73600000D02*
X93000000Y73600000D01*
X94600000Y73600000D02*
X105600000Y73600000D01*
X108400000Y73600000D02*
X127400000Y73600000D01*
X600000Y73400000D02*
X13600000Y73400000D01*
X14800000Y73400000D02*
X15400000Y73400000D01*
X18600000Y73400000D02*
X18600000Y73400000D01*
X19800000Y73400000D02*
X24400000Y73400000D01*
X26600000Y73400000D02*
X27800000Y73400000D01*
X29800000Y73400000D02*
X33400000Y73400000D01*
X36600000Y73400000D02*
X42200000Y73400000D01*
X44400000Y73400000D02*
X51400000Y73400000D01*
X54600000Y73400000D02*
X61800000Y73400000D01*
X63400000Y73400000D02*
X69400000Y73400000D01*
X72600000Y73400000D02*
X87400000Y73400000D01*
X90600000Y73400000D02*
X92800000Y73400000D01*
X94400000Y73400000D02*
X105400000Y73400000D01*
X108600000Y73400000D02*
X127400000Y73400000D01*
X600000Y73200000D02*
X10800000Y73200000D01*
X12200000Y73200000D02*
X13600000Y73200000D01*
X14800000Y73200000D02*
X15200000Y73200000D01*
X19800000Y73200000D02*
X21800000Y73200000D01*
X23200000Y73200000D02*
X24400000Y73200000D01*
X26400000Y73200000D02*
X27600000Y73200000D01*
X30200000Y73200000D02*
X33200000Y73200000D01*
X36800000Y73200000D02*
X39800000Y73200000D01*
X41200000Y73200000D02*
X42200000Y73200000D01*
X44200000Y73200000D02*
X46800000Y73200000D01*
X48200000Y73200000D02*
X51200000Y73200000D01*
X54800000Y73200000D02*
X57800000Y73200000D01*
X59200000Y73200000D02*
X62000000Y73200000D01*
X63600000Y73200000D02*
X64800000Y73200000D01*
X66200000Y73200000D02*
X69200000Y73200000D01*
X72800000Y73200000D02*
X75800000Y73200000D01*
X77200000Y73200000D02*
X82800000Y73200000D01*
X84200000Y73200000D02*
X87200000Y73200000D01*
X90800000Y73200000D02*
X92600000Y73200000D01*
X95200000Y73200000D02*
X100800000Y73200000D01*
X102200000Y73200000D02*
X105200000Y73200000D01*
X108800000Y73200000D02*
X111800000Y73200000D01*
X113200000Y73200000D02*
X127400000Y73200000D01*
X600000Y73000000D02*
X10400000Y73000000D01*
X12600000Y73000000D02*
X13600000Y73000000D01*
X14800000Y73000000D02*
X15000000Y73000000D01*
X19800000Y73000000D02*
X21400000Y73000000D01*
X23600000Y73000000D02*
X24400000Y73000000D01*
X30600000Y73000000D02*
X33000000Y73000000D01*
X37000000Y73000000D02*
X39400000Y73000000D01*
X41600000Y73000000D02*
X42400000Y73000000D01*
X44000000Y73000000D02*
X46400000Y73000000D01*
X48600000Y73000000D02*
X51000000Y73000000D01*
X55000000Y73000000D02*
X57400000Y73000000D01*
X59600000Y73000000D02*
X62200000Y73000000D01*
X63800000Y73000000D02*
X64400000Y73000000D01*
X66600000Y73000000D02*
X69000000Y73000000D01*
X73000000Y73000000D02*
X75400000Y73000000D01*
X77600000Y73000000D02*
X82400000Y73000000D01*
X84600000Y73000000D02*
X87000000Y73000000D01*
X91000000Y73000000D02*
X92400000Y73000000D01*
X95600000Y73000000D02*
X100400000Y73000000D01*
X102600000Y73000000D02*
X105000000Y73000000D01*
X109000000Y73000000D02*
X111400000Y73000000D01*
X113600000Y73000000D02*
X127400000Y73000000D01*
X600000Y72800000D02*
X10400000Y72800000D01*
X12600000Y72800000D02*
X13600000Y72800000D01*
X14800000Y72800000D02*
X15000000Y72800000D01*
X19800000Y72800000D02*
X21400000Y72800000D01*
X23600000Y72800000D02*
X24200000Y72800000D01*
X30600000Y72800000D02*
X33000000Y72800000D01*
X37000000Y72800000D02*
X39400000Y72800000D01*
X41600000Y72800000D02*
X43000000Y72800000D01*
X43600000Y72800000D02*
X46400000Y72800000D01*
X48600000Y72800000D02*
X51000000Y72800000D01*
X55000000Y72800000D02*
X57400000Y72800000D01*
X59600000Y72800000D02*
X62400000Y72800000D01*
X64000000Y72800000D02*
X64400000Y72800000D01*
X66600000Y72800000D02*
X69000000Y72800000D01*
X73000000Y72800000D02*
X75400000Y72800000D01*
X77600000Y72800000D02*
X82400000Y72800000D01*
X84600000Y72800000D02*
X87000000Y72800000D01*
X91000000Y72800000D02*
X92200000Y72800000D01*
X95600000Y72800000D02*
X100400000Y72800000D01*
X102600000Y72800000D02*
X105000000Y72800000D01*
X109000000Y72800000D02*
X111400000Y72800000D01*
X113600000Y72800000D02*
X127400000Y72800000D01*
X600000Y72600000D02*
X10200000Y72600000D01*
X12800000Y72600000D02*
X13600000Y72600000D01*
X14800000Y72600000D02*
X14800000Y72600000D01*
X19800000Y72600000D02*
X21200000Y72600000D01*
X23800000Y72600000D02*
X24000000Y72600000D01*
X30800000Y72600000D02*
X32800000Y72600000D01*
X37200000Y72600000D02*
X39200000Y72600000D01*
X41800000Y72600000D02*
X46200000Y72600000D01*
X48800000Y72600000D02*
X50800000Y72600000D01*
X55200000Y72600000D02*
X57200000Y72600000D01*
X59800000Y72600000D02*
X62600000Y72600000D01*
X64200000Y72600000D02*
X64200000Y72600000D01*
X66800000Y72600000D02*
X68800000Y72600000D01*
X73200000Y72600000D02*
X75200000Y72600000D01*
X77800000Y72600000D02*
X82200000Y72600000D01*
X84800000Y72600000D02*
X86800000Y72600000D01*
X91200000Y72600000D02*
X92000000Y72600000D01*
X95800000Y72600000D02*
X100200000Y72600000D01*
X102800000Y72600000D02*
X104800000Y72600000D01*
X109200000Y72600000D02*
X111200000Y72600000D01*
X113800000Y72600000D02*
X127400000Y72600000D01*
X600000Y72400000D02*
X10200000Y72400000D01*
X12800000Y72400000D02*
X13600000Y72400000D01*
X14800000Y72400000D02*
X14800000Y72400000D01*
X19800000Y72400000D02*
X21200000Y72400000D01*
X23800000Y72400000D02*
X23800000Y72400000D01*
X30800000Y72400000D02*
X32800000Y72400000D01*
X37200000Y72400000D02*
X39200000Y72400000D01*
X41800000Y72400000D02*
X42600000Y72400000D01*
X43800000Y72400000D02*
X46200000Y72400000D01*
X48800000Y72400000D02*
X50800000Y72400000D01*
X55200000Y72400000D02*
X57200000Y72400000D01*
X59800000Y72400000D02*
X62800000Y72400000D01*
X66800000Y72400000D02*
X68800000Y72400000D01*
X73200000Y72400000D02*
X75200000Y72400000D01*
X77800000Y72400000D02*
X82200000Y72400000D01*
X84800000Y72400000D02*
X86800000Y72400000D01*
X91200000Y72400000D02*
X91800000Y72400000D01*
X95800000Y72400000D02*
X100200000Y72400000D01*
X102800000Y72400000D02*
X104800000Y72400000D01*
X109200000Y72400000D02*
X111200000Y72400000D01*
X113800000Y72400000D02*
X127400000Y72400000D01*
X600000Y72200000D02*
X10000000Y72200000D01*
X13000000Y72200000D02*
X13600000Y72200000D01*
X14800000Y72200000D02*
X14800000Y72200000D01*
X19800000Y72200000D02*
X21000000Y72200000D01*
X31000000Y72200000D02*
X32800000Y72200000D01*
X37200000Y72200000D02*
X39000000Y72200000D01*
X42000000Y72200000D02*
X42400000Y72200000D01*
X44200000Y72200000D02*
X46000000Y72200000D01*
X49000000Y72200000D02*
X50800000Y72200000D01*
X55200000Y72200000D02*
X57000000Y72200000D01*
X60000000Y72200000D02*
X63000000Y72200000D01*
X67000000Y72200000D02*
X68800000Y72200000D01*
X73200000Y72200000D02*
X75000000Y72200000D01*
X78000000Y72200000D02*
X82000000Y72200000D01*
X85000000Y72200000D02*
X86800000Y72200000D01*
X91200000Y72200000D02*
X91600000Y72200000D01*
X96000000Y72200000D02*
X100000000Y72200000D01*
X103000000Y72200000D02*
X104800000Y72200000D01*
X109200000Y72200000D02*
X111000000Y72200000D01*
X114000000Y72200000D02*
X127400000Y72200000D01*
X600000Y72000000D02*
X10000000Y72000000D01*
X13000000Y72000000D02*
X13600000Y72000000D01*
X14800000Y72000000D02*
X14800000Y72000000D01*
X19800000Y72000000D02*
X21000000Y72000000D01*
X26600000Y72000000D02*
X28000000Y72000000D01*
X31000000Y72000000D02*
X32800000Y72000000D01*
X37200000Y72000000D02*
X39000000Y72000000D01*
X42000000Y72000000D02*
X42200000Y72000000D01*
X44400000Y72000000D02*
X46000000Y72000000D01*
X49000000Y72000000D02*
X50800000Y72000000D01*
X55200000Y72000000D02*
X57000000Y72000000D01*
X60000000Y72000000D02*
X63200000Y72000000D01*
X67000000Y72000000D02*
X68800000Y72000000D01*
X73200000Y72000000D02*
X75000000Y72000000D01*
X78000000Y72000000D02*
X82000000Y72000000D01*
X85000000Y72000000D02*
X86800000Y72000000D01*
X91200000Y72000000D02*
X91400000Y72000000D01*
X93000000Y72000000D02*
X93000000Y72000000D01*
X96000000Y72000000D02*
X100000000Y72000000D01*
X103000000Y72000000D02*
X104800000Y72000000D01*
X109200000Y72000000D02*
X111000000Y72000000D01*
X114000000Y72000000D02*
X127400000Y72000000D01*
X600000Y71800000D02*
X10000000Y71800000D01*
X13000000Y71800000D02*
X13600000Y71800000D01*
X14800000Y71800000D02*
X14800000Y71800000D01*
X19800000Y71800000D02*
X21000000Y71800000D01*
X26600000Y71800000D02*
X28000000Y71800000D01*
X31000000Y71800000D02*
X32800000Y71800000D01*
X37200000Y71800000D02*
X39000000Y71800000D01*
X42000000Y71800000D02*
X42000000Y71800000D01*
X44400000Y71800000D02*
X46000000Y71800000D01*
X49000000Y71800000D02*
X50800000Y71800000D01*
X55200000Y71800000D02*
X57000000Y71800000D01*
X60000000Y71800000D02*
X63400000Y71800000D01*
X67000000Y71800000D02*
X68800000Y71800000D01*
X73200000Y71800000D02*
X75000000Y71800000D01*
X78000000Y71800000D02*
X82000000Y71800000D01*
X85000000Y71800000D02*
X86800000Y71800000D01*
X91200000Y71800000D02*
X91200000Y71800000D01*
X92800000Y71800000D02*
X93000000Y71800000D01*
X96000000Y71800000D02*
X100000000Y71800000D01*
X103000000Y71800000D02*
X104800000Y71800000D01*
X109200000Y71800000D02*
X111000000Y71800000D01*
X114000000Y71800000D02*
X127400000Y71800000D01*
X600000Y71600000D02*
X10200000Y71600000D01*
X12800000Y71600000D02*
X13600000Y71600000D01*
X14800000Y71600000D02*
X14800000Y71600000D01*
X19800000Y71600000D02*
X21200000Y71600000D01*
X26600000Y71600000D02*
X28200000Y71600000D01*
X30800000Y71600000D02*
X32800000Y71600000D01*
X37200000Y71600000D02*
X39200000Y71600000D01*
X41800000Y71600000D02*
X42000000Y71600000D01*
X44400000Y71600000D02*
X46200000Y71600000D01*
X48800000Y71600000D02*
X50800000Y71600000D01*
X55200000Y71600000D02*
X57200000Y71600000D01*
X59800000Y71600000D02*
X63400000Y71600000D01*
X66800000Y71600000D02*
X68800000Y71600000D01*
X73200000Y71600000D02*
X75200000Y71600000D01*
X77800000Y71600000D02*
X82200000Y71600000D01*
X84800000Y71600000D02*
X86800000Y71600000D01*
X92600000Y71600000D02*
X93200000Y71600000D01*
X95800000Y71600000D02*
X100200000Y71600000D01*
X102800000Y71600000D02*
X104800000Y71600000D01*
X109200000Y71600000D02*
X111200000Y71600000D01*
X113800000Y71600000D02*
X127400000Y71600000D01*
X600000Y71400000D02*
X10200000Y71400000D01*
X12800000Y71400000D02*
X13600000Y71400000D01*
X14800000Y71400000D02*
X14800000Y71400000D01*
X19800000Y71400000D02*
X21200000Y71400000D01*
X26600000Y71400000D02*
X28200000Y71400000D01*
X30800000Y71400000D02*
X32800000Y71400000D01*
X37200000Y71400000D02*
X39200000Y71400000D01*
X41800000Y71400000D02*
X42000000Y71400000D01*
X44400000Y71400000D02*
X46200000Y71400000D01*
X48800000Y71400000D02*
X50800000Y71400000D01*
X55200000Y71400000D02*
X57200000Y71400000D01*
X59800000Y71400000D02*
X63400000Y71400000D01*
X66800000Y71400000D02*
X68800000Y71400000D01*
X73200000Y71400000D02*
X75200000Y71400000D01*
X77800000Y71400000D02*
X82200000Y71400000D01*
X84800000Y71400000D02*
X86800000Y71400000D01*
X92400000Y71400000D02*
X93200000Y71400000D01*
X95800000Y71400000D02*
X100200000Y71400000D01*
X102800000Y71400000D02*
X104800000Y71400000D01*
X109200000Y71400000D02*
X111200000Y71400000D01*
X113800000Y71400000D02*
X127400000Y71400000D01*
X600000Y71200000D02*
X10400000Y71200000D01*
X12600000Y71200000D02*
X13600000Y71200000D01*
X14800000Y71200000D02*
X15000000Y71200000D01*
X19800000Y71200000D02*
X21400000Y71200000D01*
X26600000Y71200000D02*
X28400000Y71200000D01*
X30600000Y71200000D02*
X33000000Y71200000D01*
X37000000Y71200000D02*
X39400000Y71200000D01*
X41600000Y71200000D02*
X42000000Y71200000D01*
X44400000Y71200000D02*
X46400000Y71200000D01*
X48600000Y71200000D02*
X51000000Y71200000D01*
X55000000Y71200000D02*
X57400000Y71200000D01*
X59600000Y71200000D02*
X63600000Y71200000D01*
X66600000Y71200000D02*
X69000000Y71200000D01*
X73000000Y71200000D02*
X75400000Y71200000D01*
X77600000Y71200000D02*
X82400000Y71200000D01*
X84600000Y71200000D02*
X87000000Y71200000D01*
X92200000Y71200000D02*
X93400000Y71200000D01*
X95600000Y71200000D02*
X100400000Y71200000D01*
X102600000Y71200000D02*
X105000000Y71200000D01*
X109000000Y71200000D02*
X111400000Y71200000D01*
X113600000Y71200000D02*
X127400000Y71200000D01*
X600000Y71000000D02*
X10400000Y71000000D01*
X12600000Y71000000D02*
X13600000Y71000000D01*
X14800000Y71000000D02*
X15000000Y71000000D01*
X19800000Y71000000D02*
X21400000Y71000000D01*
X26600000Y71000000D02*
X28400000Y71000000D01*
X30600000Y71000000D02*
X33000000Y71000000D01*
X37000000Y71000000D02*
X39400000Y71000000D01*
X41600000Y71000000D02*
X42000000Y71000000D01*
X44400000Y71000000D02*
X46400000Y71000000D01*
X48600000Y71000000D02*
X51000000Y71000000D01*
X55000000Y71000000D02*
X57400000Y71000000D01*
X59600000Y71000000D02*
X63600000Y71000000D01*
X66600000Y71000000D02*
X69000000Y71000000D01*
X73000000Y71000000D02*
X75400000Y71000000D01*
X77600000Y71000000D02*
X82400000Y71000000D01*
X84600000Y71000000D02*
X87000000Y71000000D01*
X92000000Y71000000D02*
X93400000Y71000000D01*
X95600000Y71000000D02*
X100400000Y71000000D01*
X102600000Y71000000D02*
X105000000Y71000000D01*
X109000000Y71000000D02*
X111400000Y71000000D01*
X113600000Y71000000D02*
X127400000Y71000000D01*
X600000Y70800000D02*
X10800000Y70800000D01*
X12200000Y70800000D02*
X13600000Y70800000D01*
X14800000Y70800000D02*
X15200000Y70800000D01*
X19600000Y70800000D02*
X21800000Y70800000D01*
X24400000Y70800000D02*
X24400000Y70800000D01*
X26600000Y70800000D02*
X28800000Y70800000D01*
X30200000Y70800000D02*
X33200000Y70800000D01*
X36800000Y70800000D02*
X39800000Y70800000D01*
X41200000Y70800000D02*
X42200000Y70800000D01*
X44400000Y70800000D02*
X46800000Y70800000D01*
X48200000Y70800000D02*
X51200000Y70800000D01*
X54800000Y70800000D02*
X57800000Y70800000D01*
X59200000Y70800000D02*
X63800000Y70800000D01*
X66200000Y70800000D02*
X69200000Y70800000D01*
X72800000Y70800000D02*
X75800000Y70800000D01*
X77200000Y70800000D02*
X82800000Y70800000D01*
X84200000Y70800000D02*
X87200000Y70800000D01*
X91800000Y70800000D02*
X93800000Y70800000D01*
X95200000Y70800000D02*
X100800000Y70800000D01*
X102200000Y70800000D02*
X105200000Y70800000D01*
X108800000Y70800000D02*
X111800000Y70800000D01*
X113200000Y70800000D02*
X127400000Y70800000D01*
X600000Y70600000D02*
X13600000Y70600000D01*
X14800000Y70600000D02*
X15400000Y70600000D01*
X19600000Y70600000D02*
X21000000Y70600000D01*
X24200000Y70600000D02*
X24600000Y70600000D01*
X26400000Y70600000D02*
X33400000Y70600000D01*
X36600000Y70600000D02*
X42200000Y70600000D01*
X44200000Y70600000D02*
X51400000Y70600000D01*
X54600000Y70600000D02*
X63800000Y70600000D01*
X65400000Y70600000D02*
X69400000Y70600000D01*
X72600000Y70600000D02*
X87400000Y70600000D01*
X91600000Y70600000D02*
X105400000Y70600000D01*
X108600000Y70600000D02*
X127400000Y70600000D01*
X600000Y70400000D02*
X13600000Y70400000D01*
X14800000Y70400000D02*
X15600000Y70400000D01*
X19400000Y70400000D02*
X20600000Y70400000D01*
X24000000Y70400000D02*
X24800000Y70400000D01*
X26200000Y70400000D02*
X33600000Y70400000D01*
X36400000Y70400000D02*
X42600000Y70400000D01*
X44400000Y70400000D02*
X51600000Y70400000D01*
X54400000Y70400000D02*
X64000000Y70400000D01*
X65600000Y70400000D02*
X69600000Y70400000D01*
X72400000Y70400000D02*
X87600000Y70400000D01*
X91400000Y70400000D02*
X105600000Y70400000D01*
X108400000Y70400000D02*
X127400000Y70400000D01*
X600000Y70200000D02*
X13600000Y70200000D01*
X14800000Y70200000D02*
X15800000Y70200000D01*
X19200000Y70200000D02*
X20200000Y70200000D01*
X23800000Y70200000D02*
X33800000Y70200000D01*
X36200000Y70200000D02*
X43000000Y70200000D01*
X44600000Y70200000D02*
X51800000Y70200000D01*
X54200000Y70200000D02*
X64200000Y70200000D01*
X65800000Y70200000D02*
X69800000Y70200000D01*
X72200000Y70200000D02*
X87000000Y70200000D01*
X91200000Y70200000D02*
X105800000Y70200000D01*
X108200000Y70200000D02*
X127400000Y70200000D01*
X600000Y70000000D02*
X13600000Y70000000D01*
X14800000Y70000000D02*
X16200000Y70000000D01*
X19000000Y70000000D02*
X20000000Y70000000D01*
X23600000Y70000000D02*
X34200000Y70000000D01*
X35800000Y70000000D02*
X39400000Y70000000D01*
X40600000Y70000000D02*
X43200000Y70000000D01*
X44800000Y70000000D02*
X52200000Y70000000D01*
X53800000Y70000000D02*
X57400000Y70000000D01*
X58600000Y70000000D02*
X64400000Y70000000D01*
X66000000Y70000000D02*
X70200000Y70000000D01*
X71800000Y70000000D02*
X75400000Y70000000D01*
X76600000Y70000000D02*
X86800000Y70000000D01*
X91000000Y70000000D02*
X93400000Y70000000D01*
X94600000Y70000000D02*
X106200000Y70000000D01*
X107800000Y70000000D02*
X111400000Y70000000D01*
X112600000Y70000000D02*
X127400000Y70000000D01*
X600000Y69800000D02*
X13600000Y69800000D01*
X14800000Y69800000D02*
X17000000Y69800000D01*
X18800000Y69800000D02*
X19800000Y69800000D01*
X23400000Y69800000D02*
X39000000Y69800000D01*
X41000000Y69800000D02*
X43400000Y69800000D01*
X45000000Y69800000D02*
X57000000Y69800000D01*
X59000000Y69800000D02*
X64600000Y69800000D01*
X66200000Y69800000D02*
X75000000Y69800000D01*
X77000000Y69800000D02*
X86600000Y69800000D01*
X90800000Y69800000D02*
X93000000Y69800000D01*
X95000000Y69800000D02*
X111000000Y69800000D01*
X113000000Y69800000D02*
X127400000Y69800000D01*
X600000Y69600000D02*
X13600000Y69600000D01*
X14800000Y69600000D02*
X16800000Y69600000D01*
X18600000Y69600000D02*
X19600000Y69600000D01*
X23400000Y69600000D02*
X38600000Y69600000D01*
X41400000Y69600000D02*
X43600000Y69600000D01*
X45000000Y69600000D02*
X56600000Y69600000D01*
X59400000Y69600000D02*
X64800000Y69600000D01*
X66400000Y69600000D02*
X74600000Y69600000D01*
X77400000Y69600000D02*
X86400000Y69600000D01*
X90600000Y69600000D02*
X92600000Y69600000D01*
X95400000Y69600000D02*
X110600000Y69600000D01*
X113400000Y69600000D02*
X127400000Y69600000D01*
X600000Y69400000D02*
X13600000Y69400000D01*
X14800000Y69400000D02*
X16600000Y69400000D01*
X18200000Y69400000D02*
X19400000Y69400000D01*
X23600000Y69400000D02*
X38400000Y69400000D01*
X41600000Y69400000D02*
X43800000Y69400000D01*
X45000000Y69400000D02*
X56400000Y69400000D01*
X59600000Y69400000D02*
X65000000Y69400000D01*
X66600000Y69400000D02*
X74400000Y69400000D01*
X77600000Y69400000D02*
X86200000Y69400000D01*
X90200000Y69400000D02*
X92400000Y69400000D01*
X95600000Y69400000D02*
X110400000Y69400000D01*
X113600000Y69400000D02*
X127400000Y69400000D01*
X600000Y69200000D02*
X13600000Y69200000D01*
X14800000Y69200000D02*
X16400000Y69200000D01*
X18000000Y69200000D02*
X19200000Y69200000D01*
X23600000Y69200000D02*
X38400000Y69200000D01*
X41600000Y69200000D02*
X43800000Y69200000D01*
X45000000Y69200000D02*
X56400000Y69200000D01*
X59600000Y69200000D02*
X65200000Y69200000D01*
X66800000Y69200000D02*
X74400000Y69200000D01*
X77600000Y69200000D02*
X86000000Y69200000D01*
X87600000Y69200000D02*
X92400000Y69200000D01*
X95600000Y69200000D02*
X110400000Y69200000D01*
X113600000Y69200000D02*
X127400000Y69200000D01*
X600000Y69000000D02*
X13600000Y69000000D01*
X14800000Y69000000D02*
X16200000Y69000000D01*
X17800000Y69000000D02*
X19000000Y69000000D01*
X23800000Y69000000D02*
X38200000Y69000000D01*
X41800000Y69000000D02*
X43800000Y69000000D01*
X45000000Y69000000D02*
X56200000Y69000000D01*
X59800000Y69000000D02*
X65400000Y69000000D01*
X67000000Y69000000D02*
X74200000Y69000000D01*
X77800000Y69000000D02*
X85800000Y69000000D01*
X87400000Y69000000D02*
X92200000Y69000000D01*
X95800000Y69000000D02*
X110200000Y69000000D01*
X113800000Y69000000D02*
X127400000Y69000000D01*
X600000Y68800000D02*
X13600000Y68800000D01*
X14800000Y68800000D02*
X16000000Y68800000D01*
X17600000Y68800000D02*
X18800000Y68800000D01*
X23800000Y68800000D02*
X38200000Y68800000D01*
X41800000Y68800000D02*
X43800000Y68800000D01*
X45000000Y68800000D02*
X56200000Y68800000D01*
X59800000Y68800000D02*
X65600000Y68800000D01*
X67200000Y68800000D02*
X74200000Y68800000D01*
X77800000Y68800000D02*
X85600000Y68800000D01*
X87200000Y68800000D02*
X92200000Y68800000D01*
X95800000Y68800000D02*
X110200000Y68800000D01*
X113800000Y68800000D02*
X127400000Y68800000D01*
X600000Y68600000D02*
X13600000Y68600000D01*
X14800000Y68600000D02*
X15800000Y68600000D01*
X17400000Y68600000D02*
X18400000Y68600000D01*
X24000000Y68600000D02*
X38000000Y68600000D01*
X42000000Y68600000D02*
X43800000Y68600000D01*
X45000000Y68600000D02*
X56000000Y68600000D01*
X60000000Y68600000D02*
X65800000Y68600000D01*
X67400000Y68600000D02*
X74000000Y68600000D01*
X78000000Y68600000D02*
X85400000Y68600000D01*
X87000000Y68600000D02*
X92000000Y68600000D01*
X96000000Y68600000D02*
X110000000Y68600000D01*
X114000000Y68600000D02*
X127400000Y68600000D01*
X600000Y68400000D02*
X13600000Y68400000D01*
X14800000Y68400000D02*
X15600000Y68400000D01*
X17200000Y68400000D02*
X18200000Y68400000D01*
X20000000Y68400000D02*
X20000000Y68400000D01*
X24000000Y68400000D02*
X26200000Y68400000D01*
X36200000Y68400000D02*
X38000000Y68400000D01*
X42000000Y68400000D02*
X43800000Y68400000D01*
X45000000Y68400000D02*
X56000000Y68400000D01*
X60000000Y68400000D02*
X66000000Y68400000D01*
X67600000Y68400000D02*
X74000000Y68400000D01*
X78000000Y68400000D02*
X85200000Y68400000D01*
X86800000Y68400000D02*
X92000000Y68400000D01*
X96000000Y68400000D02*
X110000000Y68400000D01*
X114000000Y68400000D02*
X127400000Y68400000D01*
X600000Y68200000D02*
X13600000Y68200000D01*
X14800000Y68200000D02*
X15400000Y68200000D01*
X17000000Y68200000D02*
X18000000Y68200000D01*
X19800000Y68200000D02*
X20000000Y68200000D01*
X24000000Y68200000D02*
X25800000Y68200000D01*
X36600000Y68200000D02*
X38000000Y68200000D01*
X42000000Y68200000D02*
X43800000Y68200000D01*
X45000000Y68200000D02*
X56000000Y68200000D01*
X60000000Y68200000D02*
X66200000Y68200000D01*
X67800000Y68200000D02*
X74000000Y68200000D01*
X78000000Y68200000D02*
X85000000Y68200000D01*
X86600000Y68200000D02*
X92000000Y68200000D01*
X96000000Y68200000D02*
X110000000Y68200000D01*
X114000000Y68200000D02*
X127400000Y68200000D01*
X600000Y68000000D02*
X13600000Y68000000D01*
X14800000Y68000000D02*
X15200000Y68000000D01*
X16800000Y68000000D02*
X18000000Y68000000D01*
X19600000Y68000000D02*
X20000000Y68000000D01*
X24000000Y68000000D02*
X24000000Y68000000D01*
X36800000Y68000000D02*
X38000000Y68000000D01*
X42000000Y68000000D02*
X43800000Y68000000D01*
X45000000Y68000000D02*
X56000000Y68000000D01*
X60000000Y68000000D02*
X66400000Y68000000D01*
X68000000Y68000000D02*
X74000000Y68000000D01*
X78000000Y68000000D02*
X84800000Y68000000D01*
X86400000Y68000000D02*
X92000000Y68000000D01*
X96000000Y68000000D02*
X110000000Y68000000D01*
X114000000Y68000000D02*
X127400000Y68000000D01*
X600000Y67800000D02*
X13600000Y67800000D01*
X14800000Y67800000D02*
X15000000Y67800000D01*
X17800000Y67800000D02*
X18000000Y67800000D01*
X19600000Y67800000D02*
X20000000Y67800000D01*
X37000000Y67800000D02*
X38000000Y67800000D01*
X42000000Y67800000D02*
X43800000Y67800000D01*
X45000000Y67800000D02*
X52200000Y67800000D01*
X53800000Y67800000D02*
X56000000Y67800000D01*
X60000000Y67800000D02*
X66600000Y67800000D01*
X68200000Y67800000D02*
X70200000Y67800000D01*
X71800000Y67800000D02*
X74000000Y67800000D01*
X78000000Y67800000D02*
X84600000Y67800000D01*
X86200000Y67800000D02*
X88200000Y67800000D01*
X89800000Y67800000D02*
X92000000Y67800000D01*
X96000000Y67800000D02*
X106200000Y67800000D01*
X107800000Y67800000D02*
X110000000Y67800000D01*
X114000000Y67800000D02*
X127400000Y67800000D01*
X600000Y67600000D02*
X13600000Y67600000D01*
X14800000Y67600000D02*
X14800000Y67600000D01*
X18200000Y67600000D02*
X18200000Y67600000D01*
X19400000Y67600000D02*
X20200000Y67600000D01*
X37200000Y67600000D02*
X38200000Y67600000D01*
X41800000Y67600000D02*
X43800000Y67600000D01*
X45000000Y67600000D02*
X51800000Y67600000D01*
X54200000Y67600000D02*
X56200000Y67600000D01*
X59800000Y67600000D02*
X66800000Y67600000D01*
X68400000Y67600000D02*
X69800000Y67600000D01*
X72200000Y67600000D02*
X74200000Y67600000D01*
X77800000Y67600000D02*
X84400000Y67600000D01*
X86000000Y67600000D02*
X87800000Y67600000D01*
X90200000Y67600000D02*
X92200000Y67600000D01*
X95800000Y67600000D02*
X105800000Y67600000D01*
X108200000Y67600000D02*
X110200000Y67600000D01*
X113800000Y67600000D02*
X127400000Y67600000D01*
X600000Y67400000D02*
X13600000Y67400000D01*
X18400000Y67400000D02*
X18400000Y67400000D01*
X19200000Y67400000D02*
X20200000Y67400000D01*
X26800000Y67400000D02*
X33600000Y67400000D01*
X37400000Y67400000D02*
X38200000Y67400000D01*
X41800000Y67400000D02*
X42800000Y67400000D01*
X43600000Y67400000D02*
X43800000Y67400000D01*
X45000000Y67400000D02*
X51600000Y67400000D01*
X54400000Y67400000D02*
X56200000Y67400000D01*
X59800000Y67400000D02*
X67000000Y67400000D01*
X68600000Y67400000D02*
X69600000Y67400000D01*
X72400000Y67400000D02*
X74200000Y67400000D01*
X77800000Y67400000D02*
X84200000Y67400000D01*
X85800000Y67400000D02*
X87600000Y67400000D01*
X90400000Y67400000D02*
X92200000Y67400000D01*
X95800000Y67400000D02*
X105600000Y67400000D01*
X108400000Y67400000D02*
X110200000Y67400000D01*
X113800000Y67400000D02*
X127400000Y67400000D01*
X600000Y67200000D02*
X13400000Y67200000D01*
X18600000Y67200000D02*
X20400000Y67200000D01*
X26400000Y67200000D02*
X33400000Y67200000D01*
X37600000Y67200000D02*
X38400000Y67200000D01*
X41600000Y67200000D02*
X42400000Y67200000D01*
X45000000Y67200000D02*
X51400000Y67200000D01*
X54600000Y67200000D02*
X56400000Y67200000D01*
X59600000Y67200000D02*
X67200000Y67200000D01*
X68800000Y67200000D02*
X69400000Y67200000D01*
X72600000Y67200000D02*
X74400000Y67200000D01*
X77600000Y67200000D02*
X84000000Y67200000D01*
X85600000Y67200000D02*
X87400000Y67200000D01*
X90600000Y67200000D02*
X92400000Y67200000D01*
X95600000Y67200000D02*
X105400000Y67200000D01*
X108600000Y67200000D02*
X110400000Y67200000D01*
X113600000Y67200000D02*
X127400000Y67200000D01*
X600000Y67000000D02*
X13200000Y67000000D01*
X18800000Y67000000D02*
X20400000Y67000000D01*
X26400000Y67000000D02*
X33200000Y67000000D01*
X37800000Y67000000D02*
X38400000Y67000000D01*
X41600000Y67000000D02*
X42200000Y67000000D01*
X45000000Y67000000D02*
X51200000Y67000000D01*
X54800000Y67000000D02*
X56400000Y67000000D01*
X59600000Y67000000D02*
X67400000Y67000000D01*
X69000000Y67000000D02*
X69200000Y67000000D01*
X72800000Y67000000D02*
X74400000Y67000000D01*
X77600000Y67000000D02*
X83800000Y67000000D01*
X85400000Y67000000D02*
X87200000Y67000000D01*
X90800000Y67000000D02*
X92400000Y67000000D01*
X95600000Y67000000D02*
X105200000Y67000000D01*
X108800000Y67000000D02*
X110400000Y67000000D01*
X113600000Y67000000D02*
X127400000Y67000000D01*
X600000Y66800000D02*
X13000000Y66800000D01*
X18800000Y66800000D02*
X20600000Y66800000D01*
X24400000Y66800000D02*
X24400000Y66800000D01*
X26600000Y66800000D02*
X33200000Y66800000D01*
X38000000Y66800000D02*
X38600000Y66800000D01*
X41400000Y66800000D02*
X42000000Y66800000D01*
X45000000Y66800000D02*
X51200000Y66800000D01*
X54800000Y66800000D02*
X56600000Y66800000D01*
X59400000Y66800000D02*
X67600000Y66800000D01*
X69200000Y66800000D02*
X69200000Y66800000D01*
X72800000Y66800000D02*
X74600000Y66800000D01*
X77400000Y66800000D02*
X83600000Y66800000D01*
X85200000Y66800000D02*
X87200000Y66800000D01*
X90800000Y66800000D02*
X92600000Y66800000D01*
X95400000Y66800000D02*
X105200000Y66800000D01*
X108800000Y66800000D02*
X110600000Y66800000D01*
X113400000Y66800000D02*
X127400000Y66800000D01*
X600000Y66600000D02*
X12800000Y66600000D01*
X24200000Y66600000D02*
X24200000Y66600000D01*
X26600000Y66600000D02*
X33200000Y66600000D01*
X45000000Y66600000D02*
X51200000Y66600000D01*
X54800000Y66600000D02*
X57000000Y66600000D01*
X59000000Y66600000D02*
X67800000Y66600000D01*
X72800000Y66600000D02*
X75000000Y66600000D01*
X77000000Y66600000D02*
X83400000Y66600000D01*
X85000000Y66600000D02*
X87200000Y66600000D01*
X90800000Y66600000D02*
X93000000Y66600000D01*
X95000000Y66600000D02*
X105200000Y66600000D01*
X108800000Y66600000D02*
X111000000Y66600000D01*
X113000000Y66600000D02*
X127400000Y66600000D01*
X600000Y66400000D02*
X12600000Y66400000D01*
X24000000Y66400000D02*
X24200000Y66400000D01*
X26600000Y66400000D02*
X33000000Y66400000D01*
X45000000Y66400000D02*
X51000000Y66400000D01*
X55000000Y66400000D02*
X57400000Y66400000D01*
X58600000Y66400000D02*
X68000000Y66400000D01*
X73000000Y66400000D02*
X75400000Y66400000D01*
X76600000Y66400000D02*
X83200000Y66400000D01*
X84800000Y66400000D02*
X87000000Y66400000D01*
X91000000Y66400000D02*
X93400000Y66400000D01*
X94600000Y66400000D02*
X105000000Y66400000D01*
X109000000Y66400000D02*
X111400000Y66400000D01*
X112600000Y66400000D02*
X127400000Y66400000D01*
X600000Y66200000D02*
X12400000Y66200000D01*
X15000000Y66200000D02*
X15000000Y66200000D01*
X23800000Y66200000D02*
X24200000Y66200000D01*
X26600000Y66200000D02*
X33000000Y66200000D01*
X37000000Y66200000D02*
X37000000Y66200000D01*
X45000000Y66200000D02*
X51000000Y66200000D01*
X55000000Y66200000D02*
X68200000Y66200000D01*
X73000000Y66200000D02*
X83000000Y66200000D01*
X84600000Y66200000D02*
X87000000Y66200000D01*
X91000000Y66200000D02*
X105000000Y66200000D01*
X109000000Y66200000D02*
X127400000Y66200000D01*
X600000Y66000000D02*
X12400000Y66000000D01*
X14800000Y66000000D02*
X15000000Y66000000D01*
X23400000Y66000000D02*
X24200000Y66000000D01*
X26600000Y66000000D02*
X33000000Y66000000D01*
X37000000Y66000000D02*
X37200000Y66000000D01*
X45000000Y66000000D02*
X51000000Y66000000D01*
X55000000Y66000000D02*
X68200000Y66000000D01*
X73000000Y66000000D02*
X82800000Y66000000D01*
X84400000Y66000000D02*
X87000000Y66000000D01*
X91000000Y66000000D02*
X105000000Y66000000D01*
X109000000Y66000000D02*
X127400000Y66000000D01*
X600000Y65800000D02*
X12400000Y65800000D01*
X14600000Y65800000D02*
X15000000Y65800000D01*
X23000000Y65800000D02*
X24400000Y65800000D01*
X26600000Y65800000D02*
X33000000Y65800000D01*
X37000000Y65800000D02*
X37400000Y65800000D01*
X45000000Y65800000D02*
X51000000Y65800000D01*
X55000000Y65800000D02*
X68200000Y65800000D01*
X73000000Y65800000D02*
X82600000Y65800000D01*
X84200000Y65800000D02*
X87000000Y65800000D01*
X91000000Y65800000D02*
X105000000Y65800000D01*
X109000000Y65800000D02*
X127400000Y65800000D01*
X600000Y65600000D02*
X12400000Y65600000D01*
X14400000Y65600000D02*
X15200000Y65600000D01*
X18800000Y65600000D02*
X24400000Y65600000D01*
X26400000Y65600000D02*
X33200000Y65600000D01*
X37200000Y65600000D02*
X42200000Y65600000D01*
X45000000Y65600000D02*
X50800000Y65600000D01*
X54800000Y65600000D02*
X68200000Y65600000D01*
X72800000Y65600000D02*
X82400000Y65600000D01*
X84000000Y65600000D02*
X86800000Y65600000D01*
X90800000Y65600000D02*
X105200000Y65600000D01*
X108800000Y65600000D02*
X127400000Y65600000D01*
X600000Y65400000D02*
X12400000Y65400000D01*
X14200000Y65400000D02*
X15200000Y65400000D01*
X18800000Y65400000D02*
X24600000Y65400000D01*
X26200000Y65400000D02*
X33200000Y65400000D01*
X37400000Y65400000D02*
X42400000Y65400000D01*
X45000000Y65400000D02*
X50600000Y65400000D01*
X54800000Y65400000D02*
X68400000Y65400000D01*
X72800000Y65400000D02*
X82200000Y65400000D01*
X83800000Y65400000D02*
X86600000Y65400000D01*
X90800000Y65400000D02*
X105200000Y65400000D01*
X108800000Y65400000D02*
X127400000Y65400000D01*
X600000Y65200000D02*
X12400000Y65200000D01*
X14200000Y65200000D02*
X15200000Y65200000D01*
X18800000Y65200000D02*
X25000000Y65200000D01*
X25800000Y65200000D02*
X33200000Y65200000D01*
X37600000Y65200000D02*
X42800000Y65200000D01*
X43600000Y65200000D02*
X43800000Y65200000D01*
X45000000Y65200000D02*
X50400000Y65200000D01*
X54800000Y65200000D02*
X68400000Y65200000D01*
X72800000Y65200000D02*
X82000000Y65200000D01*
X83600000Y65200000D02*
X86400000Y65200000D01*
X90800000Y65200000D02*
X105200000Y65200000D01*
X108800000Y65200000D02*
X127400000Y65200000D01*
X600000Y65000000D02*
X12400000Y65000000D01*
X14200000Y65000000D02*
X15400000Y65000000D01*
X18600000Y65000000D02*
X33400000Y65000000D01*
X37800000Y65000000D02*
X43800000Y65000000D01*
X45000000Y65000000D02*
X50200000Y65000000D01*
X54600000Y65000000D02*
X68200000Y65000000D01*
X72600000Y65000000D02*
X81800000Y65000000D01*
X83400000Y65000000D02*
X86200000Y65000000D01*
X90600000Y65000000D02*
X105400000Y65000000D01*
X108600000Y65000000D02*
X127400000Y65000000D01*
X600000Y64800000D02*
X12400000Y64800000D01*
X14200000Y64800000D02*
X15600000Y64800000D01*
X18400000Y64800000D02*
X24800000Y64800000D01*
X26000000Y64800000D02*
X33600000Y64800000D01*
X36400000Y64800000D02*
X36400000Y64800000D01*
X38000000Y64800000D02*
X42600000Y64800000D01*
X43800000Y64800000D02*
X43800000Y64800000D01*
X45000000Y64800000D02*
X50000000Y64800000D01*
X51600000Y64800000D02*
X51600000Y64800000D01*
X54400000Y64800000D02*
X68000000Y64800000D01*
X69600000Y64800000D02*
X69600000Y64800000D01*
X72400000Y64800000D02*
X81600000Y64800000D01*
X83200000Y64800000D02*
X86000000Y64800000D01*
X87600000Y64800000D02*
X87600000Y64800000D01*
X90400000Y64800000D02*
X105600000Y64800000D01*
X108400000Y64800000D02*
X127400000Y64800000D01*
X600000Y64600000D02*
X12400000Y64600000D01*
X14200000Y64600000D02*
X15800000Y64600000D01*
X18200000Y64600000D02*
X24600000Y64600000D01*
X26400000Y64600000D02*
X33800000Y64600000D01*
X36200000Y64600000D02*
X36600000Y64600000D01*
X45000000Y64600000D02*
X49800000Y64600000D01*
X51400000Y64600000D02*
X51800000Y64600000D01*
X54200000Y64600000D02*
X67800000Y64600000D01*
X69400000Y64600000D02*
X69800000Y64600000D01*
X72200000Y64600000D02*
X81400000Y64600000D01*
X83000000Y64600000D02*
X85800000Y64600000D01*
X87400000Y64600000D02*
X87800000Y64600000D01*
X90200000Y64600000D02*
X105400000Y64600000D01*
X108200000Y64600000D02*
X127400000Y64600000D01*
X600000Y64400000D02*
X12400000Y64400000D01*
X14200000Y64400000D02*
X16200000Y64400000D01*
X17800000Y64400000D02*
X24400000Y64400000D01*
X26600000Y64400000D02*
X34200000Y64400000D01*
X35800000Y64400000D02*
X36800000Y64400000D01*
X45000000Y64400000D02*
X49600000Y64400000D01*
X51200000Y64400000D02*
X52200000Y64400000D01*
X53800000Y64400000D02*
X67600000Y64400000D01*
X69200000Y64400000D02*
X70200000Y64400000D01*
X71800000Y64400000D02*
X81200000Y64400000D01*
X82800000Y64400000D02*
X85600000Y64400000D01*
X87200000Y64400000D02*
X88200000Y64400000D01*
X89800000Y64400000D02*
X105200000Y64400000D01*
X107800000Y64400000D02*
X127400000Y64400000D01*
X600000Y64200000D02*
X12400000Y64200000D01*
X14200000Y64200000D02*
X24200000Y64200000D01*
X26600000Y64200000D02*
X37000000Y64200000D01*
X45000000Y64200000D02*
X49400000Y64200000D01*
X51000000Y64200000D02*
X67400000Y64200000D01*
X69000000Y64200000D02*
X81000000Y64200000D01*
X82600000Y64200000D02*
X85400000Y64200000D01*
X87000000Y64200000D02*
X105000000Y64200000D01*
X106600000Y64200000D02*
X127400000Y64200000D01*
X600000Y64000000D02*
X12400000Y64000000D01*
X14200000Y64000000D02*
X24200000Y64000000D01*
X26600000Y64000000D02*
X37200000Y64000000D01*
X45000000Y64000000D02*
X49200000Y64000000D01*
X50800000Y64000000D02*
X67200000Y64000000D01*
X68800000Y64000000D02*
X80800000Y64000000D01*
X82400000Y64000000D02*
X85200000Y64000000D01*
X86800000Y64000000D02*
X104800000Y64000000D01*
X106400000Y64000000D02*
X127400000Y64000000D01*
X600000Y63800000D02*
X12400000Y63800000D01*
X14200000Y63800000D02*
X24200000Y63800000D01*
X26600000Y63800000D02*
X37400000Y63800000D01*
X45000000Y63800000D02*
X49000000Y63800000D01*
X50600000Y63800000D02*
X67000000Y63800000D01*
X68600000Y63800000D02*
X80600000Y63800000D01*
X82200000Y63800000D02*
X85000000Y63800000D01*
X86600000Y63800000D02*
X104600000Y63800000D01*
X106200000Y63800000D02*
X127400000Y63800000D01*
X600000Y63600000D02*
X12400000Y63600000D01*
X14200000Y63600000D02*
X24200000Y63600000D01*
X26600000Y63600000D02*
X42000000Y63600000D01*
X45000000Y63600000D02*
X48800000Y63600000D01*
X50400000Y63600000D02*
X66800000Y63600000D01*
X68400000Y63600000D02*
X80400000Y63600000D01*
X82000000Y63600000D02*
X84800000Y63600000D01*
X86400000Y63600000D02*
X104400000Y63600000D01*
X106000000Y63600000D02*
X127400000Y63600000D01*
X600000Y63400000D02*
X12400000Y63400000D01*
X14200000Y63400000D02*
X24200000Y63400000D01*
X26600000Y63400000D02*
X42000000Y63400000D01*
X45000000Y63400000D02*
X48600000Y63400000D01*
X50200000Y63400000D02*
X66600000Y63400000D01*
X68200000Y63400000D02*
X80200000Y63400000D01*
X81800000Y63400000D02*
X84600000Y63400000D01*
X86200000Y63400000D02*
X104400000Y63400000D01*
X105800000Y63400000D02*
X127400000Y63400000D01*
X600000Y63200000D02*
X12400000Y63200000D01*
X14200000Y63200000D02*
X24400000Y63200000D01*
X26600000Y63200000D02*
X42200000Y63200000D01*
X45000000Y63200000D02*
X48400000Y63200000D01*
X50000000Y63200000D02*
X66400000Y63200000D01*
X68000000Y63200000D02*
X80000000Y63200000D01*
X81600000Y63200000D02*
X84400000Y63200000D01*
X86000000Y63200000D02*
X104400000Y63200000D01*
X105600000Y63200000D02*
X127400000Y63200000D01*
X600000Y63000000D02*
X12400000Y63000000D01*
X14200000Y63000000D02*
X24400000Y63000000D01*
X26400000Y63000000D02*
X42200000Y63000000D01*
X45000000Y63000000D02*
X48200000Y63000000D01*
X49800000Y63000000D02*
X66200000Y63000000D01*
X67800000Y63000000D02*
X79800000Y63000000D01*
X81400000Y63000000D02*
X84200000Y63000000D01*
X85800000Y63000000D02*
X104400000Y63000000D01*
X105600000Y63000000D02*
X127400000Y63000000D01*
X600000Y62800000D02*
X12400000Y62800000D01*
X14200000Y62800000D02*
X24800000Y62800000D01*
X26200000Y62800000D02*
X42600000Y62800000D01*
X45000000Y62800000D02*
X48000000Y62800000D01*
X49600000Y62800000D02*
X66000000Y62800000D01*
X67600000Y62800000D02*
X79600000Y62800000D01*
X81200000Y62800000D02*
X84000000Y62800000D01*
X85600000Y62800000D02*
X104400000Y62800000D01*
X105600000Y62800000D02*
X127400000Y62800000D01*
X600000Y62600000D02*
X12400000Y62600000D01*
X14200000Y62600000D02*
X43800000Y62600000D01*
X45000000Y62600000D02*
X47800000Y62600000D01*
X49400000Y62600000D02*
X65800000Y62600000D01*
X67400000Y62600000D02*
X79400000Y62600000D01*
X81000000Y62600000D02*
X83800000Y62600000D01*
X85400000Y62600000D02*
X104400000Y62600000D01*
X105600000Y62600000D02*
X127400000Y62600000D01*
X600000Y62400000D02*
X12400000Y62400000D01*
X14200000Y62400000D02*
X43800000Y62400000D01*
X45000000Y62400000D02*
X47600000Y62400000D01*
X49200000Y62400000D02*
X65600000Y62400000D01*
X67200000Y62400000D02*
X79200000Y62400000D01*
X80800000Y62400000D02*
X83600000Y62400000D01*
X85200000Y62400000D02*
X104400000Y62400000D01*
X105600000Y62400000D02*
X127400000Y62400000D01*
X600000Y62200000D02*
X12400000Y62200000D01*
X14200000Y62200000D02*
X24800000Y62200000D01*
X26200000Y62200000D02*
X42600000Y62200000D01*
X45200000Y62200000D02*
X47400000Y62200000D01*
X49000000Y62200000D02*
X65400000Y62200000D01*
X67000000Y62200000D02*
X79000000Y62200000D01*
X80600000Y62200000D02*
X83400000Y62200000D01*
X85000000Y62200000D02*
X104400000Y62200000D01*
X105600000Y62200000D02*
X127400000Y62200000D01*
X600000Y62000000D02*
X12400000Y62000000D01*
X14200000Y62000000D02*
X24400000Y62000000D01*
X26400000Y62000000D02*
X42200000Y62000000D01*
X45200000Y62000000D02*
X47200000Y62000000D01*
X48800000Y62000000D02*
X65200000Y62000000D01*
X66800000Y62000000D02*
X78800000Y62000000D01*
X80400000Y62000000D02*
X83200000Y62000000D01*
X84800000Y62000000D02*
X104400000Y62000000D01*
X105600000Y62000000D02*
X127400000Y62000000D01*
X600000Y61800000D02*
X12400000Y61800000D01*
X14200000Y61800000D02*
X24400000Y61800000D01*
X26600000Y61800000D02*
X42200000Y61800000D01*
X48600000Y61800000D02*
X65000000Y61800000D01*
X66600000Y61800000D02*
X78600000Y61800000D01*
X80200000Y61800000D02*
X83000000Y61800000D01*
X84600000Y61800000D02*
X104400000Y61800000D01*
X105600000Y61800000D02*
X127400000Y61800000D01*
X600000Y61600000D02*
X12400000Y61600000D01*
X14200000Y61600000D02*
X14200000Y61600000D01*
X16400000Y61600000D02*
X24200000Y61600000D01*
X26600000Y61600000D02*
X32200000Y61600000D01*
X34400000Y61600000D02*
X42000000Y61600000D01*
X48400000Y61600000D02*
X50200000Y61600000D01*
X52400000Y61600000D02*
X64800000Y61600000D01*
X66400000Y61600000D02*
X68200000Y61600000D01*
X70400000Y61600000D02*
X78400000Y61600000D01*
X80000000Y61600000D02*
X82800000Y61600000D01*
X84400000Y61600000D02*
X104400000Y61600000D01*
X105600000Y61600000D02*
X127400000Y61600000D01*
X600000Y61400000D02*
X12400000Y61400000D01*
X14200000Y61400000D02*
X14200000Y61400000D01*
X16400000Y61400000D02*
X24200000Y61400000D01*
X26600000Y61400000D02*
X32200000Y61400000D01*
X34400000Y61400000D02*
X42000000Y61400000D01*
X48200000Y61400000D02*
X50200000Y61400000D01*
X52400000Y61400000D02*
X64600000Y61400000D01*
X66200000Y61400000D02*
X68200000Y61400000D01*
X70400000Y61400000D02*
X78200000Y61400000D01*
X79800000Y61400000D02*
X82600000Y61400000D01*
X84200000Y61400000D02*
X104400000Y61400000D01*
X105600000Y61400000D02*
X127400000Y61400000D01*
X600000Y61200000D02*
X12400000Y61200000D01*
X14200000Y61200000D02*
X14200000Y61200000D01*
X16400000Y61200000D02*
X24200000Y61200000D01*
X26600000Y61200000D02*
X32200000Y61200000D01*
X34400000Y61200000D02*
X42000000Y61200000D01*
X48000000Y61200000D02*
X50200000Y61200000D01*
X52400000Y61200000D02*
X59000000Y61200000D01*
X66000000Y61200000D02*
X68200000Y61200000D01*
X70400000Y61200000D02*
X78000000Y61200000D01*
X79600000Y61200000D02*
X82400000Y61200000D01*
X84000000Y61200000D02*
X104400000Y61200000D01*
X105600000Y61200000D02*
X127400000Y61200000D01*
X600000Y61000000D02*
X12400000Y61000000D01*
X14200000Y61000000D02*
X14200000Y61000000D01*
X16400000Y61000000D02*
X24200000Y61000000D01*
X26600000Y61000000D02*
X32200000Y61000000D01*
X34400000Y61000000D02*
X42000000Y61000000D01*
X47800000Y61000000D02*
X50200000Y61000000D01*
X52400000Y61000000D02*
X55600000Y61000000D01*
X56400000Y61000000D02*
X57400000Y61000000D01*
X65800000Y61000000D02*
X68200000Y61000000D01*
X70400000Y61000000D02*
X77800000Y61000000D01*
X79400000Y61000000D02*
X82200000Y61000000D01*
X83800000Y61000000D02*
X104400000Y61000000D01*
X105600000Y61000000D02*
X127400000Y61000000D01*
X600000Y60800000D02*
X12400000Y60800000D01*
X14200000Y60800000D02*
X14200000Y60800000D01*
X16400000Y60800000D02*
X24200000Y60800000D01*
X26600000Y60800000D02*
X32200000Y60800000D01*
X34400000Y60800000D02*
X42000000Y60800000D01*
X44400000Y60800000D02*
X50200000Y60800000D01*
X52400000Y60800000D02*
X55400000Y60800000D01*
X65600000Y60800000D02*
X68200000Y60800000D01*
X70400000Y60800000D02*
X77600000Y60800000D01*
X79200000Y60800000D02*
X82000000Y60800000D01*
X83600000Y60800000D02*
X104400000Y60800000D01*
X105600000Y60800000D02*
X127400000Y60800000D01*
X600000Y60600000D02*
X12400000Y60600000D01*
X14200000Y60600000D02*
X14200000Y60600000D01*
X16400000Y60600000D02*
X24400000Y60600000D01*
X34400000Y60600000D02*
X42200000Y60600000D01*
X52400000Y60600000D02*
X55200000Y60600000D01*
X70400000Y60600000D02*
X77400000Y60600000D01*
X79000000Y60600000D02*
X81800000Y60600000D01*
X83400000Y60600000D02*
X104400000Y60600000D01*
X105600000Y60600000D02*
X127400000Y60600000D01*
X600000Y60400000D02*
X12400000Y60400000D01*
X14200000Y60400000D02*
X14200000Y60400000D01*
X16400000Y60400000D02*
X21800000Y60400000D01*
X22600000Y60400000D02*
X23200000Y60400000D01*
X34400000Y60400000D02*
X39800000Y60400000D01*
X40600000Y60400000D02*
X41200000Y60400000D01*
X52400000Y60400000D02*
X55200000Y60400000D01*
X70400000Y60400000D02*
X75800000Y60400000D01*
X76600000Y60400000D02*
X77200000Y60400000D01*
X78800000Y60400000D02*
X81600000Y60400000D01*
X83200000Y60400000D02*
X104400000Y60400000D01*
X105600000Y60400000D02*
X127400000Y60400000D01*
X600000Y60200000D02*
X12400000Y60200000D01*
X16400000Y60200000D02*
X17200000Y60200000D01*
X22800000Y60200000D02*
X23000000Y60200000D01*
X34400000Y60200000D02*
X35200000Y60200000D01*
X40800000Y60200000D02*
X41000000Y60200000D01*
X52400000Y60200000D02*
X53200000Y60200000D01*
X70400000Y60200000D02*
X71200000Y60200000D01*
X76800000Y60200000D02*
X77000000Y60200000D01*
X78600000Y60200000D02*
X81400000Y60200000D01*
X83000000Y60200000D02*
X104400000Y60200000D01*
X105600000Y60200000D02*
X127400000Y60200000D01*
X600000Y60000000D02*
X12400000Y60000000D01*
X16400000Y60000000D02*
X17000000Y60000000D01*
X34400000Y60000000D02*
X35000000Y60000000D01*
X52400000Y60000000D02*
X53000000Y60000000D01*
X70400000Y60000000D02*
X71000000Y60000000D01*
X78400000Y60000000D02*
X81200000Y60000000D01*
X82800000Y60000000D02*
X104400000Y60000000D01*
X105600000Y60000000D02*
X127400000Y60000000D01*
X600000Y59800000D02*
X12400000Y59800000D01*
X15200000Y59800000D02*
X16800000Y59800000D01*
X33200000Y59800000D02*
X34800000Y59800000D01*
X51200000Y59800000D02*
X52800000Y59800000D01*
X69200000Y59800000D02*
X70800000Y59800000D01*
X78200000Y59800000D02*
X81000000Y59800000D01*
X82600000Y59800000D02*
X104400000Y59800000D01*
X105600000Y59800000D02*
X127400000Y59800000D01*
X600000Y59600000D02*
X12400000Y59600000D01*
X26400000Y59600000D02*
X32200000Y59600000D01*
X44200000Y59600000D02*
X50200000Y59600000D01*
X60000000Y59600000D02*
X68200000Y59600000D01*
X78000000Y59600000D02*
X80800000Y59600000D01*
X82400000Y59600000D02*
X104400000Y59600000D01*
X105600000Y59600000D02*
X127400000Y59600000D01*
X600000Y59400000D02*
X12400000Y59400000D01*
X23800000Y59400000D02*
X24400000Y59400000D01*
X26400000Y59400000D02*
X32200000Y59400000D01*
X41800000Y59400000D02*
X42200000Y59400000D01*
X44200000Y59400000D02*
X49800000Y59400000D01*
X59800000Y59400000D02*
X68200000Y59400000D01*
X77800000Y59400000D02*
X80600000Y59400000D01*
X82200000Y59400000D02*
X104400000Y59400000D01*
X105600000Y59400000D02*
X127400000Y59400000D01*
X600000Y59200000D02*
X12400000Y59200000D01*
X23600000Y59200000D02*
X24400000Y59200000D01*
X26600000Y59200000D02*
X32200000Y59200000D01*
X41600000Y59200000D02*
X42000000Y59200000D01*
X59600000Y59200000D02*
X68200000Y59200000D01*
X77600000Y59200000D02*
X80400000Y59200000D01*
X82000000Y59200000D02*
X104400000Y59200000D01*
X105600000Y59200000D02*
X127400000Y59200000D01*
X600000Y59000000D02*
X12400000Y59000000D01*
X17600000Y59000000D02*
X17600000Y59000000D01*
X23400000Y59000000D02*
X24200000Y59000000D01*
X26600000Y59000000D02*
X32200000Y59000000D01*
X35600000Y59000000D02*
X35600000Y59000000D01*
X41400000Y59000000D02*
X42000000Y59000000D01*
X53600000Y59000000D02*
X53600000Y59000000D01*
X59400000Y59000000D02*
X68200000Y59000000D01*
X71600000Y59000000D02*
X71600000Y59000000D01*
X77400000Y59000000D02*
X80200000Y59000000D01*
X81800000Y59000000D02*
X104400000Y59000000D01*
X105600000Y59000000D02*
X127400000Y59000000D01*
X600000Y58800000D02*
X12400000Y58800000D01*
X17400000Y58800000D02*
X17600000Y58800000D01*
X23200000Y58800000D02*
X24200000Y58800000D01*
X26600000Y58800000D02*
X32200000Y58800000D01*
X35400000Y58800000D02*
X35600000Y58800000D01*
X41200000Y58800000D02*
X42000000Y58800000D01*
X53400000Y58800000D02*
X53600000Y58800000D01*
X59200000Y58800000D02*
X68200000Y58800000D01*
X71400000Y58800000D02*
X71600000Y58800000D01*
X77200000Y58800000D02*
X80000000Y58800000D01*
X81600000Y58800000D02*
X104400000Y58800000D01*
X105600000Y58800000D02*
X127400000Y58800000D01*
X600000Y58600000D02*
X12400000Y58600000D01*
X16400000Y58600000D02*
X17600000Y58600000D01*
X23000000Y58600000D02*
X24200000Y58600000D01*
X26600000Y58600000D02*
X32200000Y58600000D01*
X34400000Y58600000D02*
X35600000Y58600000D01*
X41000000Y58600000D02*
X42000000Y58600000D01*
X52400000Y58600000D02*
X53600000Y58600000D01*
X59000000Y58600000D02*
X68200000Y58600000D01*
X70400000Y58600000D02*
X71600000Y58600000D01*
X77000000Y58600000D02*
X79800000Y58600000D01*
X81400000Y58600000D02*
X104400000Y58600000D01*
X105600000Y58600000D02*
X127400000Y58600000D01*
X600000Y58400000D02*
X12400000Y58400000D01*
X16400000Y58400000D02*
X17600000Y58400000D01*
X19800000Y58400000D02*
X24200000Y58400000D01*
X26600000Y58400000D02*
X32200000Y58400000D01*
X34400000Y58400000D02*
X35600000Y58400000D01*
X37800000Y58400000D02*
X42000000Y58400000D01*
X52400000Y58400000D02*
X53600000Y58400000D01*
X55800000Y58400000D02*
X68200000Y58400000D01*
X70400000Y58400000D02*
X71600000Y58400000D01*
X73800000Y58400000D02*
X79600000Y58400000D01*
X81200000Y58400000D02*
X104400000Y58400000D01*
X105600000Y58400000D02*
X127400000Y58400000D01*
X600000Y58200000D02*
X12400000Y58200000D01*
X16400000Y58200000D02*
X17600000Y58200000D01*
X19800000Y58200000D02*
X24400000Y58200000D01*
X26600000Y58200000D02*
X32200000Y58200000D01*
X34400000Y58200000D02*
X35600000Y58200000D01*
X37800000Y58200000D02*
X41800000Y58200000D01*
X44400000Y58200000D02*
X49800000Y58200000D01*
X52400000Y58200000D02*
X53600000Y58200000D01*
X55800000Y58200000D02*
X68200000Y58200000D01*
X70400000Y58200000D02*
X71600000Y58200000D01*
X73800000Y58200000D02*
X79400000Y58200000D01*
X81000000Y58200000D02*
X104400000Y58200000D01*
X105600000Y58200000D02*
X127400000Y58200000D01*
X600000Y58000000D02*
X12400000Y58000000D01*
X16400000Y58000000D02*
X17600000Y58000000D01*
X19800000Y58000000D02*
X24400000Y58000000D01*
X26400000Y58000000D02*
X32200000Y58000000D01*
X34400000Y58000000D02*
X35600000Y58000000D01*
X37800000Y58000000D02*
X41600000Y58000000D01*
X44200000Y58000000D02*
X50200000Y58000000D01*
X52400000Y58000000D02*
X53600000Y58000000D01*
X55800000Y58000000D02*
X68200000Y58000000D01*
X70400000Y58000000D02*
X71600000Y58000000D01*
X73800000Y58000000D02*
X79200000Y58000000D01*
X80800000Y58000000D02*
X104400000Y58000000D01*
X105600000Y58000000D02*
X127400000Y58000000D01*
X600000Y57800000D02*
X12400000Y57800000D01*
X14800000Y57800000D02*
X24600000Y57800000D01*
X26200000Y57800000D02*
X41400000Y57800000D01*
X44000000Y57800000D02*
X79000000Y57800000D01*
X80600000Y57800000D02*
X104400000Y57800000D01*
X105600000Y57800000D02*
X127400000Y57800000D01*
X600000Y57600000D02*
X12400000Y57600000D01*
X14800000Y57600000D02*
X25000000Y57600000D01*
X26000000Y57600000D02*
X41200000Y57600000D01*
X42800000Y57600000D02*
X42800000Y57600000D01*
X43600000Y57600000D02*
X78800000Y57600000D01*
X80400000Y57600000D02*
X104400000Y57600000D01*
X105600000Y57600000D02*
X127400000Y57600000D01*
X600000Y57400000D02*
X12400000Y57400000D01*
X14800000Y57400000D02*
X41000000Y57400000D01*
X42600000Y57400000D02*
X78600000Y57400000D01*
X80200000Y57400000D02*
X104400000Y57400000D01*
X105600000Y57400000D02*
X127400000Y57400000D01*
X600000Y57200000D02*
X12400000Y57200000D01*
X14800000Y57200000D02*
X40800000Y57200000D01*
X42400000Y57200000D02*
X78400000Y57200000D01*
X80000000Y57200000D02*
X104400000Y57200000D01*
X105600000Y57200000D02*
X127400000Y57200000D01*
X600000Y57000000D02*
X12400000Y57000000D01*
X14800000Y57000000D02*
X16200000Y57000000D01*
X17800000Y57000000D02*
X34200000Y57000000D01*
X35800000Y57000000D02*
X40600000Y57000000D01*
X42200000Y57000000D02*
X52200000Y57000000D01*
X53800000Y57000000D02*
X70200000Y57000000D01*
X71800000Y57000000D02*
X78200000Y57000000D01*
X79800000Y57000000D02*
X104400000Y57000000D01*
X105600000Y57000000D02*
X127400000Y57000000D01*
X600000Y56800000D02*
X12400000Y56800000D01*
X14800000Y56800000D02*
X15800000Y56800000D01*
X18200000Y56800000D02*
X33800000Y56800000D01*
X36200000Y56800000D02*
X39400000Y56800000D01*
X42000000Y56800000D02*
X51800000Y56800000D01*
X54200000Y56800000D02*
X69800000Y56800000D01*
X72200000Y56800000D02*
X75400000Y56800000D01*
X79600000Y56800000D02*
X104400000Y56800000D01*
X105600000Y56800000D02*
X127400000Y56800000D01*
X600000Y56600000D02*
X12400000Y56600000D01*
X14800000Y56600000D02*
X15600000Y56600000D01*
X18400000Y56600000D02*
X33600000Y56600000D01*
X36400000Y56600000D02*
X39000000Y56600000D01*
X41800000Y56600000D02*
X51600000Y56600000D01*
X54400000Y56600000D02*
X69600000Y56600000D01*
X72400000Y56600000D02*
X75000000Y56600000D01*
X79400000Y56600000D02*
X104400000Y56600000D01*
X105600000Y56600000D02*
X127400000Y56600000D01*
X600000Y56400000D02*
X12400000Y56400000D01*
X14800000Y56400000D02*
X15400000Y56400000D01*
X18600000Y56400000D02*
X33400000Y56400000D01*
X36600000Y56400000D02*
X38800000Y56400000D01*
X41600000Y56400000D02*
X51400000Y56400000D01*
X54600000Y56400000D02*
X69400000Y56400000D01*
X72600000Y56400000D02*
X74800000Y56400000D01*
X79200000Y56400000D02*
X104400000Y56400000D01*
X105600000Y56400000D02*
X127400000Y56400000D01*
X600000Y56200000D02*
X10800000Y56200000D01*
X12200000Y56200000D02*
X12400000Y56200000D01*
X14800000Y56200000D02*
X15200000Y56200000D01*
X18800000Y56200000D02*
X21800000Y56200000D01*
X23200000Y56200000D02*
X28800000Y56200000D01*
X30200000Y56200000D02*
X33200000Y56200000D01*
X36800000Y56200000D02*
X38800000Y56200000D01*
X41400000Y56200000D02*
X46800000Y56200000D01*
X48200000Y56200000D02*
X51200000Y56200000D01*
X54800000Y56200000D02*
X57800000Y56200000D01*
X59200000Y56200000D02*
X64800000Y56200000D01*
X66200000Y56200000D02*
X69200000Y56200000D01*
X72800000Y56200000D02*
X74600000Y56200000D01*
X79000000Y56200000D02*
X104400000Y56200000D01*
X105600000Y56200000D02*
X127400000Y56200000D01*
X600000Y56000000D02*
X10400000Y56000000D01*
X14800000Y56000000D02*
X15000000Y56000000D01*
X19000000Y56000000D02*
X21400000Y56000000D01*
X23600000Y56000000D02*
X28400000Y56000000D01*
X30600000Y56000000D02*
X33000000Y56000000D01*
X37000000Y56000000D02*
X38600000Y56000000D01*
X41600000Y56000000D02*
X46400000Y56000000D01*
X48600000Y56000000D02*
X51000000Y56000000D01*
X55000000Y56000000D02*
X57400000Y56000000D01*
X59600000Y56000000D02*
X64400000Y56000000D01*
X66600000Y56000000D02*
X69000000Y56000000D01*
X73000000Y56000000D02*
X74400000Y56000000D01*
X78800000Y56000000D02*
X104400000Y56000000D01*
X105600000Y56000000D02*
X127400000Y56000000D01*
X600000Y55800000D02*
X10400000Y55800000D01*
X14800000Y55800000D02*
X15000000Y55800000D01*
X19000000Y55800000D02*
X21400000Y55800000D01*
X23600000Y55800000D02*
X28400000Y55800000D01*
X30600000Y55800000D02*
X33000000Y55800000D01*
X37000000Y55800000D02*
X38600000Y55800000D01*
X41600000Y55800000D02*
X46400000Y55800000D01*
X48600000Y55800000D02*
X51000000Y55800000D01*
X55000000Y55800000D02*
X57400000Y55800000D01*
X59600000Y55800000D02*
X64400000Y55800000D01*
X66600000Y55800000D02*
X69000000Y55800000D01*
X73000000Y55800000D02*
X74200000Y55800000D01*
X77600000Y55800000D02*
X104400000Y55800000D01*
X105600000Y55800000D02*
X127400000Y55800000D01*
X600000Y55600000D02*
X10200000Y55600000D01*
X14800000Y55600000D02*
X14800000Y55600000D01*
X19200000Y55600000D02*
X21200000Y55600000D01*
X23800000Y55600000D02*
X28200000Y55600000D01*
X30800000Y55600000D02*
X32800000Y55600000D01*
X37200000Y55600000D02*
X38400000Y55600000D01*
X41800000Y55600000D02*
X46200000Y55600000D01*
X48800000Y55600000D02*
X50800000Y55600000D01*
X55200000Y55600000D02*
X57200000Y55600000D01*
X59800000Y55600000D02*
X64200000Y55600000D01*
X66800000Y55600000D02*
X68800000Y55600000D01*
X73200000Y55600000D02*
X74000000Y55600000D01*
X77800000Y55600000D02*
X104400000Y55600000D01*
X105600000Y55600000D02*
X127400000Y55600000D01*
X600000Y55400000D02*
X10200000Y55400000D01*
X14800000Y55400000D02*
X14800000Y55400000D01*
X19200000Y55400000D02*
X21200000Y55400000D01*
X23800000Y55400000D02*
X28200000Y55400000D01*
X30800000Y55400000D02*
X32800000Y55400000D01*
X37200000Y55400000D02*
X38400000Y55400000D01*
X41800000Y55400000D02*
X46200000Y55400000D01*
X48800000Y55400000D02*
X50800000Y55400000D01*
X55200000Y55400000D02*
X57200000Y55400000D01*
X59800000Y55400000D02*
X64200000Y55400000D01*
X66800000Y55400000D02*
X68800000Y55400000D01*
X73200000Y55400000D02*
X73800000Y55400000D01*
X77800000Y55400000D02*
X104400000Y55400000D01*
X105600000Y55400000D02*
X127400000Y55400000D01*
X600000Y55200000D02*
X10000000Y55200000D01*
X14800000Y55200000D02*
X14800000Y55200000D01*
X19200000Y55200000D02*
X21000000Y55200000D01*
X24000000Y55200000D02*
X28000000Y55200000D01*
X31000000Y55200000D02*
X32800000Y55200000D01*
X37200000Y55200000D02*
X38400000Y55200000D01*
X42000000Y55200000D02*
X46000000Y55200000D01*
X49000000Y55200000D02*
X50800000Y55200000D01*
X55200000Y55200000D02*
X57000000Y55200000D01*
X60000000Y55200000D02*
X64000000Y55200000D01*
X67000000Y55200000D02*
X68800000Y55200000D01*
X73200000Y55200000D02*
X73600000Y55200000D01*
X78000000Y55200000D02*
X104400000Y55200000D01*
X105600000Y55200000D02*
X127400000Y55200000D01*
X600000Y55000000D02*
X10000000Y55000000D01*
X14800000Y55000000D02*
X14800000Y55000000D01*
X19200000Y55000000D02*
X21000000Y55000000D01*
X24000000Y55000000D02*
X28000000Y55000000D01*
X31000000Y55000000D02*
X32800000Y55000000D01*
X37200000Y55000000D02*
X38400000Y55000000D01*
X42000000Y55000000D02*
X46000000Y55000000D01*
X49000000Y55000000D02*
X50800000Y55000000D01*
X55200000Y55000000D02*
X57000000Y55000000D01*
X60000000Y55000000D02*
X64000000Y55000000D01*
X67000000Y55000000D02*
X68800000Y55000000D01*
X73200000Y55000000D02*
X73400000Y55000000D01*
X75000000Y55000000D02*
X75000000Y55000000D01*
X78000000Y55000000D02*
X104400000Y55000000D01*
X105600000Y55000000D02*
X127400000Y55000000D01*
X600000Y54800000D02*
X10000000Y54800000D01*
X14800000Y54800000D02*
X14800000Y54800000D01*
X19200000Y54800000D02*
X21000000Y54800000D01*
X24000000Y54800000D02*
X28000000Y54800000D01*
X31000000Y54800000D02*
X32800000Y54800000D01*
X37200000Y54800000D02*
X38400000Y54800000D01*
X42000000Y54800000D02*
X46000000Y54800000D01*
X49000000Y54800000D02*
X50800000Y54800000D01*
X55200000Y54800000D02*
X57000000Y54800000D01*
X60000000Y54800000D02*
X64000000Y54800000D01*
X67000000Y54800000D02*
X68800000Y54800000D01*
X73200000Y54800000D02*
X73200000Y54800000D01*
X74800000Y54800000D02*
X75000000Y54800000D01*
X78000000Y54800000D02*
X104400000Y54800000D01*
X105600000Y54800000D02*
X127400000Y54800000D01*
X600000Y54600000D02*
X10200000Y54600000D01*
X19200000Y54600000D02*
X21200000Y54600000D01*
X23800000Y54600000D02*
X24800000Y54600000D01*
X26200000Y54600000D02*
X28200000Y54600000D01*
X30800000Y54600000D02*
X32800000Y54600000D01*
X37200000Y54600000D02*
X38400000Y54600000D01*
X41800000Y54600000D02*
X42600000Y54600000D01*
X44000000Y54600000D02*
X46200000Y54600000D01*
X48800000Y54600000D02*
X50800000Y54600000D01*
X55200000Y54600000D02*
X57200000Y54600000D01*
X59800000Y54600000D02*
X64200000Y54600000D01*
X66800000Y54600000D02*
X68800000Y54600000D01*
X74600000Y54600000D02*
X75200000Y54600000D01*
X77800000Y54600000D02*
X81600000Y54600000D01*
X105600000Y54600000D02*
X108800000Y54600000D01*
X110200000Y54600000D02*
X127400000Y54600000D01*
X600000Y54400000D02*
X10200000Y54400000D01*
X19200000Y54400000D02*
X21200000Y54400000D01*
X23800000Y54400000D02*
X24600000Y54400000D01*
X26400000Y54400000D02*
X28200000Y54400000D01*
X30800000Y54400000D02*
X32800000Y54400000D01*
X37200000Y54400000D02*
X38400000Y54400000D01*
X41800000Y54400000D02*
X42200000Y54400000D01*
X44200000Y54400000D02*
X46200000Y54400000D01*
X48800000Y54400000D02*
X50800000Y54400000D01*
X55200000Y54400000D02*
X57200000Y54400000D01*
X59800000Y54400000D02*
X64200000Y54400000D01*
X66800000Y54400000D02*
X68800000Y54400000D01*
X74400000Y54400000D02*
X75200000Y54400000D01*
X77800000Y54400000D02*
X81400000Y54400000D01*
X105600000Y54400000D02*
X108600000Y54400000D01*
X110400000Y54400000D02*
X127400000Y54400000D01*
X600000Y54200000D02*
X10400000Y54200000D01*
X19000000Y54200000D02*
X21400000Y54200000D01*
X23600000Y54200000D02*
X24400000Y54200000D01*
X26600000Y54200000D02*
X28400000Y54200000D01*
X30600000Y54200000D02*
X33000000Y54200000D01*
X37000000Y54200000D02*
X38400000Y54200000D01*
X41600000Y54200000D02*
X42200000Y54200000D01*
X44400000Y54200000D02*
X46400000Y54200000D01*
X48600000Y54200000D02*
X51000000Y54200000D01*
X55000000Y54200000D02*
X57400000Y54200000D01*
X59600000Y54200000D02*
X64400000Y54200000D01*
X66600000Y54200000D02*
X69000000Y54200000D01*
X74200000Y54200000D02*
X75400000Y54200000D01*
X77600000Y54200000D02*
X81200000Y54200000D01*
X105600000Y54200000D02*
X108400000Y54200000D01*
X110600000Y54200000D02*
X127400000Y54200000D01*
X600000Y54000000D02*
X10400000Y54000000D01*
X19000000Y54000000D02*
X21400000Y54000000D01*
X23600000Y54000000D02*
X24200000Y54000000D01*
X26600000Y54000000D02*
X28400000Y54000000D01*
X30600000Y54000000D02*
X33000000Y54000000D01*
X37000000Y54000000D02*
X38400000Y54000000D01*
X41600000Y54000000D02*
X42000000Y54000000D01*
X44400000Y54000000D02*
X46400000Y54000000D01*
X48600000Y54000000D02*
X51000000Y54000000D01*
X55000000Y54000000D02*
X57400000Y54000000D01*
X59600000Y54000000D02*
X64400000Y54000000D01*
X66600000Y54000000D02*
X69000000Y54000000D01*
X74000000Y54000000D02*
X75400000Y54000000D01*
X77600000Y54000000D02*
X81000000Y54000000D01*
X105800000Y54000000D02*
X108200000Y54000000D01*
X110800000Y54000000D02*
X127400000Y54000000D01*
X600000Y53800000D02*
X10800000Y53800000D01*
X12200000Y53800000D02*
X12400000Y53800000D01*
X14200000Y53800000D02*
X14200000Y53800000D01*
X18800000Y53800000D02*
X21800000Y53800000D01*
X23200000Y53800000D02*
X24200000Y53800000D01*
X26600000Y53800000D02*
X28800000Y53800000D01*
X30200000Y53800000D02*
X33200000Y53800000D01*
X36800000Y53800000D02*
X38200000Y53800000D01*
X41200000Y53800000D02*
X42000000Y53800000D01*
X44400000Y53800000D02*
X46800000Y53800000D01*
X48200000Y53800000D02*
X51200000Y53800000D01*
X54800000Y53800000D02*
X57800000Y53800000D01*
X59200000Y53800000D02*
X64800000Y53800000D01*
X66200000Y53800000D02*
X69200000Y53800000D01*
X73800000Y53800000D02*
X75800000Y53800000D01*
X77200000Y53800000D02*
X80800000Y53800000D01*
X105800000Y53800000D02*
X108200000Y53800000D01*
X110800000Y53800000D02*
X127400000Y53800000D01*
X600000Y53600000D02*
X12400000Y53600000D01*
X14200000Y53600000D02*
X14400000Y53600000D01*
X18600000Y53600000D02*
X24200000Y53600000D01*
X26600000Y53600000D02*
X33400000Y53600000D01*
X36600000Y53600000D02*
X38000000Y53600000D01*
X41000000Y53600000D02*
X42000000Y53600000D01*
X44400000Y53600000D02*
X51400000Y53600000D01*
X54600000Y53600000D02*
X69400000Y53600000D01*
X73600000Y53600000D02*
X80600000Y53600000D01*
X84200000Y53600000D02*
X103200000Y53600000D01*
X105800000Y53600000D02*
X108200000Y53600000D01*
X110800000Y53600000D02*
X127400000Y53600000D01*
X600000Y53400000D02*
X12400000Y53400000D01*
X14200000Y53400000D02*
X14600000Y53400000D01*
X18400000Y53400000D02*
X24200000Y53400000D01*
X26600000Y53400000D02*
X33600000Y53400000D01*
X36400000Y53400000D02*
X37800000Y53400000D01*
X41400000Y53400000D02*
X42000000Y53400000D01*
X44400000Y53400000D02*
X51600000Y53400000D01*
X54400000Y53400000D02*
X69600000Y53400000D01*
X73400000Y53400000D02*
X80400000Y53400000D01*
X84200000Y53400000D02*
X103200000Y53400000D01*
X105800000Y53400000D02*
X108200000Y53400000D01*
X110800000Y53400000D02*
X127400000Y53400000D01*
X600000Y53200000D02*
X12400000Y53200000D01*
X14200000Y53200000D02*
X14800000Y53200000D01*
X18200000Y53200000D02*
X24200000Y53200000D01*
X26600000Y53200000D02*
X33800000Y53200000D01*
X36200000Y53200000D02*
X37600000Y53200000D01*
X41800000Y53200000D02*
X42000000Y53200000D01*
X44400000Y53200000D02*
X51800000Y53200000D01*
X54200000Y53200000D02*
X69800000Y53200000D01*
X73200000Y53200000D02*
X80200000Y53200000D01*
X84000000Y53200000D02*
X103200000Y53200000D01*
X105800000Y53200000D02*
X108200000Y53200000D01*
X110800000Y53200000D02*
X127400000Y53200000D01*
X600000Y53000000D02*
X12400000Y53000000D01*
X14200000Y53000000D02*
X15000000Y53000000D01*
X17800000Y53000000D02*
X21400000Y53000000D01*
X22600000Y53000000D02*
X24400000Y53000000D01*
X26600000Y53000000D02*
X34200000Y53000000D01*
X35800000Y53000000D02*
X37400000Y53000000D01*
X39000000Y53000000D02*
X39200000Y53000000D01*
X42000000Y53000000D02*
X42200000Y53000000D01*
X44400000Y53000000D02*
X52200000Y53000000D01*
X53800000Y53000000D02*
X57400000Y53000000D01*
X58600000Y53000000D02*
X70200000Y53000000D01*
X73000000Y53000000D02*
X75400000Y53000000D01*
X76600000Y53000000D02*
X80000000Y53000000D01*
X82600000Y53000000D02*
X83000000Y53000000D01*
X83800000Y53000000D02*
X103200000Y53000000D01*
X105800000Y53000000D02*
X108200000Y53000000D01*
X110800000Y53000000D02*
X127400000Y53000000D01*
X600000Y52800000D02*
X12400000Y52800000D01*
X14200000Y52800000D02*
X15200000Y52800000D01*
X16800000Y52800000D02*
X21000000Y52800000D01*
X23000000Y52800000D02*
X24600000Y52800000D01*
X26400000Y52800000D02*
X37200000Y52800000D01*
X38800000Y52800000D02*
X39000000Y52800000D01*
X44200000Y52800000D02*
X57000000Y52800000D01*
X59000000Y52800000D02*
X71200000Y52800000D01*
X72800000Y52800000D02*
X75000000Y52800000D01*
X77000000Y52800000D02*
X79800000Y52800000D01*
X82400000Y52800000D02*
X103400000Y52800000D01*
X105600000Y52800000D02*
X108400000Y52800000D01*
X110600000Y52800000D02*
X127400000Y52800000D01*
X600000Y52600000D02*
X12400000Y52600000D01*
X14200000Y52600000D02*
X15400000Y52600000D01*
X17000000Y52600000D02*
X20600000Y52600000D01*
X23400000Y52600000D02*
X24800000Y52600000D01*
X26000000Y52600000D02*
X37000000Y52600000D01*
X38600000Y52600000D02*
X38600000Y52600000D01*
X44400000Y52600000D02*
X56600000Y52600000D01*
X59400000Y52600000D02*
X71000000Y52600000D01*
X72600000Y52600000D02*
X74600000Y52600000D01*
X77400000Y52600000D02*
X79600000Y52600000D01*
X82200000Y52600000D02*
X103600000Y52600000D01*
X105400000Y52600000D02*
X108600000Y52600000D01*
X110400000Y52600000D02*
X127400000Y52600000D01*
X600000Y52400000D02*
X12400000Y52400000D01*
X14200000Y52400000D02*
X15600000Y52400000D01*
X17200000Y52400000D02*
X20400000Y52400000D01*
X23600000Y52400000D02*
X36800000Y52400000D01*
X38400000Y52400000D02*
X38400000Y52400000D01*
X44600000Y52400000D02*
X56400000Y52400000D01*
X59600000Y52400000D02*
X70800000Y52400000D01*
X72400000Y52400000D02*
X74400000Y52400000D01*
X77600000Y52400000D02*
X79400000Y52400000D01*
X82000000Y52400000D02*
X103800000Y52400000D01*
X105200000Y52400000D02*
X108800000Y52400000D01*
X110200000Y52400000D02*
X127400000Y52400000D01*
X600000Y52200000D02*
X12400000Y52200000D01*
X14200000Y52200000D02*
X15800000Y52200000D01*
X17400000Y52200000D02*
X20400000Y52200000D01*
X23600000Y52200000D02*
X25200000Y52200000D01*
X25800000Y52200000D02*
X36600000Y52200000D01*
X38200000Y52200000D02*
X38400000Y52200000D01*
X44800000Y52200000D02*
X56400000Y52200000D01*
X59600000Y52200000D02*
X70600000Y52200000D01*
X72200000Y52200000D02*
X74400000Y52200000D01*
X77600000Y52200000D02*
X79200000Y52200000D01*
X81800000Y52200000D02*
X127400000Y52200000D01*
X600000Y52000000D02*
X12400000Y52000000D01*
X14200000Y52000000D02*
X16000000Y52000000D01*
X17600000Y52000000D02*
X20200000Y52000000D01*
X23800000Y52000000D02*
X24600000Y52000000D01*
X26200000Y52000000D02*
X36400000Y52000000D01*
X38000000Y52000000D02*
X38200000Y52000000D01*
X45000000Y52000000D02*
X56200000Y52000000D01*
X59800000Y52000000D02*
X70400000Y52000000D01*
X72000000Y52000000D02*
X74200000Y52000000D01*
X77800000Y52000000D02*
X79000000Y52000000D01*
X81600000Y52000000D02*
X127400000Y52000000D01*
X600000Y51800000D02*
X12400000Y51800000D01*
X14200000Y51800000D02*
X16200000Y51800000D01*
X17800000Y51800000D02*
X20200000Y51800000D01*
X23800000Y51800000D02*
X24400000Y51800000D01*
X26400000Y51800000D02*
X36200000Y51800000D01*
X37800000Y51800000D02*
X38200000Y51800000D01*
X41800000Y51800000D02*
X42200000Y51800000D01*
X45400000Y51800000D02*
X56200000Y51800000D01*
X59800000Y51800000D02*
X70200000Y51800000D01*
X71800000Y51800000D02*
X74200000Y51800000D01*
X77800000Y51800000D02*
X78800000Y51800000D01*
X81400000Y51800000D02*
X127400000Y51800000D01*
X600000Y51600000D02*
X12400000Y51600000D01*
X14200000Y51600000D02*
X16400000Y51600000D01*
X18000000Y51600000D02*
X20000000Y51600000D01*
X24000000Y51600000D02*
X24400000Y51600000D01*
X26600000Y51600000D02*
X36000000Y51600000D01*
X37600000Y51600000D02*
X38000000Y51600000D01*
X42000000Y51600000D02*
X42200000Y51600000D01*
X45600000Y51600000D02*
X56000000Y51600000D01*
X60000000Y51600000D02*
X70000000Y51600000D01*
X71600000Y51600000D02*
X74000000Y51600000D01*
X78000000Y51600000D02*
X78600000Y51600000D01*
X81200000Y51600000D02*
X127400000Y51600000D01*
X600000Y51400000D02*
X12400000Y51400000D01*
X14200000Y51400000D02*
X16600000Y51400000D01*
X18200000Y51400000D02*
X20000000Y51400000D01*
X24000000Y51400000D02*
X24200000Y51400000D01*
X26600000Y51400000D02*
X35800000Y51400000D01*
X37400000Y51400000D02*
X38000000Y51400000D01*
X42000000Y51400000D02*
X42000000Y51400000D01*
X45800000Y51400000D02*
X56000000Y51400000D01*
X60000000Y51400000D02*
X69800000Y51400000D01*
X71400000Y51400000D02*
X74000000Y51400000D01*
X78000000Y51400000D02*
X78400000Y51400000D01*
X81000000Y51400000D02*
X127400000Y51400000D01*
X600000Y51200000D02*
X12400000Y51200000D01*
X14200000Y51200000D02*
X16800000Y51200000D01*
X18600000Y51200000D02*
X20000000Y51200000D01*
X24000000Y51200000D02*
X24200000Y51200000D01*
X26600000Y51200000D02*
X35600000Y51200000D01*
X37200000Y51200000D02*
X38000000Y51200000D01*
X42000000Y51200000D02*
X42000000Y51200000D01*
X45800000Y51200000D02*
X56000000Y51200000D01*
X60000000Y51200000D02*
X69400000Y51200000D01*
X71200000Y51200000D02*
X74000000Y51200000D01*
X78000000Y51200000D02*
X78200000Y51200000D01*
X80800000Y51200000D02*
X127400000Y51200000D01*
X600000Y51000000D02*
X12400000Y51000000D01*
X14200000Y51000000D02*
X17000000Y51000000D01*
X18800000Y51000000D02*
X20000000Y51000000D01*
X24000000Y51000000D02*
X24200000Y51000000D01*
X26600000Y51000000D02*
X35400000Y51000000D01*
X37000000Y51000000D02*
X38000000Y51000000D01*
X42000000Y51000000D02*
X42000000Y51000000D01*
X45800000Y51000000D02*
X56000000Y51000000D01*
X60000000Y51000000D02*
X69200000Y51000000D01*
X71000000Y51000000D02*
X74000000Y51000000D01*
X78000000Y51000000D02*
X78000000Y51000000D01*
X80600000Y51000000D02*
X127400000Y51000000D01*
X600000Y50800000D02*
X12400000Y50800000D01*
X14200000Y50800000D02*
X16200000Y50800000D01*
X19000000Y50800000D02*
X20000000Y50800000D01*
X24000000Y50800000D02*
X24200000Y50800000D01*
X26600000Y50800000D02*
X34200000Y50800000D01*
X36800000Y50800000D02*
X38000000Y50800000D01*
X42000000Y50800000D02*
X42000000Y50800000D01*
X44400000Y50800000D02*
X44400000Y50800000D01*
X45600000Y50800000D02*
X52200000Y50800000D01*
X53800000Y50800000D02*
X56000000Y50800000D01*
X60000000Y50800000D02*
X69000000Y50800000D01*
X71800000Y50800000D02*
X74000000Y50800000D01*
X80400000Y50800000D02*
X127400000Y50800000D01*
X600000Y50600000D02*
X12400000Y50600000D01*
X14200000Y50600000D02*
X15800000Y50600000D01*
X19200000Y50600000D02*
X20200000Y50600000D01*
X23800000Y50600000D02*
X24400000Y50600000D01*
X26600000Y50600000D02*
X33800000Y50600000D01*
X36600000Y50600000D02*
X38200000Y50600000D01*
X41800000Y50600000D02*
X42000000Y50600000D01*
X44400000Y50600000D02*
X44600000Y50600000D01*
X45400000Y50600000D02*
X51800000Y50600000D01*
X54200000Y50600000D02*
X56200000Y50600000D01*
X59800000Y50600000D02*
X68800000Y50600000D01*
X72200000Y50600000D02*
X74200000Y50600000D01*
X80200000Y50600000D02*
X127400000Y50600000D01*
X600000Y50400000D02*
X12400000Y50400000D01*
X14200000Y50400000D02*
X15600000Y50400000D01*
X19400000Y50400000D02*
X20200000Y50400000D01*
X23800000Y50400000D02*
X24400000Y50400000D01*
X26400000Y50400000D02*
X33600000Y50400000D01*
X36400000Y50400000D02*
X38200000Y50400000D01*
X41800000Y50400000D02*
X42200000Y50400000D01*
X44200000Y50400000D02*
X51600000Y50400000D01*
X54400000Y50400000D02*
X56200000Y50400000D01*
X59800000Y50400000D02*
X68600000Y50400000D01*
X72400000Y50400000D02*
X74200000Y50400000D01*
X80000000Y50400000D02*
X127400000Y50400000D01*
X600000Y50200000D02*
X12400000Y50200000D01*
X14200000Y50200000D02*
X15400000Y50200000D01*
X19400000Y50200000D02*
X20400000Y50200000D01*
X23600000Y50200000D02*
X24600000Y50200000D01*
X26400000Y50200000D02*
X33400000Y50200000D01*
X36600000Y50200000D02*
X38400000Y50200000D01*
X41600000Y50200000D02*
X42400000Y50200000D01*
X44000000Y50200000D02*
X51400000Y50200000D01*
X54600000Y50200000D02*
X56400000Y50200000D01*
X59600000Y50200000D02*
X68400000Y50200000D01*
X72600000Y50200000D02*
X74400000Y50200000D01*
X79800000Y50200000D02*
X127400000Y50200000D01*
X600000Y50000000D02*
X12400000Y50000000D01*
X14200000Y50000000D02*
X15200000Y50000000D01*
X19400000Y50000000D02*
X20400000Y50000000D01*
X23600000Y50000000D02*
X25000000Y50000000D01*
X26000000Y50000000D02*
X33200000Y50000000D01*
X36800000Y50000000D02*
X38400000Y50000000D01*
X41600000Y50000000D02*
X42800000Y50000000D01*
X43800000Y50000000D02*
X51200000Y50000000D01*
X54800000Y50000000D02*
X56400000Y50000000D01*
X59600000Y50000000D02*
X68200000Y50000000D01*
X72800000Y50000000D02*
X74400000Y50000000D01*
X79600000Y50000000D02*
X127400000Y50000000D01*
X600000Y49800000D02*
X12400000Y49800000D01*
X14200000Y49800000D02*
X15200000Y49800000D01*
X19600000Y49800000D02*
X20600000Y49800000D01*
X23400000Y49800000D02*
X33200000Y49800000D01*
X36800000Y49800000D02*
X38600000Y49800000D01*
X41400000Y49800000D02*
X51200000Y49800000D01*
X54800000Y49800000D02*
X56600000Y49800000D01*
X59400000Y49800000D02*
X68000000Y49800000D01*
X72800000Y49800000D02*
X74600000Y49800000D01*
X79400000Y49800000D02*
X127400000Y49800000D01*
X600000Y49600000D02*
X12400000Y49600000D01*
X14200000Y49600000D02*
X15200000Y49600000D01*
X19600000Y49600000D02*
X21000000Y49600000D01*
X23000000Y49600000D02*
X25000000Y49600000D01*
X26000000Y49600000D02*
X33200000Y49600000D01*
X36800000Y49600000D02*
X39000000Y49600000D01*
X41000000Y49600000D02*
X42800000Y49600000D01*
X43800000Y49600000D02*
X51200000Y49600000D01*
X79200000Y49600000D02*
X127400000Y49600000D01*
X600000Y49400000D02*
X12400000Y49400000D01*
X14200000Y49400000D02*
X15000000Y49400000D01*
X19600000Y49400000D02*
X21400000Y49400000D01*
X22600000Y49400000D02*
X24600000Y49400000D01*
X26400000Y49400000D02*
X33000000Y49400000D01*
X37000000Y49400000D02*
X39400000Y49400000D01*
X40600000Y49400000D02*
X42400000Y49400000D01*
X44000000Y49400000D02*
X51000000Y49400000D01*
X79000000Y49400000D02*
X127400000Y49400000D01*
X600000Y49200000D02*
X12400000Y49200000D01*
X14200000Y49200000D02*
X15000000Y49200000D01*
X19600000Y49200000D02*
X24400000Y49200000D01*
X26400000Y49200000D02*
X33000000Y49200000D01*
X37000000Y49200000D02*
X42200000Y49200000D01*
X44200000Y49200000D02*
X51000000Y49200000D01*
X69000000Y49200000D02*
X69000000Y49200000D01*
X78800000Y49200000D02*
X127400000Y49200000D01*
X600000Y49000000D02*
X12400000Y49000000D01*
X14200000Y49000000D02*
X15000000Y49000000D01*
X19600000Y49000000D02*
X24400000Y49000000D01*
X26600000Y49000000D02*
X33000000Y49000000D01*
X37000000Y49000000D02*
X42000000Y49000000D01*
X44400000Y49000000D02*
X51000000Y49000000D01*
X68800000Y49000000D02*
X69000000Y49000000D01*
X78600000Y49000000D02*
X127400000Y49000000D01*
X600000Y48800000D02*
X12400000Y48800000D01*
X14200000Y48800000D02*
X15000000Y48800000D01*
X19600000Y48800000D02*
X24200000Y48800000D01*
X26600000Y48800000D02*
X33000000Y48800000D01*
X37000000Y48800000D02*
X42000000Y48800000D01*
X44400000Y48800000D02*
X51000000Y48800000D01*
X68600000Y48800000D02*
X69000000Y48800000D01*
X78400000Y48800000D02*
X127400000Y48800000D01*
X600000Y48600000D02*
X12400000Y48600000D01*
X14200000Y48600000D02*
X15200000Y48600000D01*
X19600000Y48600000D02*
X24200000Y48600000D01*
X26600000Y48600000D02*
X33200000Y48600000D01*
X36800000Y48600000D02*
X42000000Y48600000D01*
X44400000Y48600000D02*
X51200000Y48600000D01*
X54800000Y48600000D02*
X69200000Y48600000D01*
X72800000Y48600000D02*
X73600000Y48600000D01*
X78200000Y48600000D02*
X127400000Y48600000D01*
X600000Y48400000D02*
X12400000Y48400000D01*
X14200000Y48400000D02*
X15200000Y48400000D01*
X19600000Y48400000D02*
X24200000Y48400000D01*
X26600000Y48400000D02*
X33200000Y48400000D01*
X36800000Y48400000D02*
X42000000Y48400000D01*
X44400000Y48400000D02*
X51200000Y48400000D01*
X54800000Y48400000D02*
X69200000Y48400000D01*
X72800000Y48400000D02*
X73400000Y48400000D01*
X77800000Y48400000D02*
X100400000Y48400000D01*
X101800000Y48400000D02*
X112200000Y48400000D01*
X113600000Y48400000D02*
X127400000Y48400000D01*
X600000Y48200000D02*
X12400000Y48200000D01*
X14200000Y48200000D02*
X15200000Y48200000D01*
X19600000Y48200000D02*
X24200000Y48200000D01*
X26600000Y48200000D02*
X33200000Y48200000D01*
X36800000Y48200000D02*
X42000000Y48200000D01*
X44400000Y48200000D02*
X51200000Y48200000D01*
X54800000Y48200000D02*
X69200000Y48200000D01*
X72800000Y48200000D02*
X73200000Y48200000D01*
X77400000Y48200000D02*
X100000000Y48200000D01*
X102200000Y48200000D02*
X111800000Y48200000D01*
X114000000Y48200000D02*
X127400000Y48200000D01*
X600000Y48000000D02*
X12400000Y48000000D01*
X14200000Y48000000D02*
X15400000Y48000000D01*
X19600000Y48000000D02*
X24400000Y48000000D01*
X26600000Y48000000D02*
X33400000Y48000000D01*
X36600000Y48000000D02*
X42200000Y48000000D01*
X44400000Y48000000D02*
X51400000Y48000000D01*
X54600000Y48000000D02*
X69400000Y48000000D01*
X72600000Y48000000D02*
X73000000Y48000000D01*
X74600000Y48000000D02*
X99600000Y48000000D01*
X102600000Y48000000D02*
X111400000Y48000000D01*
X114400000Y48000000D02*
X127400000Y48000000D01*
X600000Y47800000D02*
X12400000Y47800000D01*
X14200000Y47800000D02*
X15600000Y47800000D01*
X18400000Y47800000D02*
X18400000Y47800000D01*
X19600000Y47800000D02*
X24400000Y47800000D01*
X26400000Y47800000D02*
X33600000Y47800000D01*
X36400000Y47800000D02*
X42200000Y47800000D01*
X44200000Y47800000D02*
X51400000Y47800000D01*
X54400000Y47800000D02*
X69600000Y47800000D01*
X72400000Y47800000D02*
X72800000Y47800000D01*
X74600000Y47800000D02*
X99400000Y47800000D01*
X102800000Y47800000D02*
X111200000Y47800000D01*
X114600000Y47800000D02*
X127400000Y47800000D01*
X600000Y47600000D02*
X12400000Y47600000D01*
X14200000Y47600000D02*
X15800000Y47600000D01*
X18200000Y47600000D02*
X18400000Y47600000D01*
X19600000Y47600000D02*
X24600000Y47600000D01*
X26200000Y47600000D02*
X33800000Y47600000D01*
X36200000Y47600000D02*
X42400000Y47600000D01*
X54200000Y47600000D02*
X69800000Y47600000D01*
X72200000Y47600000D02*
X72600000Y47600000D01*
X80000000Y47600000D02*
X99400000Y47600000D01*
X102800000Y47600000D02*
X111200000Y47600000D01*
X114600000Y47600000D02*
X127400000Y47600000D01*
X600000Y47400000D02*
X12400000Y47400000D01*
X14200000Y47400000D02*
X15800000Y47400000D01*
X17800000Y47400000D02*
X18400000Y47400000D01*
X19600000Y47400000D02*
X25200000Y47400000D01*
X25800000Y47400000D02*
X33800000Y47400000D01*
X35800000Y47400000D02*
X42400000Y47400000D01*
X53800000Y47400000D02*
X70200000Y47400000D01*
X71800000Y47400000D02*
X72400000Y47400000D01*
X80200000Y47400000D02*
X99200000Y47400000D01*
X103000000Y47400000D02*
X111000000Y47400000D01*
X114800000Y47400000D02*
X127400000Y47400000D01*
X600000Y47200000D02*
X12400000Y47200000D01*
X14200000Y47200000D02*
X15800000Y47200000D01*
X17000000Y47200000D02*
X18400000Y47200000D01*
X19600000Y47200000D02*
X33800000Y47200000D01*
X35000000Y47200000D02*
X42400000Y47200000D01*
X53000000Y47200000D02*
X72200000Y47200000D01*
X80400000Y47200000D02*
X99200000Y47200000D01*
X103000000Y47200000D02*
X111000000Y47200000D01*
X114800000Y47200000D02*
X127400000Y47200000D01*
X600000Y47000000D02*
X12400000Y47000000D01*
X14200000Y47000000D02*
X15800000Y47000000D01*
X17000000Y47000000D02*
X18400000Y47000000D01*
X19600000Y47000000D02*
X24800000Y47000000D01*
X26000000Y47000000D02*
X33800000Y47000000D01*
X35000000Y47000000D02*
X42400000Y47000000D01*
X53000000Y47000000D02*
X72000000Y47000000D01*
X80600000Y47000000D02*
X99000000Y47000000D01*
X103200000Y47000000D02*
X110800000Y47000000D01*
X115000000Y47000000D02*
X127400000Y47000000D01*
X600000Y46800000D02*
X12400000Y46800000D01*
X14200000Y46800000D02*
X15600000Y46800000D01*
X17000000Y46800000D02*
X18400000Y46800000D01*
X19600000Y46800000D02*
X24600000Y46800000D01*
X26400000Y46800000D02*
X33600000Y46800000D01*
X35000000Y46800000D02*
X42400000Y46800000D01*
X53000000Y46800000D02*
X71800000Y46800000D01*
X73400000Y46800000D02*
X73600000Y46800000D01*
X80800000Y46800000D02*
X99000000Y46800000D01*
X103200000Y46800000D02*
X110800000Y46800000D01*
X115000000Y46800000D02*
X127400000Y46800000D01*
X600000Y46600000D02*
X12400000Y46600000D01*
X14200000Y46600000D02*
X15400000Y46600000D01*
X17000000Y46600000D02*
X18400000Y46600000D01*
X19600000Y46600000D02*
X24400000Y46600000D01*
X26600000Y46600000D02*
X33400000Y46600000D01*
X35000000Y46600000D02*
X42200000Y46600000D01*
X44400000Y46600000D02*
X51400000Y46600000D01*
X53000000Y46600000D02*
X71600000Y46600000D01*
X73200000Y46600000D02*
X73800000Y46600000D01*
X74600000Y46600000D02*
X79400000Y46600000D01*
X81000000Y46600000D02*
X99000000Y46600000D01*
X103200000Y46600000D02*
X110800000Y46600000D01*
X115000000Y46600000D02*
X127400000Y46600000D01*
X600000Y46400000D02*
X12400000Y46400000D01*
X14200000Y46400000D02*
X15200000Y46400000D01*
X16800000Y46400000D02*
X18400000Y46400000D01*
X19600000Y46400000D02*
X24200000Y46400000D01*
X26600000Y46400000D02*
X33200000Y46400000D01*
X34800000Y46400000D02*
X42000000Y46400000D01*
X44400000Y46400000D02*
X51200000Y46400000D01*
X52800000Y46400000D02*
X71400000Y46400000D01*
X73000000Y46400000D02*
X79600000Y46400000D01*
X81200000Y46400000D02*
X99000000Y46400000D01*
X103200000Y46400000D02*
X110800000Y46400000D01*
X115000000Y46400000D02*
X127400000Y46400000D01*
X600000Y46200000D02*
X12400000Y46200000D01*
X14200000Y46200000D02*
X15000000Y46200000D01*
X16600000Y46200000D02*
X18400000Y46200000D01*
X19600000Y46200000D02*
X24200000Y46200000D01*
X26600000Y46200000D02*
X33000000Y46200000D01*
X34600000Y46200000D02*
X42000000Y46200000D01*
X44400000Y46200000D02*
X51000000Y46200000D01*
X52600000Y46200000D02*
X71200000Y46200000D01*
X72800000Y46200000D02*
X79800000Y46200000D01*
X81400000Y46200000D02*
X99000000Y46200000D01*
X103200000Y46200000D02*
X110800000Y46200000D01*
X115000000Y46200000D02*
X127400000Y46200000D01*
X600000Y46000000D02*
X12400000Y46000000D01*
X14200000Y46000000D02*
X14800000Y46000000D01*
X16400000Y46000000D02*
X18400000Y46000000D01*
X19600000Y46000000D02*
X24200000Y46000000D01*
X26600000Y46000000D02*
X32800000Y46000000D01*
X34400000Y46000000D02*
X42000000Y46000000D01*
X44400000Y46000000D02*
X50800000Y46000000D01*
X52400000Y46000000D02*
X71000000Y46000000D01*
X72600000Y46000000D02*
X80000000Y46000000D01*
X81600000Y46000000D02*
X99000000Y46000000D01*
X103200000Y46000000D02*
X110800000Y46000000D01*
X115000000Y46000000D02*
X127400000Y46000000D01*
X600000Y45800000D02*
X12400000Y45800000D01*
X14200000Y45800000D02*
X14600000Y45800000D01*
X16200000Y45800000D02*
X18000000Y45800000D01*
X19600000Y45800000D02*
X24200000Y45800000D01*
X26600000Y45800000D02*
X32600000Y45800000D01*
X34200000Y45800000D02*
X42000000Y45800000D01*
X44400000Y45800000D02*
X50600000Y45800000D01*
X52200000Y45800000D02*
X70800000Y45800000D01*
X72400000Y45800000D02*
X80200000Y45800000D01*
X81800000Y45800000D02*
X99200000Y45800000D01*
X103000000Y45800000D02*
X111000000Y45800000D01*
X114800000Y45800000D02*
X127400000Y45800000D01*
X600000Y45600000D02*
X12400000Y45600000D01*
X14200000Y45600000D02*
X14400000Y45600000D01*
X16000000Y45600000D02*
X17800000Y45600000D01*
X19600000Y45600000D02*
X24200000Y45600000D01*
X26600000Y45600000D02*
X32400000Y45600000D01*
X34000000Y45600000D02*
X42000000Y45600000D01*
X44400000Y45600000D02*
X50400000Y45600000D01*
X52200000Y45600000D02*
X70600000Y45600000D01*
X72200000Y45600000D02*
X80400000Y45600000D01*
X82000000Y45600000D02*
X99200000Y45600000D01*
X103000000Y45600000D02*
X111000000Y45600000D01*
X114800000Y45600000D02*
X127400000Y45600000D01*
X600000Y45400000D02*
X12400000Y45400000D01*
X14200000Y45400000D02*
X14200000Y45400000D01*
X15800000Y45400000D02*
X17600000Y45400000D01*
X19800000Y45400000D02*
X24400000Y45400000D01*
X26600000Y45400000D02*
X32200000Y45400000D01*
X33800000Y45400000D02*
X42200000Y45400000D01*
X44400000Y45400000D02*
X50200000Y45400000D01*
X52400000Y45400000D02*
X70400000Y45400000D01*
X72000000Y45400000D02*
X80600000Y45400000D01*
X82200000Y45400000D02*
X99400000Y45400000D01*
X102800000Y45400000D02*
X111200000Y45400000D01*
X114600000Y45400000D02*
X127400000Y45400000D01*
X600000Y45200000D02*
X12400000Y45200000D01*
X15600000Y45200000D02*
X17600000Y45200000D01*
X20000000Y45200000D02*
X24600000Y45200000D01*
X26400000Y45200000D02*
X32000000Y45200000D01*
X33600000Y45200000D02*
X42200000Y45200000D01*
X44200000Y45200000D02*
X49200000Y45200000D01*
X50000000Y45200000D02*
X50000000Y45200000D01*
X52400000Y45200000D02*
X70200000Y45200000D01*
X71800000Y45200000D02*
X80800000Y45200000D01*
X82400000Y45200000D02*
X99400000Y45200000D01*
X102800000Y45200000D02*
X111200000Y45200000D01*
X114600000Y45200000D02*
X127400000Y45200000D01*
X600000Y45000000D02*
X12400000Y45000000D01*
X15400000Y45000000D02*
X17200000Y45000000D01*
X20200000Y45000000D02*
X24800000Y45000000D01*
X26200000Y45000000D02*
X31800000Y45000000D01*
X33400000Y45000000D02*
X35200000Y45000000D01*
X52400000Y45000000D02*
X70000000Y45000000D01*
X71600000Y45000000D02*
X81000000Y45000000D01*
X82600000Y45000000D02*
X99600000Y45000000D01*
X102600000Y45000000D02*
X111400000Y45000000D01*
X114400000Y45000000D02*
X127400000Y45000000D01*
X600000Y44800000D02*
X12400000Y44800000D01*
X15200000Y44800000D02*
X17000000Y44800000D01*
X20400000Y44800000D02*
X31600000Y44800000D01*
X33200000Y44800000D02*
X35000000Y44800000D01*
X52200000Y44800000D02*
X69800000Y44800000D01*
X71400000Y44800000D02*
X81200000Y44800000D01*
X82800000Y44800000D02*
X100000000Y44800000D01*
X102200000Y44800000D02*
X111800000Y44800000D01*
X114000000Y44800000D02*
X127400000Y44800000D01*
X600000Y44600000D02*
X12400000Y44600000D01*
X15000000Y44600000D02*
X15600000Y44600000D01*
X18800000Y44600000D02*
X19000000Y44600000D01*
X20400000Y44600000D02*
X31600000Y44600000D01*
X33000000Y44600000D02*
X33600000Y44600000D01*
X51000000Y44600000D02*
X51000000Y44600000D01*
X52200000Y44600000D02*
X69600000Y44600000D01*
X71200000Y44600000D02*
X81400000Y44600000D01*
X83000000Y44600000D02*
X100400000Y44600000D01*
X101800000Y44600000D02*
X112200000Y44600000D01*
X113600000Y44600000D02*
X127400000Y44600000D01*
X600000Y44400000D02*
X12400000Y44400000D01*
X18400000Y44400000D02*
X19200000Y44400000D01*
X20400000Y44400000D02*
X31600000Y44400000D01*
X52400000Y44400000D02*
X69400000Y44400000D01*
X71000000Y44400000D02*
X81600000Y44400000D01*
X83200000Y44400000D02*
X127400000Y44400000D01*
X600000Y44200000D02*
X12400000Y44200000D01*
X18200000Y44200000D02*
X19200000Y44200000D01*
X20400000Y44200000D02*
X31600000Y44200000D01*
X52400000Y44200000D02*
X69200000Y44200000D01*
X70800000Y44200000D02*
X81800000Y44200000D01*
X83400000Y44200000D02*
X127400000Y44200000D01*
X600000Y44000000D02*
X12400000Y44000000D01*
X17800000Y44000000D02*
X19200000Y44000000D01*
X20400000Y44000000D02*
X31600000Y44000000D01*
X35800000Y44000000D02*
X49200000Y44000000D01*
X52400000Y44000000D02*
X69000000Y44000000D01*
X70600000Y44000000D02*
X82000000Y44000000D01*
X83600000Y44000000D02*
X127400000Y44000000D01*
X600000Y43800000D02*
X12400000Y43800000D01*
X17600000Y43800000D02*
X19200000Y43800000D01*
X20400000Y43800000D02*
X31600000Y43800000D01*
X35600000Y43800000D02*
X49600000Y43800000D01*
X52400000Y43800000D02*
X68800000Y43800000D01*
X70400000Y43800000D02*
X82200000Y43800000D01*
X83800000Y43800000D02*
X127400000Y43800000D01*
X600000Y43600000D02*
X12400000Y43600000D01*
X16400000Y43600000D02*
X19200000Y43600000D01*
X20400000Y43600000D02*
X31600000Y43600000D01*
X34400000Y43600000D02*
X49600000Y43600000D01*
X52400000Y43600000D02*
X68600000Y43600000D01*
X70200000Y43600000D02*
X82400000Y43600000D01*
X84000000Y43600000D02*
X127400000Y43600000D01*
X600000Y43400000D02*
X12400000Y43400000D01*
X16400000Y43400000D02*
X19000000Y43400000D01*
X20600000Y43400000D02*
X21800000Y43400000D01*
X22600000Y43400000D02*
X31600000Y43400000D01*
X34400000Y43400000D02*
X39800000Y43400000D01*
X40600000Y43400000D02*
X49600000Y43400000D01*
X52400000Y43400000D02*
X57800000Y43400000D01*
X58600000Y43400000D02*
X68400000Y43400000D01*
X70000000Y43400000D02*
X82600000Y43400000D01*
X84200000Y43400000D02*
X127400000Y43400000D01*
X600000Y43200000D02*
X12400000Y43200000D01*
X16400000Y43200000D02*
X19000000Y43200000D01*
X20600000Y43200000D02*
X21600000Y43200000D01*
X22800000Y43200000D02*
X31600000Y43200000D01*
X34400000Y43200000D02*
X39600000Y43200000D01*
X40800000Y43200000D02*
X49600000Y43200000D01*
X52400000Y43200000D02*
X57600000Y43200000D01*
X58800000Y43200000D02*
X68200000Y43200000D01*
X69800000Y43200000D02*
X79800000Y43200000D01*
X80200000Y43200000D02*
X82800000Y43200000D01*
X84400000Y43200000D02*
X127400000Y43200000D01*
X600000Y43000000D02*
X12400000Y43000000D01*
X16400000Y43000000D02*
X17200000Y43000000D01*
X23000000Y43000000D02*
X31600000Y43000000D01*
X34400000Y43000000D02*
X35200000Y43000000D01*
X41000000Y43000000D02*
X49600000Y43000000D01*
X52400000Y43000000D02*
X53200000Y43000000D01*
X59000000Y43000000D02*
X68000000Y43000000D01*
X69600000Y43000000D02*
X76600000Y43000000D01*
X78200000Y43000000D02*
X79200000Y43000000D01*
X80800000Y43000000D02*
X81800000Y43000000D01*
X85800000Y43000000D02*
X127400000Y43000000D01*
X600000Y42800000D02*
X12400000Y42800000D01*
X16400000Y42800000D02*
X17000000Y42800000D01*
X23000000Y42800000D02*
X31600000Y42800000D01*
X34400000Y42800000D02*
X35000000Y42800000D01*
X41000000Y42800000D02*
X49600000Y42800000D01*
X52400000Y42800000D02*
X53000000Y42800000D01*
X59000000Y42800000D02*
X67800000Y42800000D01*
X69400000Y42800000D02*
X76400000Y42800000D01*
X78400000Y42800000D02*
X79000000Y42800000D01*
X81000000Y42800000D02*
X81600000Y42800000D01*
X86000000Y42800000D02*
X127400000Y42800000D01*
X600000Y42600000D02*
X12400000Y42600000D01*
X14800000Y42600000D02*
X15600000Y42600000D01*
X23000000Y42600000D02*
X31600000Y42600000D01*
X32800000Y42600000D02*
X33600000Y42600000D01*
X41000000Y42600000D02*
X49600000Y42600000D01*
X50800000Y42600000D02*
X51600000Y42600000D01*
X59000000Y42600000D02*
X67600000Y42600000D01*
X69200000Y42600000D02*
X76400000Y42600000D01*
X78600000Y42600000D02*
X78800000Y42600000D01*
X81200000Y42600000D02*
X81400000Y42600000D01*
X86200000Y42600000D02*
X127400000Y42600000D01*
X600000Y42400000D02*
X12400000Y42400000D01*
X22800000Y42400000D02*
X31600000Y42400000D01*
X40800000Y42400000D02*
X49600000Y42400000D01*
X58800000Y42400000D02*
X67400000Y42400000D01*
X69000000Y42400000D02*
X76200000Y42400000D01*
X78600000Y42400000D02*
X78800000Y42400000D01*
X81200000Y42400000D02*
X81400000Y42400000D01*
X86400000Y42400000D02*
X127400000Y42400000D01*
X600000Y42200000D02*
X12400000Y42200000D01*
X22600000Y42200000D02*
X31600000Y42200000D01*
X40600000Y42200000D02*
X49600000Y42200000D01*
X58600000Y42200000D02*
X67200000Y42200000D01*
X68800000Y42200000D02*
X76200000Y42200000D01*
X78800000Y42200000D02*
X78800000Y42200000D01*
X81200000Y42200000D02*
X81200000Y42200000D01*
X83800000Y42200000D02*
X83800000Y42200000D01*
X86400000Y42200000D02*
X127400000Y42200000D01*
X600000Y42000000D02*
X12400000Y42000000D01*
X19800000Y42000000D02*
X25000000Y42000000D01*
X26000000Y42000000D02*
X31600000Y42000000D01*
X37800000Y42000000D02*
X42800000Y42000000D01*
X43600000Y42000000D02*
X49600000Y42000000D01*
X55800000Y42000000D02*
X67000000Y42000000D01*
X68600000Y42000000D02*
X76200000Y42000000D01*
X81200000Y42000000D02*
X81200000Y42000000D01*
X83800000Y42000000D02*
X83800000Y42000000D01*
X86400000Y42000000D02*
X127400000Y42000000D01*
X600000Y41800000D02*
X12200000Y41800000D01*
X17600000Y41800000D02*
X17600000Y41800000D01*
X19800000Y41800000D02*
X24600000Y41800000D01*
X26200000Y41800000D02*
X31600000Y41800000D01*
X37800000Y41800000D02*
X42400000Y41800000D01*
X44000000Y41800000D02*
X49600000Y41800000D01*
X55800000Y41800000D02*
X66800000Y41800000D01*
X68400000Y41800000D02*
X76000000Y41800000D01*
X78800000Y41800000D02*
X78800000Y41800000D01*
X81200000Y41800000D02*
X81200000Y41800000D01*
X83800000Y41800000D02*
X83800000Y41800000D01*
X86400000Y41800000D02*
X127400000Y41800000D01*
X600000Y41600000D02*
X12000000Y41600000D01*
X16400000Y41600000D02*
X17600000Y41600000D01*
X19800000Y41600000D02*
X24400000Y41600000D01*
X26400000Y41600000D02*
X31600000Y41600000D01*
X34400000Y41600000D02*
X35400000Y41600000D01*
X37800000Y41600000D02*
X42200000Y41600000D01*
X44200000Y41600000D02*
X49600000Y41600000D01*
X52400000Y41600000D02*
X53400000Y41600000D01*
X55800000Y41600000D02*
X66600000Y41600000D01*
X68200000Y41600000D02*
X75800000Y41600000D01*
X78600000Y41600000D02*
X78800000Y41600000D01*
X81200000Y41600000D02*
X81400000Y41600000D01*
X83800000Y41600000D02*
X83800000Y41600000D01*
X86400000Y41600000D02*
X127400000Y41600000D01*
X600000Y41400000D02*
X11800000Y41400000D01*
X16400000Y41400000D02*
X17600000Y41400000D01*
X19800000Y41400000D02*
X24400000Y41400000D01*
X26600000Y41400000D02*
X31600000Y41400000D01*
X34400000Y41400000D02*
X35600000Y41400000D01*
X37800000Y41400000D02*
X42000000Y41400000D01*
X44400000Y41400000D02*
X49600000Y41400000D01*
X52400000Y41400000D02*
X53600000Y41400000D01*
X55800000Y41400000D02*
X66400000Y41400000D01*
X68000000Y41400000D02*
X75400000Y41400000D01*
X78600000Y41400000D02*
X78800000Y41400000D01*
X81200000Y41400000D02*
X81400000Y41400000D01*
X83600000Y41400000D02*
X84000000Y41400000D01*
X86200000Y41400000D02*
X127400000Y41400000D01*
X600000Y41200000D02*
X11600000Y41200000D01*
X16400000Y41200000D02*
X17600000Y41200000D01*
X19800000Y41200000D02*
X24200000Y41200000D01*
X26600000Y41200000D02*
X31600000Y41200000D01*
X34400000Y41200000D02*
X35600000Y41200000D01*
X37800000Y41200000D02*
X42000000Y41200000D01*
X44400000Y41200000D02*
X49600000Y41200000D01*
X52400000Y41200000D02*
X53600000Y41200000D01*
X55800000Y41200000D02*
X66200000Y41200000D01*
X67800000Y41200000D02*
X71000000Y41200000D01*
X78400000Y41200000D02*
X79000000Y41200000D01*
X81000000Y41200000D02*
X81600000Y41200000D01*
X83600000Y41200000D02*
X84000000Y41200000D01*
X86000000Y41200000D02*
X127400000Y41200000D01*
X600000Y41000000D02*
X11400000Y41000000D01*
X13000000Y41000000D02*
X13000000Y41000000D01*
X16400000Y41000000D02*
X17600000Y41000000D01*
X19800000Y41000000D02*
X24200000Y41000000D01*
X26600000Y41000000D02*
X31600000Y41000000D01*
X34400000Y41000000D02*
X35600000Y41000000D01*
X37800000Y41000000D02*
X42000000Y41000000D01*
X44400000Y41000000D02*
X49600000Y41000000D01*
X52400000Y41000000D02*
X53600000Y41000000D01*
X55800000Y41000000D02*
X66000000Y41000000D01*
X67600000Y41000000D02*
X70800000Y41000000D01*
X78200000Y41000000D02*
X79200000Y41000000D01*
X80800000Y41000000D02*
X81800000Y41000000D01*
X83400000Y41000000D02*
X84400000Y41000000D01*
X85800000Y41000000D02*
X127400000Y41000000D01*
X600000Y40800000D02*
X11200000Y40800000D01*
X12800000Y40800000D02*
X13000000Y40800000D01*
X16400000Y40800000D02*
X17600000Y40800000D01*
X19800000Y40800000D02*
X24200000Y40800000D01*
X26600000Y40800000D02*
X31600000Y40800000D01*
X34400000Y40800000D02*
X35600000Y40800000D01*
X37800000Y40800000D02*
X42000000Y40800000D01*
X44400000Y40800000D02*
X49600000Y40800000D01*
X52400000Y40800000D02*
X53600000Y40800000D01*
X55800000Y40800000D02*
X65800000Y40800000D01*
X67400000Y40800000D02*
X70600000Y40800000D01*
X76600000Y40800000D02*
X127400000Y40800000D01*
X600000Y40600000D02*
X11000000Y40600000D01*
X12600000Y40600000D02*
X13000000Y40600000D01*
X14800000Y40600000D02*
X24200000Y40600000D01*
X26600000Y40600000D02*
X31600000Y40600000D01*
X32800000Y40600000D02*
X42000000Y40600000D01*
X44400000Y40600000D02*
X49600000Y40600000D01*
X50800000Y40600000D02*
X65600000Y40600000D01*
X67200000Y40600000D02*
X70400000Y40600000D01*
X76400000Y40600000D02*
X103800000Y40600000D01*
X105200000Y40600000D02*
X108800000Y40600000D01*
X110200000Y40600000D02*
X127400000Y40600000D01*
X600000Y40400000D02*
X10800000Y40400000D01*
X12400000Y40400000D02*
X13000000Y40400000D01*
X14800000Y40400000D02*
X24400000Y40400000D01*
X26600000Y40400000D02*
X31600000Y40400000D01*
X32800000Y40400000D02*
X42000000Y40400000D01*
X44400000Y40400000D02*
X49600000Y40400000D01*
X50800000Y40400000D02*
X65400000Y40400000D01*
X67000000Y40400000D02*
X70200000Y40400000D01*
X76000000Y40400000D02*
X103600000Y40400000D01*
X105400000Y40400000D02*
X108600000Y40400000D01*
X110400000Y40400000D02*
X127400000Y40400000D01*
X600000Y40200000D02*
X10600000Y40200000D01*
X12200000Y40200000D02*
X13000000Y40200000D01*
X14800000Y40200000D02*
X24400000Y40200000D01*
X26400000Y40200000D02*
X31600000Y40200000D01*
X32800000Y40200000D02*
X42200000Y40200000D01*
X44200000Y40200000D02*
X49600000Y40200000D01*
X50800000Y40200000D02*
X65200000Y40200000D01*
X66800000Y40200000D02*
X70000000Y40200000D01*
X71600000Y40200000D02*
X96200000Y40200000D01*
X97000000Y40200000D02*
X103400000Y40200000D01*
X105600000Y40200000D02*
X108400000Y40200000D01*
X110600000Y40200000D02*
X127400000Y40200000D01*
X600000Y40000000D02*
X10400000Y40000000D01*
X12000000Y40000000D02*
X13000000Y40000000D01*
X14800000Y40000000D02*
X16200000Y40000000D01*
X17800000Y40000000D02*
X24600000Y40000000D01*
X26200000Y40000000D02*
X31600000Y40000000D01*
X32800000Y40000000D02*
X34200000Y40000000D01*
X35800000Y40000000D02*
X42400000Y40000000D01*
X44000000Y40000000D02*
X49600000Y40000000D01*
X50800000Y40000000D02*
X52200000Y40000000D01*
X53800000Y40000000D02*
X65000000Y40000000D01*
X66600000Y40000000D02*
X69800000Y40000000D01*
X71400000Y40000000D02*
X96000000Y40000000D01*
X97200000Y40000000D02*
X103200000Y40000000D01*
X105800000Y40000000D02*
X108200000Y40000000D01*
X110800000Y40000000D02*
X127400000Y40000000D01*
X600000Y39800000D02*
X10200000Y39800000D01*
X11800000Y39800000D02*
X13000000Y39800000D01*
X14800000Y39800000D02*
X15800000Y39800000D01*
X18200000Y39800000D02*
X25000000Y39800000D01*
X25800000Y39800000D02*
X31600000Y39800000D01*
X32800000Y39800000D02*
X33800000Y39800000D01*
X36200000Y39800000D02*
X42800000Y39800000D01*
X43600000Y39800000D02*
X49600000Y39800000D01*
X50800000Y39800000D02*
X51800000Y39800000D01*
X54200000Y39800000D02*
X64800000Y39800000D01*
X66400000Y39800000D02*
X69600000Y39800000D01*
X71200000Y39800000D02*
X95800000Y39800000D01*
X97400000Y39800000D02*
X103200000Y39800000D01*
X105800000Y39800000D02*
X108200000Y39800000D01*
X110800000Y39800000D02*
X127400000Y39800000D01*
X600000Y39600000D02*
X10000000Y39600000D01*
X11600000Y39600000D02*
X13000000Y39600000D01*
X14800000Y39600000D02*
X15600000Y39600000D01*
X18400000Y39600000D02*
X31600000Y39600000D01*
X32800000Y39600000D02*
X33600000Y39600000D01*
X36400000Y39600000D02*
X49600000Y39600000D01*
X50800000Y39600000D02*
X51600000Y39600000D01*
X54400000Y39600000D02*
X64600000Y39600000D01*
X66200000Y39600000D02*
X69400000Y39600000D01*
X71000000Y39600000D02*
X95800000Y39600000D01*
X97400000Y39600000D02*
X103200000Y39600000D01*
X105800000Y39600000D02*
X108200000Y39600000D01*
X110800000Y39600000D02*
X127400000Y39600000D01*
X600000Y39400000D02*
X9800000Y39400000D01*
X11400000Y39400000D02*
X13000000Y39400000D01*
X14800000Y39400000D02*
X15400000Y39400000D01*
X18600000Y39400000D02*
X24800000Y39400000D01*
X26000000Y39400000D02*
X31600000Y39400000D01*
X32800000Y39400000D02*
X33400000Y39400000D01*
X36600000Y39400000D02*
X42600000Y39400000D01*
X43800000Y39400000D02*
X49600000Y39400000D01*
X50800000Y39400000D02*
X51400000Y39400000D01*
X54600000Y39400000D02*
X64400000Y39400000D01*
X66000000Y39400000D02*
X69200000Y39400000D01*
X70800000Y39400000D02*
X95800000Y39400000D01*
X97600000Y39400000D02*
X103200000Y39400000D01*
X105800000Y39400000D02*
X108200000Y39400000D01*
X110800000Y39400000D02*
X127400000Y39400000D01*
X600000Y39200000D02*
X9800000Y39200000D01*
X12200000Y39200000D02*
X13000000Y39200000D01*
X14800000Y39200000D02*
X15200000Y39200000D01*
X18800000Y39200000D02*
X21800000Y39200000D01*
X23200000Y39200000D02*
X24600000Y39200000D01*
X26400000Y39200000D02*
X28800000Y39200000D01*
X30200000Y39200000D02*
X31600000Y39200000D01*
X32800000Y39200000D02*
X33200000Y39200000D01*
X36800000Y39200000D02*
X39800000Y39200000D01*
X41200000Y39200000D02*
X42400000Y39200000D01*
X44200000Y39200000D02*
X46800000Y39200000D01*
X48200000Y39200000D02*
X49600000Y39200000D01*
X50800000Y39200000D02*
X51200000Y39200000D01*
X54800000Y39200000D02*
X57800000Y39200000D01*
X59200000Y39200000D02*
X64200000Y39200000D01*
X65800000Y39200000D02*
X69000000Y39200000D01*
X70600000Y39200000D02*
X96000000Y39200000D01*
X97800000Y39200000D02*
X103200000Y39200000D01*
X105800000Y39200000D02*
X108200000Y39200000D01*
X110800000Y39200000D02*
X127400000Y39200000D01*
X600000Y39000000D02*
X9600000Y39000000D01*
X12600000Y39000000D02*
X13000000Y39000000D01*
X14800000Y39000000D02*
X15000000Y39000000D01*
X19000000Y39000000D02*
X21400000Y39000000D01*
X23600000Y39000000D02*
X24400000Y39000000D01*
X26600000Y39000000D02*
X28400000Y39000000D01*
X30600000Y39000000D02*
X31600000Y39000000D01*
X32800000Y39000000D02*
X33000000Y39000000D01*
X37000000Y39000000D02*
X39400000Y39000000D01*
X41600000Y39000000D02*
X42200000Y39000000D01*
X44200000Y39000000D02*
X46400000Y39000000D01*
X48600000Y39000000D02*
X49600000Y39000000D01*
X50800000Y39000000D02*
X51000000Y39000000D01*
X55000000Y39000000D02*
X57400000Y39000000D01*
X59600000Y39000000D02*
X64000000Y39000000D01*
X65600000Y39000000D02*
X68800000Y39000000D01*
X70400000Y39000000D02*
X96200000Y39000000D01*
X98000000Y39000000D02*
X103200000Y39000000D01*
X105800000Y39000000D02*
X108200000Y39000000D01*
X110800000Y39000000D02*
X127400000Y39000000D01*
X600000Y38800000D02*
X9600000Y38800000D01*
X12600000Y38800000D02*
X12800000Y38800000D01*
X14800000Y38800000D02*
X15000000Y38800000D01*
X19000000Y38800000D02*
X21400000Y38800000D01*
X23600000Y38800000D02*
X24200000Y38800000D01*
X26600000Y38800000D02*
X28400000Y38800000D01*
X30600000Y38800000D02*
X31600000Y38800000D01*
X32800000Y38800000D02*
X33000000Y38800000D01*
X37000000Y38800000D02*
X39400000Y38800000D01*
X41600000Y38800000D02*
X42000000Y38800000D01*
X44400000Y38800000D02*
X46400000Y38800000D01*
X48600000Y38800000D02*
X49600000Y38800000D01*
X50800000Y38800000D02*
X51000000Y38800000D01*
X55000000Y38800000D02*
X57400000Y38800000D01*
X59600000Y38800000D02*
X63800000Y38800000D01*
X65400000Y38800000D02*
X68600000Y38800000D01*
X70200000Y38800000D02*
X96600000Y38800000D01*
X98200000Y38800000D02*
X103400000Y38800000D01*
X105600000Y38800000D02*
X108400000Y38800000D01*
X110800000Y38800000D02*
X127400000Y38800000D01*
X600000Y38600000D02*
X9400000Y38600000D01*
X12800000Y38600000D02*
X12800000Y38600000D01*
X14800000Y38600000D02*
X14800000Y38600000D01*
X19200000Y38600000D02*
X21200000Y38600000D01*
X23800000Y38600000D02*
X24200000Y38600000D01*
X26600000Y38600000D02*
X28200000Y38600000D01*
X30800000Y38600000D02*
X31600000Y38600000D01*
X32800000Y38600000D02*
X32800000Y38600000D01*
X37200000Y38600000D02*
X39200000Y38600000D01*
X41800000Y38600000D02*
X42000000Y38600000D01*
X44400000Y38600000D02*
X46200000Y38600000D01*
X48800000Y38600000D02*
X49600000Y38600000D01*
X50800000Y38600000D02*
X50800000Y38600000D01*
X55200000Y38600000D02*
X57200000Y38600000D01*
X59800000Y38600000D02*
X63600000Y38600000D01*
X65200000Y38600000D02*
X68400000Y38600000D01*
X70000000Y38600000D02*
X96800000Y38600000D01*
X98400000Y38600000D02*
X103600000Y38600000D01*
X105400000Y38600000D02*
X108600000Y38600000D01*
X111000000Y38600000D02*
X127400000Y38600000D01*
X600000Y38400000D02*
X9400000Y38400000D01*
X12800000Y38400000D02*
X12800000Y38400000D01*
X14800000Y38400000D02*
X14800000Y38400000D01*
X19200000Y38400000D02*
X21200000Y38400000D01*
X23800000Y38400000D02*
X24200000Y38400000D01*
X26600000Y38400000D02*
X28200000Y38400000D01*
X30800000Y38400000D02*
X31600000Y38400000D01*
X32800000Y38400000D02*
X32800000Y38400000D01*
X37200000Y38400000D02*
X39200000Y38400000D01*
X41800000Y38400000D02*
X42000000Y38400000D01*
X44400000Y38400000D02*
X46200000Y38400000D01*
X48800000Y38400000D02*
X49600000Y38400000D01*
X50800000Y38400000D02*
X50800000Y38400000D01*
X55200000Y38400000D02*
X57200000Y38400000D01*
X59800000Y38400000D02*
X63400000Y38400000D01*
X65000000Y38400000D02*
X68200000Y38400000D01*
X69800000Y38400000D02*
X97000000Y38400000D01*
X98600000Y38400000D02*
X103800000Y38400000D01*
X105200000Y38400000D02*
X108800000Y38400000D01*
X111200000Y38400000D02*
X127400000Y38400000D01*
X600000Y38200000D02*
X9400000Y38200000D01*
X13000000Y38200000D02*
X13000000Y38200000D01*
X14800000Y38200000D02*
X14800000Y38200000D01*
X19200000Y38200000D02*
X21000000Y38200000D01*
X24000000Y38200000D02*
X24200000Y38200000D01*
X26600000Y38200000D02*
X28000000Y38200000D01*
X31000000Y38200000D02*
X31600000Y38200000D01*
X32800000Y38200000D02*
X32800000Y38200000D01*
X37200000Y38200000D02*
X39000000Y38200000D01*
X42000000Y38200000D02*
X42000000Y38200000D01*
X44400000Y38200000D02*
X46000000Y38200000D01*
X49000000Y38200000D02*
X49600000Y38200000D01*
X50800000Y38200000D02*
X50800000Y38200000D01*
X55200000Y38200000D02*
X57000000Y38200000D01*
X60000000Y38200000D02*
X63200000Y38200000D01*
X64800000Y38200000D02*
X68000000Y38200000D01*
X69600000Y38200000D02*
X97200000Y38200000D01*
X98800000Y38200000D02*
X109800000Y38200000D01*
X111400000Y38200000D02*
X127400000Y38200000D01*
X600000Y38000000D02*
X9400000Y38000000D01*
X13000000Y38000000D02*
X13200000Y38000000D01*
X14800000Y38000000D02*
X14800000Y38000000D01*
X19200000Y38000000D02*
X21000000Y38000000D01*
X24000000Y38000000D02*
X24200000Y38000000D01*
X26600000Y38000000D02*
X28000000Y38000000D01*
X31000000Y38000000D02*
X31600000Y38000000D01*
X32800000Y38000000D02*
X32800000Y38000000D01*
X37200000Y38000000D02*
X39000000Y38000000D01*
X42000000Y38000000D02*
X42000000Y38000000D01*
X44400000Y38000000D02*
X46000000Y38000000D01*
X49000000Y38000000D02*
X49600000Y38000000D01*
X50800000Y38000000D02*
X50800000Y38000000D01*
X55200000Y38000000D02*
X57000000Y38000000D01*
X60000000Y38000000D02*
X63000000Y38000000D01*
X64600000Y38000000D02*
X67800000Y38000000D01*
X69400000Y38000000D02*
X97400000Y38000000D01*
X99000000Y38000000D02*
X110000000Y38000000D01*
X111600000Y38000000D02*
X127400000Y38000000D01*
X600000Y37800000D02*
X9400000Y37800000D01*
X13000000Y37800000D02*
X13600000Y37800000D01*
X14800000Y37800000D02*
X14800000Y37800000D01*
X19200000Y37800000D02*
X21000000Y37800000D01*
X24000000Y37800000D02*
X24400000Y37800000D01*
X26600000Y37800000D02*
X28000000Y37800000D01*
X31000000Y37800000D02*
X31600000Y37800000D01*
X32800000Y37800000D02*
X32800000Y37800000D01*
X37200000Y37800000D02*
X39000000Y37800000D01*
X42000000Y37800000D02*
X42200000Y37800000D01*
X44400000Y37800000D02*
X46000000Y37800000D01*
X49000000Y37800000D02*
X49600000Y37800000D01*
X50800000Y37800000D02*
X50800000Y37800000D01*
X55200000Y37800000D02*
X57000000Y37800000D01*
X60000000Y37800000D02*
X62800000Y37800000D01*
X64400000Y37800000D02*
X67600000Y37800000D01*
X69200000Y37800000D02*
X97600000Y37800000D01*
X99200000Y37800000D02*
X110200000Y37800000D01*
X111800000Y37800000D02*
X127400000Y37800000D01*
X600000Y37600000D02*
X9400000Y37600000D01*
X12800000Y37600000D02*
X13600000Y37600000D01*
X14800000Y37600000D02*
X14800000Y37600000D01*
X19200000Y37600000D02*
X21200000Y37600000D01*
X23800000Y37600000D02*
X24400000Y37600000D01*
X26400000Y37600000D02*
X28200000Y37600000D01*
X30800000Y37600000D02*
X31600000Y37600000D01*
X32800000Y37600000D02*
X32800000Y37600000D01*
X37200000Y37600000D02*
X39200000Y37600000D01*
X41800000Y37600000D02*
X42200000Y37600000D01*
X44200000Y37600000D02*
X46200000Y37600000D01*
X48800000Y37600000D02*
X49600000Y37600000D01*
X50800000Y37600000D02*
X50800000Y37600000D01*
X55200000Y37600000D02*
X57200000Y37600000D01*
X59800000Y37600000D02*
X62600000Y37600000D01*
X64200000Y37600000D02*
X67400000Y37600000D01*
X69000000Y37600000D02*
X97800000Y37600000D01*
X99400000Y37600000D02*
X110400000Y37600000D01*
X112000000Y37600000D02*
X127400000Y37600000D01*
X600000Y37400000D02*
X9400000Y37400000D01*
X12800000Y37400000D02*
X13600000Y37400000D01*
X14800000Y37400000D02*
X14800000Y37400000D01*
X19200000Y37400000D02*
X21200000Y37400000D01*
X23800000Y37400000D02*
X24800000Y37400000D01*
X26200000Y37400000D02*
X28200000Y37400000D01*
X30800000Y37400000D02*
X31600000Y37400000D01*
X32800000Y37400000D02*
X32800000Y37400000D01*
X37200000Y37400000D02*
X39200000Y37400000D01*
X41800000Y37400000D02*
X42600000Y37400000D01*
X44000000Y37400000D02*
X46200000Y37400000D01*
X48800000Y37400000D02*
X49600000Y37400000D01*
X50800000Y37400000D02*
X50800000Y37400000D01*
X55200000Y37400000D02*
X57200000Y37400000D01*
X59800000Y37400000D02*
X62400000Y37400000D01*
X64000000Y37400000D02*
X67200000Y37400000D01*
X68800000Y37400000D02*
X98000000Y37400000D01*
X99600000Y37400000D02*
X110600000Y37400000D01*
X112200000Y37400000D02*
X127400000Y37400000D01*
X600000Y37200000D02*
X9400000Y37200000D01*
X12600000Y37200000D02*
X13600000Y37200000D01*
X14800000Y37200000D02*
X15000000Y37200000D01*
X19000000Y37200000D02*
X21400000Y37200000D01*
X23600000Y37200000D02*
X28400000Y37200000D01*
X30600000Y37200000D02*
X31600000Y37200000D01*
X32800000Y37200000D02*
X33000000Y37200000D01*
X37000000Y37200000D02*
X39400000Y37200000D01*
X41600000Y37200000D02*
X46400000Y37200000D01*
X48600000Y37200000D02*
X49600000Y37200000D01*
X50800000Y37200000D02*
X51000000Y37200000D01*
X55000000Y37200000D02*
X57400000Y37200000D01*
X59600000Y37200000D02*
X62200000Y37200000D01*
X63800000Y37200000D02*
X67000000Y37200000D01*
X68600000Y37200000D02*
X98200000Y37200000D01*
X99800000Y37200000D02*
X110800000Y37200000D01*
X112400000Y37200000D02*
X127400000Y37200000D01*
X600000Y37000000D02*
X9400000Y37000000D01*
X12600000Y37000000D02*
X13600000Y37000000D01*
X14800000Y37000000D02*
X15000000Y37000000D01*
X19000000Y37000000D02*
X21400000Y37000000D01*
X23600000Y37000000D02*
X28400000Y37000000D01*
X30600000Y37000000D02*
X31600000Y37000000D01*
X32800000Y37000000D02*
X33000000Y37000000D01*
X37000000Y37000000D02*
X39400000Y37000000D01*
X41600000Y37000000D02*
X46400000Y37000000D01*
X48600000Y37000000D02*
X49600000Y37000000D01*
X50800000Y37000000D02*
X51000000Y37000000D01*
X55000000Y37000000D02*
X57400000Y37000000D01*
X59600000Y37000000D02*
X62000000Y37000000D01*
X63600000Y37000000D02*
X66800000Y37000000D01*
X68400000Y37000000D02*
X98400000Y37000000D01*
X100000000Y37000000D02*
X111000000Y37000000D01*
X112600000Y37000000D02*
X127400000Y37000000D01*
X600000Y36800000D02*
X9400000Y36800000D01*
X10600000Y36800000D02*
X10800000Y36800000D01*
X12200000Y36800000D02*
X13600000Y36800000D01*
X14800000Y36800000D02*
X15200000Y36800000D01*
X18800000Y36800000D02*
X21800000Y36800000D01*
X23200000Y36800000D02*
X28800000Y36800000D01*
X30200000Y36800000D02*
X31600000Y36800000D01*
X32800000Y36800000D02*
X33200000Y36800000D01*
X36800000Y36800000D02*
X39800000Y36800000D01*
X41200000Y36800000D02*
X46800000Y36800000D01*
X48200000Y36800000D02*
X49600000Y36800000D01*
X50800000Y36800000D02*
X51200000Y36800000D01*
X54800000Y36800000D02*
X57800000Y36800000D01*
X59200000Y36800000D02*
X61800000Y36800000D01*
X63400000Y36800000D02*
X66600000Y36800000D01*
X68200000Y36800000D02*
X98600000Y36800000D01*
X100200000Y36800000D02*
X111200000Y36800000D01*
X112800000Y36800000D02*
X127400000Y36800000D01*
X600000Y36600000D02*
X9400000Y36600000D01*
X10600000Y36600000D02*
X13600000Y36600000D01*
X14800000Y36600000D02*
X15400000Y36600000D01*
X18600000Y36600000D02*
X31600000Y36600000D01*
X32800000Y36600000D02*
X33400000Y36600000D01*
X36600000Y36600000D02*
X49600000Y36600000D01*
X50800000Y36600000D02*
X51400000Y36600000D01*
X54600000Y36600000D02*
X61600000Y36600000D01*
X63200000Y36600000D02*
X66400000Y36600000D01*
X68000000Y36600000D02*
X98800000Y36600000D01*
X100400000Y36600000D02*
X111400000Y36600000D01*
X113000000Y36600000D02*
X127400000Y36600000D01*
X600000Y36400000D02*
X9400000Y36400000D01*
X10600000Y36400000D02*
X13600000Y36400000D01*
X14800000Y36400000D02*
X15600000Y36400000D01*
X18400000Y36400000D02*
X31600000Y36400000D01*
X32800000Y36400000D02*
X33600000Y36400000D01*
X36400000Y36400000D02*
X49600000Y36400000D01*
X50800000Y36400000D02*
X51600000Y36400000D01*
X54400000Y36400000D02*
X61400000Y36400000D01*
X63000000Y36400000D02*
X66200000Y36400000D01*
X67800000Y36400000D02*
X99000000Y36400000D01*
X100600000Y36400000D02*
X111600000Y36400000D01*
X113200000Y36400000D02*
X127400000Y36400000D01*
X600000Y36200000D02*
X9400000Y36200000D01*
X10600000Y36200000D02*
X13600000Y36200000D01*
X14800000Y36200000D02*
X15800000Y36200000D01*
X18200000Y36200000D02*
X31600000Y36200000D01*
X32800000Y36200000D02*
X33800000Y36200000D01*
X36200000Y36200000D02*
X49600000Y36200000D01*
X50800000Y36200000D02*
X51800000Y36200000D01*
X54200000Y36200000D02*
X61200000Y36200000D01*
X62800000Y36200000D02*
X66000000Y36200000D01*
X67600000Y36200000D02*
X99200000Y36200000D01*
X100800000Y36200000D02*
X111800000Y36200000D01*
X113200000Y36200000D02*
X127400000Y36200000D01*
X600000Y36000000D02*
X9400000Y36000000D01*
X10600000Y36000000D02*
X13600000Y36000000D01*
X14800000Y36000000D02*
X16200000Y36000000D01*
X17800000Y36000000D02*
X21400000Y36000000D01*
X22600000Y36000000D02*
X31600000Y36000000D01*
X32800000Y36000000D02*
X34200000Y36000000D01*
X35800000Y36000000D02*
X39400000Y36000000D01*
X40600000Y36000000D02*
X49600000Y36000000D01*
X50800000Y36000000D02*
X52200000Y36000000D01*
X53800000Y36000000D02*
X57400000Y36000000D01*
X58600000Y36000000D02*
X61000000Y36000000D01*
X62600000Y36000000D02*
X65800000Y36000000D01*
X67400000Y36000000D02*
X99400000Y36000000D01*
X101000000Y36000000D02*
X112000000Y36000000D01*
X113200000Y36000000D02*
X127400000Y36000000D01*
X600000Y35800000D02*
X9400000Y35800000D01*
X10600000Y35800000D02*
X13600000Y35800000D01*
X14800000Y35800000D02*
X21000000Y35800000D01*
X23000000Y35800000D02*
X31600000Y35800000D01*
X32800000Y35800000D02*
X39000000Y35800000D01*
X41000000Y35800000D02*
X49600000Y35800000D01*
X50800000Y35800000D02*
X57000000Y35800000D01*
X59000000Y35800000D02*
X60800000Y35800000D01*
X62400000Y35800000D02*
X65600000Y35800000D01*
X67200000Y35800000D02*
X99600000Y35800000D01*
X101200000Y35800000D02*
X112000000Y35800000D01*
X113200000Y35800000D02*
X127400000Y35800000D01*
X600000Y35600000D02*
X9400000Y35600000D01*
X10600000Y35600000D02*
X13600000Y35600000D01*
X15000000Y35600000D02*
X20600000Y35600000D01*
X23400000Y35600000D02*
X31600000Y35600000D01*
X33000000Y35600000D02*
X38600000Y35600000D01*
X41400000Y35600000D02*
X49600000Y35600000D01*
X51000000Y35600000D02*
X56600000Y35600000D01*
X59400000Y35600000D02*
X60600000Y35600000D01*
X62200000Y35600000D02*
X65400000Y35600000D01*
X67000000Y35600000D02*
X99800000Y35600000D01*
X101400000Y35600000D02*
X112000000Y35600000D01*
X113200000Y35600000D02*
X127400000Y35600000D01*
X600000Y35400000D02*
X9400000Y35400000D01*
X10600000Y35400000D02*
X13600000Y35400000D01*
X15200000Y35400000D02*
X20400000Y35400000D01*
X23600000Y35400000D02*
X31600000Y35400000D01*
X33200000Y35400000D02*
X38400000Y35400000D01*
X41600000Y35400000D02*
X49600000Y35400000D01*
X51200000Y35400000D02*
X56400000Y35400000D01*
X59600000Y35400000D02*
X60400000Y35400000D01*
X62000000Y35400000D02*
X65200000Y35400000D01*
X66800000Y35400000D02*
X100000000Y35400000D01*
X101600000Y35400000D02*
X112000000Y35400000D01*
X113200000Y35400000D02*
X127400000Y35400000D01*
X600000Y35200000D02*
X9400000Y35200000D01*
X10600000Y35200000D02*
X13800000Y35200000D01*
X15400000Y35200000D02*
X20400000Y35200000D01*
X23600000Y35200000D02*
X31800000Y35200000D01*
X33400000Y35200000D02*
X38400000Y35200000D01*
X41600000Y35200000D02*
X49800000Y35200000D01*
X51400000Y35200000D02*
X56400000Y35200000D01*
X59600000Y35200000D02*
X60200000Y35200000D01*
X61800000Y35200000D02*
X65000000Y35200000D01*
X66600000Y35200000D02*
X100200000Y35200000D01*
X101800000Y35200000D02*
X111800000Y35200000D01*
X113400000Y35200000D02*
X127400000Y35200000D01*
X600000Y35000000D02*
X9400000Y35000000D01*
X10600000Y35000000D02*
X14000000Y35000000D01*
X15600000Y35000000D02*
X20200000Y35000000D01*
X23800000Y35000000D02*
X32000000Y35000000D01*
X33600000Y35000000D02*
X38200000Y35000000D01*
X41800000Y35000000D02*
X50000000Y35000000D01*
X51600000Y35000000D02*
X56200000Y35000000D01*
X59800000Y35000000D02*
X60000000Y35000000D01*
X61600000Y35000000D02*
X64800000Y35000000D01*
X66400000Y35000000D02*
X100400000Y35000000D01*
X102000000Y35000000D02*
X111800000Y35000000D01*
X113400000Y35000000D02*
X127400000Y35000000D01*
X600000Y34800000D02*
X9400000Y34800000D01*
X10600000Y34800000D02*
X14200000Y34800000D01*
X15800000Y34800000D02*
X20200000Y34800000D01*
X23800000Y34800000D02*
X32200000Y34800000D01*
X33800000Y34800000D02*
X38200000Y34800000D01*
X41800000Y34800000D02*
X50200000Y34800000D01*
X51800000Y34800000D02*
X56200000Y34800000D01*
X59800000Y34800000D02*
X59800000Y34800000D01*
X61400000Y34800000D02*
X64600000Y34800000D01*
X66200000Y34800000D02*
X100600000Y34800000D01*
X102200000Y34800000D02*
X111800000Y34800000D01*
X113400000Y34800000D02*
X127400000Y34800000D01*
X600000Y34600000D02*
X9400000Y34600000D01*
X10600000Y34600000D02*
X14400000Y34600000D01*
X16000000Y34600000D02*
X20000000Y34600000D01*
X24000000Y34600000D02*
X32400000Y34600000D01*
X34000000Y34600000D02*
X38000000Y34600000D01*
X42000000Y34600000D02*
X50400000Y34600000D01*
X52000000Y34600000D02*
X56000000Y34600000D01*
X61200000Y34600000D02*
X64400000Y34600000D01*
X66000000Y34600000D02*
X100800000Y34600000D01*
X102400000Y34600000D02*
X112000000Y34600000D01*
X113200000Y34600000D02*
X127400000Y34600000D01*
X600000Y34400000D02*
X9400000Y34400000D01*
X10600000Y34400000D02*
X14600000Y34400000D01*
X16200000Y34400000D02*
X20000000Y34400000D01*
X24000000Y34400000D02*
X32600000Y34400000D01*
X34200000Y34400000D02*
X38000000Y34400000D01*
X42000000Y34400000D02*
X50600000Y34400000D01*
X52200000Y34400000D02*
X56000000Y34400000D01*
X61000000Y34400000D02*
X64200000Y34400000D01*
X65800000Y34400000D02*
X101000000Y34400000D01*
X102600000Y34400000D02*
X112200000Y34400000D01*
X113000000Y34400000D02*
X127400000Y34400000D01*
X600000Y34200000D02*
X9400000Y34200000D01*
X10600000Y34200000D02*
X14800000Y34200000D01*
X16400000Y34200000D02*
X20000000Y34200000D01*
X24000000Y34200000D02*
X32800000Y34200000D01*
X34400000Y34200000D02*
X38000000Y34200000D01*
X42000000Y34200000D02*
X50800000Y34200000D01*
X52400000Y34200000D02*
X56000000Y34200000D01*
X60800000Y34200000D02*
X64000000Y34200000D01*
X65600000Y34200000D02*
X101200000Y34200000D01*
X102800000Y34200000D02*
X127400000Y34200000D01*
X600000Y34000000D02*
X9400000Y34000000D01*
X10600000Y34000000D02*
X15000000Y34000000D01*
X16600000Y34000000D02*
X20000000Y34000000D01*
X24000000Y34000000D02*
X33000000Y34000000D01*
X34600000Y34000000D02*
X38000000Y34000000D01*
X42000000Y34000000D02*
X51000000Y34000000D01*
X52600000Y34000000D02*
X56000000Y34000000D01*
X60600000Y34000000D02*
X63800000Y34000000D01*
X65400000Y34000000D02*
X101400000Y34000000D01*
X103000000Y34000000D02*
X127400000Y34000000D01*
X600000Y33800000D02*
X9400000Y33800000D01*
X10600000Y33800000D02*
X15200000Y33800000D01*
X17800000Y33800000D02*
X20000000Y33800000D01*
X24000000Y33800000D02*
X33200000Y33800000D01*
X35800000Y33800000D02*
X38000000Y33800000D01*
X42000000Y33800000D02*
X51200000Y33800000D01*
X53800000Y33800000D02*
X56000000Y33800000D01*
X60600000Y33800000D02*
X63600000Y33800000D01*
X65200000Y33800000D02*
X101600000Y33800000D01*
X103200000Y33800000D02*
X127400000Y33800000D01*
X600000Y33600000D02*
X9400000Y33600000D01*
X10600000Y33600000D02*
X15400000Y33600000D01*
X18200000Y33600000D02*
X20200000Y33600000D01*
X23800000Y33600000D02*
X33400000Y33600000D01*
X36200000Y33600000D02*
X38200000Y33600000D01*
X41800000Y33600000D02*
X51400000Y33600000D01*
X54200000Y33600000D02*
X56200000Y33600000D01*
X60600000Y33600000D02*
X63400000Y33600000D01*
X65000000Y33600000D02*
X101800000Y33600000D01*
X103400000Y33600000D02*
X127400000Y33600000D01*
X600000Y33400000D02*
X9400000Y33400000D01*
X10600000Y33400000D02*
X15600000Y33400000D01*
X18400000Y33400000D02*
X20200000Y33400000D01*
X23800000Y33400000D02*
X33600000Y33400000D01*
X36400000Y33400000D02*
X38200000Y33400000D01*
X41800000Y33400000D02*
X51600000Y33400000D01*
X54400000Y33400000D02*
X56200000Y33400000D01*
X60600000Y33400000D02*
X63200000Y33400000D01*
X64800000Y33400000D02*
X102000000Y33400000D01*
X103600000Y33400000D02*
X127400000Y33400000D01*
X600000Y33200000D02*
X9400000Y33200000D01*
X10600000Y33200000D02*
X15400000Y33200000D01*
X18600000Y33200000D02*
X20400000Y33200000D01*
X23600000Y33200000D02*
X33400000Y33200000D01*
X36600000Y33200000D02*
X38400000Y33200000D01*
X41600000Y33200000D02*
X51400000Y33200000D01*
X54600000Y33200000D02*
X56400000Y33200000D01*
X60400000Y33200000D02*
X63000000Y33200000D01*
X64600000Y33200000D02*
X102200000Y33200000D01*
X103800000Y33200000D02*
X127400000Y33200000D01*
X600000Y33000000D02*
X9400000Y33000000D01*
X10600000Y33000000D02*
X15200000Y33000000D01*
X18800000Y33000000D02*
X20400000Y33000000D01*
X23600000Y33000000D02*
X33200000Y33000000D01*
X36800000Y33000000D02*
X38400000Y33000000D01*
X41600000Y33000000D02*
X51200000Y33000000D01*
X54800000Y33000000D02*
X56400000Y33000000D01*
X60400000Y33000000D02*
X62800000Y33000000D01*
X64400000Y33000000D02*
X102400000Y33000000D01*
X104000000Y33000000D02*
X127400000Y33000000D01*
X600000Y32800000D02*
X9400000Y32800000D01*
X10600000Y32800000D02*
X15200000Y32800000D01*
X18800000Y32800000D02*
X20600000Y32800000D01*
X23400000Y32800000D02*
X33200000Y32800000D01*
X36800000Y32800000D02*
X38600000Y32800000D01*
X41400000Y32800000D02*
X51200000Y32800000D01*
X54800000Y32800000D02*
X56600000Y32800000D01*
X60200000Y32800000D02*
X62600000Y32800000D01*
X64200000Y32800000D02*
X102600000Y32800000D01*
X104200000Y32800000D02*
X127400000Y32800000D01*
X600000Y32600000D02*
X9400000Y32600000D01*
X10600000Y32600000D02*
X15200000Y32600000D01*
X18800000Y32600000D02*
X21000000Y32600000D01*
X23000000Y32600000D02*
X33200000Y32600000D01*
X36800000Y32600000D02*
X39000000Y32600000D01*
X41000000Y32600000D02*
X51200000Y32600000D01*
X54800000Y32600000D02*
X55600000Y32600000D01*
X60200000Y32600000D02*
X62400000Y32600000D01*
X64000000Y32600000D02*
X102800000Y32600000D01*
X104400000Y32600000D02*
X127400000Y32600000D01*
X600000Y32400000D02*
X9400000Y32400000D01*
X10600000Y32400000D02*
X15000000Y32400000D01*
X19000000Y32400000D02*
X21400000Y32400000D01*
X22600000Y32400000D02*
X33000000Y32400000D01*
X37000000Y32400000D02*
X39400000Y32400000D01*
X40600000Y32400000D02*
X51000000Y32400000D01*
X55000000Y32400000D02*
X55400000Y32400000D01*
X60000000Y32400000D02*
X62200000Y32400000D01*
X63800000Y32400000D02*
X103000000Y32400000D01*
X104600000Y32400000D02*
X127400000Y32400000D01*
X600000Y32200000D02*
X9400000Y32200000D01*
X10600000Y32200000D02*
X15000000Y32200000D01*
X19000000Y32200000D02*
X33000000Y32200000D01*
X37000000Y32200000D02*
X51000000Y32200000D01*
X55000000Y32200000D02*
X55200000Y32200000D01*
X59800000Y32200000D02*
X62000000Y32200000D01*
X63600000Y32200000D02*
X103200000Y32200000D01*
X104800000Y32200000D02*
X127400000Y32200000D01*
X600000Y32000000D02*
X9400000Y32000000D01*
X10600000Y32000000D02*
X15000000Y32000000D01*
X19000000Y32000000D02*
X33000000Y32000000D01*
X37000000Y32000000D02*
X51000000Y32000000D01*
X55000000Y32000000D02*
X55000000Y32000000D01*
X59400000Y32000000D02*
X61800000Y32000000D01*
X63400000Y32000000D02*
X103400000Y32000000D01*
X105000000Y32000000D02*
X127400000Y32000000D01*
X600000Y31800000D02*
X9400000Y31800000D01*
X10600000Y31800000D02*
X15000000Y31800000D01*
X19000000Y31800000D02*
X33000000Y31800000D01*
X37000000Y31800000D02*
X51000000Y31800000D01*
X59000000Y31800000D02*
X61600000Y31800000D01*
X63200000Y31800000D02*
X103600000Y31800000D01*
X105200000Y31800000D02*
X127400000Y31800000D01*
X600000Y31600000D02*
X9400000Y31600000D01*
X10600000Y31600000D02*
X15200000Y31600000D01*
X18800000Y31600000D02*
X33200000Y31600000D01*
X36800000Y31600000D02*
X51200000Y31600000D01*
X56200000Y31600000D02*
X61400000Y31600000D01*
X63000000Y31600000D02*
X103800000Y31600000D01*
X105400000Y31600000D02*
X127400000Y31600000D01*
X600000Y31400000D02*
X9400000Y31400000D01*
X10600000Y31400000D02*
X15200000Y31400000D01*
X18800000Y31400000D02*
X33200000Y31400000D01*
X36800000Y31400000D02*
X51200000Y31400000D01*
X56000000Y31400000D02*
X61200000Y31400000D01*
X62800000Y31400000D02*
X104000000Y31400000D01*
X105600000Y31400000D02*
X127400000Y31400000D01*
X600000Y31200000D02*
X9400000Y31200000D01*
X10600000Y31200000D02*
X15200000Y31200000D01*
X18800000Y31200000D02*
X33200000Y31200000D01*
X36800000Y31200000D02*
X51200000Y31200000D01*
X55800000Y31200000D02*
X61000000Y31200000D01*
X62600000Y31200000D02*
X104200000Y31200000D01*
X105800000Y31200000D02*
X127400000Y31200000D01*
X600000Y31000000D02*
X9400000Y31000000D01*
X10600000Y31000000D02*
X15400000Y31000000D01*
X18600000Y31000000D02*
X33400000Y31000000D01*
X36600000Y31000000D02*
X51400000Y31000000D01*
X55600000Y31000000D02*
X60800000Y31000000D01*
X62400000Y31000000D02*
X104400000Y31000000D01*
X106000000Y31000000D02*
X127400000Y31000000D01*
X600000Y30800000D02*
X9400000Y30800000D01*
X10600000Y30800000D02*
X15600000Y30800000D01*
X18400000Y30800000D02*
X33600000Y30800000D01*
X36400000Y30800000D02*
X51600000Y30800000D01*
X55400000Y30800000D02*
X60600000Y30800000D01*
X62200000Y30800000D02*
X104600000Y30800000D01*
X106200000Y30800000D02*
X127400000Y30800000D01*
X600000Y30600000D02*
X9400000Y30600000D01*
X10600000Y30600000D02*
X15800000Y30600000D01*
X18200000Y30600000D02*
X31200000Y30600000D01*
X55200000Y30600000D02*
X60400000Y30600000D01*
X62000000Y30600000D02*
X104800000Y30600000D01*
X106400000Y30600000D02*
X127400000Y30600000D01*
X600000Y30400000D02*
X9400000Y30400000D01*
X10600000Y30400000D02*
X16200000Y30400000D01*
X17800000Y30400000D02*
X31000000Y30400000D01*
X55000000Y30400000D02*
X60200000Y30400000D01*
X61800000Y30400000D02*
X105000000Y30400000D01*
X106600000Y30400000D02*
X127400000Y30400000D01*
X600000Y30200000D02*
X9400000Y30200000D01*
X10600000Y30200000D02*
X30800000Y30200000D01*
X54800000Y30200000D02*
X60000000Y30200000D01*
X61600000Y30200000D02*
X105200000Y30200000D01*
X106800000Y30200000D02*
X127400000Y30200000D01*
X600000Y30000000D02*
X9400000Y30000000D01*
X10600000Y30000000D02*
X30600000Y30000000D01*
X54600000Y30000000D02*
X59800000Y30000000D01*
X61400000Y30000000D02*
X105400000Y30000000D01*
X107000000Y30000000D02*
X127400000Y30000000D01*
X600000Y29800000D02*
X9400000Y29800000D01*
X10600000Y29800000D02*
X30400000Y29800000D01*
X54200000Y29800000D02*
X59600000Y29800000D01*
X61200000Y29800000D02*
X105600000Y29800000D01*
X107200000Y29800000D02*
X127400000Y29800000D01*
X600000Y29600000D02*
X9400000Y29600000D01*
X10600000Y29600000D02*
X30200000Y29600000D01*
X31800000Y29600000D02*
X59400000Y29600000D01*
X61000000Y29600000D02*
X105800000Y29600000D01*
X107400000Y29600000D02*
X127400000Y29600000D01*
X600000Y29400000D02*
X9400000Y29400000D01*
X10600000Y29400000D02*
X30000000Y29400000D01*
X31600000Y29400000D02*
X59200000Y29400000D01*
X60800000Y29400000D02*
X106000000Y29400000D01*
X107600000Y29400000D02*
X127400000Y29400000D01*
X600000Y29200000D02*
X9400000Y29200000D01*
X10600000Y29200000D02*
X29800000Y29200000D01*
X31400000Y29200000D02*
X59000000Y29200000D01*
X60600000Y29200000D02*
X106200000Y29200000D01*
X107800000Y29200000D02*
X127400000Y29200000D01*
X600000Y29000000D02*
X9400000Y29000000D01*
X10600000Y29000000D02*
X29600000Y29000000D01*
X31200000Y29000000D02*
X58800000Y29000000D01*
X60400000Y29000000D02*
X106400000Y29000000D01*
X108000000Y29000000D02*
X127400000Y29000000D01*
X600000Y28800000D02*
X9400000Y28800000D01*
X10600000Y28800000D02*
X29400000Y28800000D01*
X31000000Y28800000D02*
X58600000Y28800000D01*
X60200000Y28800000D02*
X106600000Y28800000D01*
X108200000Y28800000D02*
X127400000Y28800000D01*
X600000Y28600000D02*
X9400000Y28600000D01*
X10600000Y28600000D02*
X29200000Y28600000D01*
X30800000Y28600000D02*
X58400000Y28600000D01*
X60000000Y28600000D02*
X106800000Y28600000D01*
X108400000Y28600000D02*
X127400000Y28600000D01*
X600000Y28400000D02*
X9400000Y28400000D01*
X10600000Y28400000D02*
X29000000Y28400000D01*
X30600000Y28400000D02*
X58200000Y28400000D01*
X59800000Y28400000D02*
X107000000Y28400000D01*
X108600000Y28400000D02*
X127400000Y28400000D01*
X600000Y28200000D02*
X9400000Y28200000D01*
X10600000Y28200000D02*
X28800000Y28200000D01*
X30400000Y28200000D02*
X58000000Y28200000D01*
X59600000Y28200000D02*
X107200000Y28200000D01*
X108800000Y28200000D02*
X127400000Y28200000D01*
X600000Y28000000D02*
X9400000Y28000000D01*
X10600000Y28000000D02*
X28600000Y28000000D01*
X30200000Y28000000D02*
X57800000Y28000000D01*
X59400000Y28000000D02*
X71800000Y28000000D01*
X72200000Y28000000D02*
X87800000Y28000000D01*
X88200000Y28000000D02*
X107400000Y28000000D01*
X109000000Y28000000D02*
X127400000Y28000000D01*
X600000Y27800000D02*
X9400000Y27800000D01*
X10600000Y27800000D02*
X28400000Y27800000D01*
X30000000Y27800000D02*
X57600000Y27800000D01*
X59200000Y27800000D02*
X71200000Y27800000D01*
X72800000Y27800000D02*
X87200000Y27800000D01*
X88800000Y27800000D02*
X107600000Y27800000D01*
X109200000Y27800000D02*
X127400000Y27800000D01*
X600000Y27600000D02*
X9400000Y27600000D01*
X10600000Y27600000D02*
X28200000Y27600000D01*
X29800000Y27600000D02*
X57400000Y27600000D01*
X59000000Y27600000D02*
X70800000Y27600000D01*
X73200000Y27600000D02*
X86800000Y27600000D01*
X89200000Y27600000D02*
X107800000Y27600000D01*
X109400000Y27600000D02*
X127400000Y27600000D01*
X600000Y27400000D02*
X9400000Y27400000D01*
X10600000Y27400000D02*
X28000000Y27400000D01*
X29600000Y27400000D02*
X57200000Y27400000D01*
X58800000Y27400000D02*
X70800000Y27400000D01*
X73200000Y27400000D02*
X86600000Y27400000D01*
X89200000Y27400000D02*
X108000000Y27400000D01*
X109600000Y27400000D02*
X127400000Y27400000D01*
X600000Y27200000D02*
X9400000Y27200000D01*
X10600000Y27200000D02*
X27800000Y27200000D01*
X29400000Y27200000D02*
X57000000Y27200000D01*
X58600000Y27200000D02*
X70600000Y27200000D01*
X73400000Y27200000D02*
X86600000Y27200000D01*
X89400000Y27200000D02*
X108200000Y27200000D01*
X109800000Y27200000D02*
X127400000Y27200000D01*
X600000Y27000000D02*
X9400000Y27000000D01*
X10600000Y27000000D02*
X27400000Y27000000D01*
X29200000Y27000000D02*
X56800000Y27000000D01*
X58400000Y27000000D02*
X70400000Y27000000D01*
X73600000Y27000000D02*
X86400000Y27000000D01*
X89600000Y27000000D02*
X108400000Y27000000D01*
X110000000Y27000000D02*
X127400000Y27000000D01*
X600000Y26800000D02*
X9400000Y26800000D01*
X10600000Y26800000D02*
X27200000Y26800000D01*
X29000000Y26800000D02*
X56600000Y26800000D01*
X58200000Y26800000D02*
X70400000Y26800000D01*
X73600000Y26800000D02*
X86400000Y26800000D01*
X89600000Y26800000D02*
X108600000Y26800000D01*
X110200000Y26800000D02*
X127400000Y26800000D01*
X600000Y26600000D02*
X9400000Y26600000D01*
X10600000Y26600000D02*
X27000000Y26600000D01*
X28800000Y26600000D02*
X56400000Y26600000D01*
X58000000Y26600000D02*
X70400000Y26600000D01*
X73600000Y26600000D02*
X86400000Y26600000D01*
X89600000Y26600000D02*
X108800000Y26600000D01*
X110400000Y26600000D02*
X127400000Y26600000D01*
X600000Y26400000D02*
X9400000Y26400000D01*
X10600000Y26400000D02*
X27000000Y26400000D01*
X28600000Y26400000D02*
X56200000Y26400000D01*
X57800000Y26400000D02*
X70400000Y26400000D01*
X73600000Y26400000D02*
X86400000Y26400000D01*
X89600000Y26400000D02*
X109000000Y26400000D01*
X110600000Y26400000D02*
X127400000Y26400000D01*
X600000Y26200000D02*
X9400000Y26200000D01*
X10600000Y26200000D02*
X27000000Y26200000D01*
X28600000Y26200000D02*
X56000000Y26200000D01*
X57600000Y26200000D02*
X70400000Y26200000D01*
X73600000Y26200000D02*
X86400000Y26200000D01*
X89600000Y26200000D02*
X109200000Y26200000D01*
X110800000Y26200000D02*
X127400000Y26200000D01*
X600000Y26000000D02*
X9400000Y26000000D01*
X10600000Y26000000D02*
X27200000Y26000000D01*
X28400000Y26000000D02*
X55800000Y26000000D01*
X57400000Y26000000D02*
X70400000Y26000000D01*
X73600000Y26000000D02*
X86400000Y26000000D01*
X89600000Y26000000D02*
X109400000Y26000000D01*
X111200000Y26000000D02*
X127400000Y26000000D01*
X600000Y25800000D02*
X9400000Y25800000D01*
X10600000Y25800000D02*
X27400000Y25800000D01*
X28200000Y25800000D02*
X55600000Y25800000D01*
X57200000Y25800000D02*
X70600000Y25800000D01*
X73400000Y25800000D02*
X86600000Y25800000D01*
X89400000Y25800000D02*
X109600000Y25800000D01*
X111400000Y25800000D02*
X127400000Y25800000D01*
X600000Y25600000D02*
X9400000Y25600000D01*
X10600000Y25600000D02*
X55400000Y25600000D01*
X57000000Y25600000D02*
X70800000Y25600000D01*
X73200000Y25600000D02*
X86600000Y25600000D01*
X89200000Y25600000D02*
X109800000Y25600000D01*
X111600000Y25600000D02*
X127400000Y25600000D01*
X600000Y25400000D02*
X9400000Y25400000D01*
X10600000Y25400000D02*
X55200000Y25400000D01*
X56800000Y25400000D02*
X70800000Y25400000D01*
X73200000Y25400000D02*
X86800000Y25400000D01*
X89200000Y25400000D02*
X110000000Y25400000D01*
X111600000Y25400000D02*
X127400000Y25400000D01*
X600000Y25200000D02*
X9400000Y25200000D01*
X10600000Y25200000D02*
X55000000Y25200000D01*
X56600000Y25200000D02*
X71200000Y25200000D01*
X72800000Y25200000D02*
X87200000Y25200000D01*
X88800000Y25200000D02*
X110000000Y25200000D01*
X111600000Y25200000D02*
X127400000Y25200000D01*
X600000Y25000000D02*
X9400000Y25000000D01*
X10600000Y25000000D02*
X54800000Y25000000D01*
X56400000Y25000000D02*
X71800000Y25000000D01*
X72200000Y25000000D02*
X87800000Y25000000D01*
X88200000Y25000000D02*
X110200000Y25000000D01*
X111400000Y25000000D02*
X127400000Y25000000D01*
X600000Y24800000D02*
X9400000Y24800000D01*
X10600000Y24800000D02*
X54600000Y24800000D01*
X56200000Y24800000D02*
X110400000Y24800000D01*
X111200000Y24800000D02*
X127400000Y24800000D01*
X600000Y24600000D02*
X9400000Y24600000D01*
X10600000Y24600000D02*
X54400000Y24600000D01*
X56000000Y24600000D02*
X127400000Y24600000D01*
X600000Y24400000D02*
X9400000Y24400000D01*
X10600000Y24400000D02*
X54200000Y24400000D01*
X55800000Y24400000D02*
X127400000Y24400000D01*
X600000Y24200000D02*
X9400000Y24200000D01*
X10600000Y24200000D02*
X54000000Y24200000D01*
X55600000Y24200000D02*
X127400000Y24200000D01*
X600000Y24000000D02*
X9400000Y24000000D01*
X10600000Y24000000D02*
X53800000Y24000000D01*
X55400000Y24000000D02*
X127400000Y24000000D01*
X600000Y23800000D02*
X9400000Y23800000D01*
X10600000Y23800000D02*
X53600000Y23800000D01*
X55200000Y23800000D02*
X127400000Y23800000D01*
X600000Y23600000D02*
X9400000Y23600000D01*
X10600000Y23600000D02*
X53400000Y23600000D01*
X55000000Y23600000D02*
X127400000Y23600000D01*
X600000Y23400000D02*
X9400000Y23400000D01*
X10600000Y23400000D02*
X53200000Y23400000D01*
X54800000Y23400000D02*
X127400000Y23400000D01*
X600000Y23200000D02*
X9400000Y23200000D01*
X10600000Y23200000D02*
X53000000Y23200000D01*
X54600000Y23200000D02*
X127400000Y23200000D01*
X600000Y23000000D02*
X9400000Y23000000D01*
X10600000Y23000000D02*
X52800000Y23000000D01*
X54400000Y23000000D02*
X127400000Y23000000D01*
X600000Y22800000D02*
X9400000Y22800000D01*
X10600000Y22800000D02*
X52600000Y22800000D01*
X54200000Y22800000D02*
X127400000Y22800000D01*
X600000Y22600000D02*
X9400000Y22600000D01*
X10600000Y22600000D02*
X52200000Y22600000D01*
X54000000Y22600000D02*
X127400000Y22600000D01*
X600000Y22400000D02*
X7000000Y22400000D01*
X117000000Y22400000D02*
X127400000Y22400000D01*
X600000Y22200000D02*
X7000000Y22200000D01*
X117000000Y22200000D02*
X127400000Y22200000D01*
X600000Y22000000D02*
X7000000Y22000000D01*
X117000000Y22000000D02*
X127400000Y22000000D01*
X600000Y21800000D02*
X7000000Y21800000D01*
X117000000Y21800000D02*
X127400000Y21800000D01*
X600000Y21600000D02*
X7000000Y21600000D01*
X117000000Y21600000D02*
X127400000Y21600000D01*
X600000Y21400000D02*
X7000000Y21400000D01*
X117000000Y21400000D02*
X127400000Y21400000D01*
X600000Y21200000D02*
X7000000Y21200000D01*
X117000000Y21200000D02*
X127400000Y21200000D01*
X600000Y21000000D02*
X7000000Y21000000D01*
X117000000Y21000000D02*
X127400000Y21000000D01*
X600000Y20800000D02*
X7000000Y20800000D01*
X117000000Y20800000D02*
X127400000Y20800000D01*
X600000Y20600000D02*
X7000000Y20600000D01*
X117000000Y20600000D02*
X127400000Y20600000D01*
X600000Y20400000D02*
X7000000Y20400000D01*
X117000000Y20400000D02*
X127400000Y20400000D01*
X600000Y20200000D02*
X7000000Y20200000D01*
X117000000Y20200000D02*
X127400000Y20200000D01*
X600000Y20000000D02*
X7000000Y20000000D01*
X117000000Y20000000D02*
X127400000Y20000000D01*
X600000Y19800000D02*
X7000000Y19800000D01*
X117000000Y19800000D02*
X127400000Y19800000D01*
X600000Y19600000D02*
X7000000Y19600000D01*
X117000000Y19600000D02*
X127400000Y19600000D01*
X600000Y19400000D02*
X7000000Y19400000D01*
X117000000Y19400000D02*
X127400000Y19400000D01*
X600000Y19200000D02*
X7000000Y19200000D01*
X117000000Y19200000D02*
X127400000Y19200000D01*
X600000Y19000000D02*
X7000000Y19000000D01*
X117000000Y19000000D02*
X127400000Y19000000D01*
X600000Y18800000D02*
X7000000Y18800000D01*
X117000000Y18800000D02*
X127400000Y18800000D01*
X600000Y18600000D02*
X7000000Y18600000D01*
X117000000Y18600000D02*
X127400000Y18600000D01*
X600000Y18400000D02*
X7000000Y18400000D01*
X117000000Y18400000D02*
X127400000Y18400000D01*
X600000Y18200000D02*
X7000000Y18200000D01*
X117000000Y18200000D02*
X127400000Y18200000D01*
X600000Y18000000D02*
X7000000Y18000000D01*
X117000000Y18000000D02*
X127400000Y18000000D01*
X600000Y17800000D02*
X7000000Y17800000D01*
X117000000Y17800000D02*
X127400000Y17800000D01*
X600000Y17600000D02*
X7000000Y17600000D01*
X117000000Y17600000D02*
X127400000Y17600000D01*
X600000Y17400000D02*
X7000000Y17400000D01*
X117000000Y17400000D02*
X127400000Y17400000D01*
X600000Y17200000D02*
X7000000Y17200000D01*
X117000000Y17200000D02*
X127400000Y17200000D01*
X600000Y17000000D02*
X7000000Y17000000D01*
X117000000Y17000000D02*
X127400000Y17000000D01*
X600000Y16800000D02*
X7000000Y16800000D01*
X117000000Y16800000D02*
X127400000Y16800000D01*
X600000Y16600000D02*
X7000000Y16600000D01*
X117000000Y16600000D02*
X127400000Y16600000D01*
X600000Y16400000D02*
X7000000Y16400000D01*
X117000000Y16400000D02*
X127400000Y16400000D01*
X600000Y16200000D02*
X7000000Y16200000D01*
X117000000Y16200000D02*
X127400000Y16200000D01*
X600000Y16000000D02*
X7000000Y16000000D01*
X117000000Y16000000D02*
X127400000Y16000000D01*
X600000Y15800000D02*
X7000000Y15800000D01*
X117000000Y15800000D02*
X127400000Y15800000D01*
X600000Y15600000D02*
X7000000Y15600000D01*
X117000000Y15600000D02*
X127400000Y15600000D01*
X600000Y15400000D02*
X7000000Y15400000D01*
X117000000Y15400000D02*
X127400000Y15400000D01*
X600000Y15200000D02*
X7000000Y15200000D01*
X117000000Y15200000D02*
X127400000Y15200000D01*
X600000Y15000000D02*
X7000000Y15000000D01*
X117000000Y15000000D02*
X127400000Y15000000D01*
X600000Y14800000D02*
X7000000Y14800000D01*
X117000000Y14800000D02*
X127400000Y14800000D01*
X600000Y14600000D02*
X7000000Y14600000D01*
X117000000Y14600000D02*
X127400000Y14600000D01*
X600000Y14400000D02*
X16800000Y14400000D01*
X18400000Y14400000D02*
X34400000Y14400000D01*
X36200000Y14400000D02*
X38800000Y14400000D01*
X40000000Y14400000D02*
X41600000Y14400000D01*
X45800000Y14400000D02*
X57800000Y14400000D01*
X59400000Y14400000D02*
X60600000Y14400000D01*
X61800000Y14400000D02*
X82400000Y14400000D01*
X83600000Y14400000D02*
X104200000Y14400000D01*
X105400000Y14400000D02*
X127400000Y14400000D01*
X600000Y14200000D02*
X16800000Y14200000D01*
X18600000Y14200000D02*
X34800000Y14200000D01*
X36400000Y14200000D02*
X38800000Y14200000D01*
X40000000Y14200000D02*
X41400000Y14200000D01*
X45800000Y14200000D02*
X58000000Y14200000D01*
X59600000Y14200000D02*
X60600000Y14200000D01*
X61800000Y14200000D02*
X82400000Y14200000D01*
X83600000Y14200000D02*
X104200000Y14200000D01*
X105400000Y14200000D02*
X127400000Y14200000D01*
X600000Y14000000D02*
X16800000Y14000000D01*
X18800000Y14000000D02*
X35000000Y14000000D01*
X36600000Y14000000D02*
X38800000Y14000000D01*
X40000000Y14000000D02*
X41200000Y14000000D01*
X45600000Y14000000D02*
X58200000Y14000000D01*
X59800000Y14000000D02*
X60600000Y14000000D01*
X61800000Y14000000D02*
X82400000Y14000000D01*
X83600000Y14000000D02*
X104200000Y14000000D01*
X105400000Y14000000D02*
X127400000Y14000000D01*
X600000Y13800000D02*
X16800000Y13800000D01*
X18800000Y13800000D02*
X35200000Y13800000D01*
X36800000Y13800000D02*
X38800000Y13800000D01*
X40000000Y13800000D02*
X41000000Y13800000D01*
X44600000Y13800000D02*
X44600000Y13800000D01*
X45400000Y13800000D02*
X58400000Y13800000D01*
X60000000Y13800000D02*
X60600000Y13800000D01*
X61800000Y13800000D02*
X82400000Y13800000D01*
X83600000Y13800000D02*
X104200000Y13800000D01*
X105400000Y13800000D02*
X127400000Y13800000D01*
X600000Y13600000D02*
X16800000Y13600000D01*
X18800000Y13600000D02*
X35400000Y13600000D01*
X37000000Y13600000D02*
X38800000Y13600000D01*
X40000000Y13600000D02*
X40800000Y13600000D01*
X42400000Y13600000D02*
X58600000Y13600000D01*
X60200000Y13600000D02*
X60600000Y13600000D01*
X61800000Y13600000D02*
X82400000Y13600000D01*
X83600000Y13600000D02*
X104200000Y13600000D01*
X105400000Y13600000D02*
X127400000Y13600000D01*
X600000Y13400000D02*
X16800000Y13400000D01*
X18800000Y13400000D02*
X35600000Y13400000D01*
X37200000Y13400000D02*
X38800000Y13400000D01*
X40000000Y13400000D02*
X40600000Y13400000D01*
X42200000Y13400000D02*
X58800000Y13400000D01*
X60400000Y13400000D02*
X60600000Y13400000D01*
X61800000Y13400000D02*
X82400000Y13400000D01*
X83600000Y13400000D02*
X104200000Y13400000D01*
X105400000Y13400000D02*
X127400000Y13400000D01*
X600000Y13200000D02*
X16600000Y13200000D01*
X18800000Y13200000D02*
X35800000Y13200000D01*
X37400000Y13200000D02*
X38600000Y13200000D01*
X40200000Y13200000D02*
X40400000Y13200000D01*
X42000000Y13200000D02*
X44000000Y13200000D01*
X44800000Y13200000D02*
X59000000Y13200000D01*
X62000000Y13200000D02*
X82200000Y13200000D01*
X83800000Y13200000D02*
X104000000Y13200000D01*
X105600000Y13200000D02*
X127400000Y13200000D01*
X600000Y13000000D02*
X16600000Y13000000D01*
X18800000Y13000000D02*
X36000000Y13000000D01*
X37600000Y13000000D02*
X38600000Y13000000D01*
X40200000Y13000000D02*
X40200000Y13000000D01*
X41800000Y13000000D02*
X43800000Y13000000D01*
X45000000Y13000000D02*
X59200000Y13000000D01*
X62000000Y13000000D02*
X82200000Y13000000D01*
X83800000Y13000000D02*
X104000000Y13000000D01*
X105600000Y13000000D02*
X127400000Y13000000D01*
X600000Y12800000D02*
X16600000Y12800000D01*
X18800000Y12800000D02*
X36200000Y12800000D01*
X37800000Y12800000D02*
X38600000Y12800000D01*
X41600000Y12800000D02*
X43600000Y12800000D01*
X45200000Y12800000D02*
X59400000Y12800000D01*
X62000000Y12800000D02*
X82200000Y12800000D01*
X83800000Y12800000D02*
X104000000Y12800000D01*
X105600000Y12800000D02*
X127400000Y12800000D01*
X600000Y12600000D02*
X16800000Y12600000D01*
X18800000Y12600000D02*
X36400000Y12600000D01*
X38000000Y12600000D02*
X38800000Y12600000D01*
X41400000Y12600000D02*
X43600000Y12600000D01*
X45200000Y12600000D02*
X59600000Y12600000D01*
X73800000Y12600000D02*
X82400000Y12600000D01*
X83600000Y12600000D02*
X104200000Y12600000D01*
X105400000Y12600000D02*
X127400000Y12600000D01*
X600000Y12400000D02*
X5200000Y12400000D01*
X6400000Y12400000D02*
X11600000Y12400000D01*
X12800000Y12400000D02*
X17000000Y12400000D01*
X18800000Y12400000D02*
X36600000Y12400000D01*
X38200000Y12400000D02*
X39000000Y12400000D01*
X41200000Y12400000D02*
X43600000Y12400000D01*
X45200000Y12400000D02*
X59800000Y12400000D01*
X74000000Y12400000D02*
X82600000Y12400000D01*
X83400000Y12400000D02*
X104400000Y12400000D01*
X105200000Y12400000D02*
X127400000Y12400000D01*
X600000Y12200000D02*
X4800000Y12200000D01*
X6600000Y12200000D02*
X11400000Y12200000D01*
X13200000Y12200000D02*
X17600000Y12200000D01*
X18800000Y12200000D02*
X36800000Y12200000D01*
X38400000Y12200000D02*
X39400000Y12200000D01*
X41000000Y12200000D02*
X43800000Y12200000D01*
X45000000Y12200000D02*
X60000000Y12200000D01*
X74200000Y12200000D02*
X127400000Y12200000D01*
X600000Y12000000D02*
X4600000Y12000000D01*
X6800000Y12000000D02*
X11200000Y12000000D01*
X13400000Y12000000D02*
X17600000Y12000000D01*
X18800000Y12000000D02*
X37000000Y12000000D01*
X38600000Y12000000D02*
X39200000Y12000000D01*
X40800000Y12000000D02*
X43800000Y12000000D01*
X45000000Y12000000D02*
X60200000Y12000000D01*
X74400000Y12000000D02*
X127400000Y12000000D01*
X600000Y11800000D02*
X4600000Y11800000D01*
X7000000Y11800000D02*
X11000000Y11800000D01*
X13400000Y11800000D02*
X17600000Y11800000D01*
X18800000Y11800000D02*
X37200000Y11800000D01*
X38600000Y11800000D02*
X39000000Y11800000D01*
X40600000Y11800000D02*
X43800000Y11800000D01*
X45000000Y11800000D02*
X60400000Y11800000D01*
X74600000Y11800000D02*
X127400000Y11800000D01*
X600000Y11600000D02*
X4400000Y11600000D01*
X13600000Y11600000D02*
X17600000Y11600000D01*
X19000000Y11600000D02*
X37400000Y11600000D01*
X38600000Y11600000D02*
X38800000Y11600000D01*
X40400000Y11600000D02*
X43800000Y11600000D01*
X45000000Y11600000D02*
X73200000Y11600000D01*
X74800000Y11600000D02*
X127400000Y11600000D01*
X600000Y11400000D02*
X4400000Y11400000D01*
X13600000Y11400000D02*
X17600000Y11400000D01*
X19200000Y11400000D02*
X37400000Y11400000D01*
X38600000Y11400000D02*
X38600000Y11400000D01*
X40200000Y11400000D02*
X43800000Y11400000D01*
X45200000Y11400000D02*
X73400000Y11400000D01*
X75000000Y11400000D02*
X127400000Y11400000D01*
X600000Y11200000D02*
X4400000Y11200000D01*
X13600000Y11200000D02*
X17800000Y11200000D01*
X19400000Y11200000D02*
X37400000Y11200000D01*
X40000000Y11200000D02*
X43800000Y11200000D01*
X45400000Y11200000D02*
X73600000Y11200000D01*
X75200000Y11200000D02*
X127400000Y11200000D01*
X600000Y11000000D02*
X4400000Y11000000D01*
X13600000Y11000000D02*
X18000000Y11000000D01*
X19600000Y11000000D02*
X37200000Y11000000D01*
X39800000Y11000000D02*
X44000000Y11000000D01*
X45600000Y11000000D02*
X73800000Y11000000D01*
X75400000Y11000000D02*
X127400000Y11000000D01*
X600000Y10800000D02*
X4400000Y10800000D01*
X13600000Y10800000D02*
X18200000Y10800000D01*
X19800000Y10800000D02*
X37200000Y10800000D01*
X39600000Y10800000D02*
X44200000Y10800000D01*
X45800000Y10800000D02*
X74000000Y10800000D01*
X75600000Y10800000D02*
X127400000Y10800000D01*
X600000Y10600000D02*
X4600000Y10600000D01*
X7000000Y10600000D02*
X11000000Y10600000D01*
X13400000Y10600000D02*
X18400000Y10600000D01*
X20200000Y10600000D02*
X37200000Y10600000D01*
X39400000Y10600000D02*
X44400000Y10600000D01*
X46000000Y10600000D02*
X74200000Y10600000D01*
X75800000Y10600000D02*
X127400000Y10600000D01*
X600000Y10400000D02*
X4800000Y10400000D01*
X6800000Y10400000D02*
X11200000Y10400000D01*
X13200000Y10400000D02*
X18600000Y10400000D01*
X20400000Y10400000D02*
X37400000Y10400000D01*
X39200000Y10400000D02*
X44600000Y10400000D01*
X46200000Y10400000D02*
X74400000Y10400000D01*
X76000000Y10400000D02*
X127400000Y10400000D01*
X600000Y10200000D02*
X5000000Y10200000D01*
X6600000Y10200000D02*
X11400000Y10200000D01*
X13000000Y10200000D02*
X18800000Y10200000D01*
X20600000Y10200000D02*
X37200000Y10200000D01*
X39000000Y10200000D02*
X44800000Y10200000D01*
X46400000Y10200000D02*
X74600000Y10200000D01*
X76200000Y10200000D02*
X127400000Y10200000D01*
X600000Y10000000D02*
X19000000Y10000000D01*
X20600000Y10000000D02*
X37000000Y10000000D01*
X38800000Y10000000D02*
X45000000Y10000000D01*
X46600000Y10000000D02*
X74800000Y10000000D01*
X76400000Y10000000D02*
X127400000Y10000000D01*
X600000Y9800000D02*
X19000000Y9800000D01*
X20600000Y9800000D02*
X36800000Y9800000D01*
X38600000Y9800000D02*
X45200000Y9800000D01*
X46800000Y9800000D02*
X75000000Y9800000D01*
X76600000Y9800000D02*
X127400000Y9800000D01*
X600000Y9600000D02*
X19200000Y9600000D01*
X20400000Y9600000D02*
X36800000Y9600000D01*
X38400000Y9600000D02*
X45400000Y9600000D01*
X47000000Y9600000D02*
X75200000Y9600000D01*
X76800000Y9600000D02*
X127400000Y9600000D01*
X600000Y9400000D02*
X19400000Y9400000D01*
X20200000Y9400000D02*
X36800000Y9400000D01*
X38400000Y9400000D02*
X45600000Y9400000D01*
X47200000Y9400000D02*
X75400000Y9400000D01*
X77000000Y9400000D02*
X127400000Y9400000D01*
X600000Y9200000D02*
X37000000Y9200000D01*
X38200000Y9200000D02*
X45800000Y9200000D01*
X47400000Y9200000D02*
X75600000Y9200000D01*
X77200000Y9200000D02*
X127400000Y9200000D01*
X600000Y9000000D02*
X37200000Y9000000D01*
X38000000Y9000000D02*
X46000000Y9000000D01*
X47800000Y9000000D02*
X75800000Y9000000D01*
X77400000Y9000000D02*
X127400000Y9000000D01*
X600000Y8800000D02*
X46200000Y8800000D01*
X48000000Y8800000D02*
X76000000Y8800000D01*
X77600000Y8800000D02*
X127400000Y8800000D01*
X600000Y8600000D02*
X46400000Y8600000D01*
X48200000Y8600000D02*
X76200000Y8600000D01*
X78000000Y8600000D02*
X127400000Y8600000D01*
X600000Y8400000D02*
X46600000Y8400000D01*
X48200000Y8400000D02*
X76400000Y8400000D01*
X78200000Y8400000D02*
X127400000Y8400000D01*
X600000Y8200000D02*
X46600000Y8200000D01*
X48200000Y8200000D02*
X76600000Y8200000D01*
X78400000Y8200000D02*
X127400000Y8200000D01*
X600000Y8000000D02*
X46800000Y8000000D01*
X48000000Y8000000D02*
X76800000Y8000000D01*
X78400000Y8000000D02*
X127400000Y8000000D01*
X600000Y7800000D02*
X47000000Y7800000D01*
X47800000Y7800000D02*
X76800000Y7800000D01*
X78400000Y7800000D02*
X127400000Y7800000D01*
X600000Y7600000D02*
X77000000Y7600000D01*
X78200000Y7600000D02*
X127400000Y7600000D01*
X600000Y7400000D02*
X77200000Y7400000D01*
X78000000Y7400000D02*
X127400000Y7400000D01*
X600000Y7200000D02*
X127400000Y7200000D01*
X600000Y7000000D02*
X127400000Y7000000D01*
X600000Y6800000D02*
X127400000Y6800000D01*
X600000Y6600000D02*
X127400000Y6600000D01*
X600000Y6400000D02*
X127400000Y6400000D01*
X600000Y6200000D02*
X127400000Y6200000D01*
X600000Y6000000D02*
X127400000Y6000000D01*
X600000Y5800000D02*
X127400000Y5800000D01*
X600000Y5600000D02*
X127400000Y5600000D01*
X600000Y5400000D02*
X127400000Y5400000D01*
X600000Y5200000D02*
X127400000Y5200000D01*
X600000Y5000000D02*
X127400000Y5000000D01*
X600000Y4800000D02*
X2600000Y4800000D01*
X3800000Y4800000D02*
X63400000Y4800000D01*
X64600000Y4800000D02*
X124200000Y4800000D01*
X125400000Y4800000D02*
X127400000Y4800000D01*
X600000Y4600000D02*
X2200000Y4600000D01*
X4200000Y4600000D02*
X63000000Y4600000D01*
X65000000Y4600000D02*
X123800000Y4600000D01*
X125800000Y4600000D02*
X127400000Y4600000D01*
X600000Y4400000D02*
X1800000Y4400000D01*
X4600000Y4400000D02*
X62600000Y4400000D01*
X65400000Y4400000D02*
X123400000Y4400000D01*
X126200000Y4400000D02*
X127400000Y4400000D01*
X600000Y4200000D02*
X1800000Y4200000D01*
X4600000Y4200000D02*
X62600000Y4200000D01*
X65400000Y4200000D02*
X123400000Y4200000D01*
X126200000Y4200000D02*
X127400000Y4200000D01*
X600000Y4000000D02*
X1600000Y4000000D01*
X4800000Y4000000D02*
X62400000Y4000000D01*
X65600000Y4000000D02*
X123200000Y4000000D01*
X126400000Y4000000D02*
X127400000Y4000000D01*
X600000Y3800000D02*
X1600000Y3800000D01*
X4800000Y3800000D02*
X62400000Y3800000D01*
X65600000Y3800000D02*
X123200000Y3800000D01*
X126400000Y3800000D02*
X127400000Y3800000D01*
X600000Y3600000D02*
X1400000Y3600000D01*
X5000000Y3600000D02*
X62200000Y3600000D01*
X65800000Y3600000D02*
X123000000Y3600000D01*
X126600000Y3600000D02*
X127400000Y3600000D01*
X600000Y3400000D02*
X1400000Y3400000D01*
X5000000Y3400000D02*
X62200000Y3400000D01*
X65800000Y3400000D02*
X123000000Y3400000D01*
X126600000Y3400000D02*
X127400000Y3400000D01*
X600000Y3200000D02*
X1400000Y3200000D01*
X5000000Y3200000D02*
X62200000Y3200000D01*
X65800000Y3200000D02*
X123000000Y3200000D01*
X126600000Y3200000D02*
X127400000Y3200000D01*
X600000Y3000000D02*
X1400000Y3000000D01*
X5000000Y3000000D02*
X62200000Y3000000D01*
X65800000Y3000000D02*
X123000000Y3000000D01*
X126600000Y3000000D02*
X127400000Y3000000D01*
X800000Y2800000D02*
X1400000Y2800000D01*
X5000000Y2800000D02*
X62200000Y2800000D01*
X65800000Y2800000D02*
X123000000Y2800000D01*
X126600000Y2800000D02*
X127200000Y2800000D01*
X800000Y2600000D02*
X1600000Y2600000D01*
X4800000Y2600000D02*
X62400000Y2600000D01*
X65600000Y2600000D02*
X123200000Y2600000D01*
X126400000Y2600000D02*
X127200000Y2600000D01*
X800000Y2400000D02*
X1600000Y2400000D01*
X4800000Y2400000D02*
X62400000Y2400000D01*
X65600000Y2400000D02*
X123200000Y2400000D01*
X126400000Y2400000D02*
X127200000Y2400000D01*
X1000000Y2200000D02*
X1800000Y2200000D01*
X4600000Y2200000D02*
X62600000Y2200000D01*
X65400000Y2200000D02*
X123400000Y2200000D01*
X126200000Y2200000D02*
X127000000Y2200000D01*
X1000000Y2000000D02*
X1800000Y2000000D01*
X4600000Y2000000D02*
X62600000Y2000000D01*
X65400000Y2000000D02*
X123400000Y2000000D01*
X126200000Y2000000D02*
X127000000Y2000000D01*
X1200000Y1800000D02*
X2200000Y1800000D01*
X4200000Y1800000D02*
X63000000Y1800000D01*
X65000000Y1800000D02*
X123800000Y1800000D01*
X125800000Y1800000D02*
X126800000Y1800000D01*
X1400000Y1600000D02*
X2600000Y1600000D01*
X3800000Y1600000D02*
X63400000Y1600000D01*
X64600000Y1600000D02*
X124200000Y1600000D01*
X125400000Y1600000D02*
X126600000Y1600000D01*
X1600000Y1400000D02*
X126400000Y1400000D01*
X1800000Y1200000D02*
X126200000Y1200000D01*
X2000000Y1000000D02*
X126000000Y1000000D01*
X2400000Y800000D02*
X125600000Y800000D01*
X3000000Y600000D02*
X125000000Y600000D01*
D11*
X25400000Y74600000D02*
X25400000Y75800000D01*
X17400000Y15600000D02*
X17400000Y13000000D01*
X39400000Y15600000D02*
X39400000Y13000000D01*
X61200000Y15600000D02*
X61200000Y13000000D01*
X83000000Y15600000D02*
X83000000Y13000000D01*
X104800000Y15600000D02*
X104800000Y13000000D01*
X11400000Y11200000D02*
X6600000Y11200000D01*
X70000000Y76200000D02*
X71200000Y76200000D01*
X71200000Y76200000D02*
X71600000Y76600000D01*
X71600000Y76600000D02*
X76000000Y76600000D01*
X76000000Y76600000D02*
X76200000Y76800000D01*
X52000000Y59200000D02*
X53000000Y59200000D01*
X53000000Y59200000D02*
X53600000Y59800000D01*
X53600000Y59800000D02*
X58200000Y59800000D01*
X70000000Y59200000D02*
X71000000Y59200000D01*
X71000000Y59200000D02*
X71600000Y59800000D01*
X71600000Y59800000D02*
X76200000Y59800000D01*
X52000000Y42200000D02*
X53200000Y42200000D01*
X53200000Y42200000D02*
X53600000Y42600000D01*
X53600000Y42600000D02*
X58000000Y42600000D01*
X58000000Y42600000D02*
X58200000Y42800000D01*
X16000000Y76200000D02*
X17200000Y76200000D01*
X17200000Y76200000D02*
X17600000Y76600000D01*
X17600000Y76600000D02*
X22000000Y76600000D01*
X22000000Y76600000D02*
X22200000Y76800000D01*
X34000000Y76200000D02*
X35200000Y76200000D01*
X35200000Y76200000D02*
X35600000Y76600000D01*
X35600000Y76600000D02*
X40000000Y76600000D01*
X40000000Y76600000D02*
X40200000Y76800000D01*
X87800000Y76200000D02*
X89200000Y76200000D01*
X89200000Y76200000D02*
X89600000Y76600000D01*
X89600000Y76600000D02*
X94000000Y76600000D01*
X94000000Y76600000D02*
X94200000Y76800000D01*
X105800000Y76200000D02*
X107200000Y76200000D01*
X107200000Y76200000D02*
X107600000Y76600000D01*
X107600000Y76600000D02*
X112000000Y76600000D01*
X112000000Y76600000D02*
X112200000Y76800000D01*
X16000000Y59200000D02*
X17000000Y59200000D01*
X17000000Y59200000D02*
X17600000Y59800000D01*
X17600000Y59800000D02*
X22200000Y59800000D01*
X34000000Y59200000D02*
X35000000Y59200000D01*
X35000000Y59200000D02*
X35600000Y59800000D01*
X35600000Y59800000D02*
X40200000Y59800000D01*
X16000000Y42200000D02*
X17200000Y42200000D01*
X17200000Y42200000D02*
X17600000Y42600000D01*
X17600000Y42600000D02*
X22000000Y42600000D01*
X22000000Y42600000D02*
X22200000Y42800000D01*
X34000000Y42200000D02*
X35200000Y42200000D01*
X35200000Y42200000D02*
X35600000Y42600000D01*
X35600000Y42600000D02*
X40000000Y42600000D01*
X40000000Y42600000D02*
X40200000Y42800000D01*
X42600000Y64200000D02*
X37800000Y64200000D01*
X37800000Y64200000D02*
X36400000Y65600000D01*
X44000000Y61400000D02*
X47400000Y61400000D01*
X47400000Y61400000D02*
X51600000Y65600000D01*
X42600000Y58200000D02*
X40800000Y56400000D01*
X40800000Y56400000D02*
X39800000Y56400000D01*
X39800000Y56400000D02*
X39600000Y56200000D01*
X39600000Y56200000D02*
X39400000Y56200000D01*
X39400000Y56200000D02*
X39400000Y56000000D01*
X39400000Y56000000D02*
X39200000Y55800000D01*
X39200000Y55800000D02*
X39200000Y55600000D01*
X39200000Y55600000D02*
X39000000Y55400000D01*
X39000000Y55400000D02*
X39000000Y53800000D01*
X39000000Y53800000D02*
X35600000Y50400000D01*
X105000000Y54200000D02*
X105000000Y63400000D01*
X105000000Y63400000D02*
X106400000Y64800000D01*
X32800000Y60200000D02*
X26200000Y60200000D01*
X26200000Y60200000D02*
X26000000Y60000000D01*
X26000000Y60000000D02*
X23600000Y60000000D01*
X23600000Y60000000D02*
X22600000Y59000000D01*
X22600000Y59000000D02*
X19200000Y59000000D01*
X68800000Y60200000D02*
X59800000Y60200000D01*
X59800000Y60200000D02*
X58600000Y59000000D01*
X58600000Y59000000D02*
X55200000Y59000000D01*
X50800000Y60200000D02*
X44000000Y60200000D01*
X44000000Y60200000D02*
X43800000Y60000000D01*
X43800000Y60000000D02*
X41600000Y60000000D01*
X41600000Y60000000D02*
X40600000Y59000000D01*
X40600000Y59000000D02*
X37200000Y59000000D01*
X52400000Y47800000D02*
X52400000Y46800000D01*
X52400000Y46800000D02*
X50200000Y44600000D01*
X50200000Y44600000D02*
X50200000Y35600000D01*
X50200000Y35600000D02*
X52400000Y33400000D01*
X16400000Y47800000D02*
X16400000Y46800000D01*
X16400000Y46800000D02*
X14200000Y44600000D01*
X14200000Y44600000D02*
X14200000Y35600000D01*
X14200000Y35600000D02*
X16400000Y33400000D01*
X34400000Y47800000D02*
X34400000Y46800000D01*
X34400000Y46800000D02*
X32200000Y44600000D01*
X32200000Y44600000D02*
X32200000Y35600000D01*
X32200000Y35600000D02*
X34400000Y33400000D01*
X14800000Y60200000D02*
X14400000Y59800000D01*
X14400000Y59800000D02*
X14200000Y59800000D01*
X14200000Y59800000D02*
X14200000Y54600000D01*
X14200000Y54600000D02*
X18000000Y50800000D01*
X18000000Y50800000D02*
X18200000Y50800000D01*
X18200000Y50800000D02*
X18800000Y50200000D01*
X18800000Y50200000D02*
X18800000Y49800000D01*
X18800000Y49800000D02*
X19000000Y49600000D01*
X19000000Y49600000D02*
X19000000Y45400000D01*
X19000000Y45400000D02*
X19800000Y44600000D01*
X19800000Y44600000D02*
X19800000Y43200000D01*
X16000000Y78200000D02*
X17200000Y78200000D01*
X17200000Y78200000D02*
X17600000Y78600000D01*
X17600000Y78600000D02*
X24000000Y78600000D01*
X24000000Y78600000D02*
X24800000Y77800000D01*
X24800000Y77800000D02*
X29000000Y77800000D01*
X29000000Y77800000D02*
X32200000Y74600000D01*
X32200000Y74600000D02*
X35400000Y74600000D01*
X35400000Y74600000D02*
X36000000Y75200000D01*
X16000000Y44200000D02*
X17200000Y44200000D01*
X17200000Y44200000D02*
X17600000Y44600000D01*
X17600000Y44600000D02*
X17800000Y44600000D01*
X17800000Y44600000D02*
X18400000Y45200000D01*
X34000000Y44200000D02*
X35200000Y44200000D01*
X35200000Y44200000D02*
X35600000Y44600000D01*
X35600000Y44600000D02*
X49600000Y44600000D01*
X34000000Y78200000D02*
X35200000Y78200000D01*
X35200000Y78200000D02*
X35600000Y78600000D01*
X35600000Y78600000D02*
X41800000Y78600000D01*
X41800000Y78600000D02*
X42600000Y77800000D01*
X42600000Y77800000D02*
X47000000Y77800000D01*
X47000000Y77800000D02*
X50200000Y74600000D01*
X50200000Y74600000D02*
X53400000Y74600000D01*
X53400000Y74600000D02*
X54000000Y75200000D01*
X52000000Y77200000D02*
X53200000Y77200000D01*
X53200000Y77200000D02*
X53600000Y76800000D01*
X53600000Y76800000D02*
X66000000Y76800000D01*
X66000000Y76800000D02*
X68200000Y74600000D01*
X68200000Y74600000D02*
X71400000Y74600000D01*
X71400000Y74600000D02*
X72000000Y75200000D01*
X70000000Y78200000D02*
X71200000Y78200000D01*
X71200000Y78200000D02*
X71600000Y78600000D01*
X71600000Y78600000D02*
X82200000Y78600000D01*
X82200000Y78600000D02*
X86200000Y74600000D01*
X86200000Y74600000D02*
X89400000Y74600000D01*
X89400000Y74600000D02*
X90000000Y75200000D01*
X87800000Y78200000D02*
X89200000Y78200000D01*
X89200000Y78200000D02*
X89600000Y78600000D01*
X89600000Y78600000D02*
X100200000Y78600000D01*
X100200000Y78600000D02*
X104200000Y74600000D01*
X104200000Y74600000D02*
X107400000Y74600000D01*
X107400000Y74600000D02*
X108000000Y75200000D01*
X42600000Y66200000D02*
X37800000Y66200000D01*
X37800000Y66200000D02*
X36200000Y67800000D01*
X36200000Y67800000D02*
X36000000Y67800000D01*
X36000000Y67800000D02*
X35800000Y68000000D01*
X35800000Y68000000D02*
X26600000Y68000000D01*
X26600000Y68000000D02*
X26400000Y67800000D01*
X26400000Y67800000D02*
X26200000Y67800000D01*
X26200000Y67800000D02*
X26000000Y67600000D01*
X26000000Y67600000D02*
X24400000Y67600000D01*
X24400000Y67600000D02*
X23400000Y66600000D01*
X23400000Y66600000D02*
X23200000Y66600000D01*
X23200000Y66600000D02*
X23000000Y66400000D01*
X23000000Y66400000D02*
X22800000Y66400000D01*
X22800000Y66400000D02*
X22600000Y66200000D01*
X22600000Y66200000D02*
X18400000Y66200000D01*
X43600000Y70800000D02*
X43600000Y70400000D01*
X43600000Y70400000D02*
X44400000Y69600000D01*
X44400000Y69600000D02*
X44400000Y62000000D01*
X44000000Y58800000D02*
X50200000Y58800000D01*
X56000000Y60400000D02*
X57600000Y60400000D01*
X57600000Y60400000D02*
X57800000Y60600000D01*
X57800000Y60600000D02*
X59200000Y60600000D01*
X59200000Y60600000D02*
X59400000Y60800000D01*
X59400000Y60800000D02*
X64800000Y60800000D01*
X64800000Y60800000D02*
X69600000Y65600000D01*
X105000000Y54200000D02*
X82000000Y54200000D01*
X82000000Y54200000D02*
X77400000Y49600000D01*
X77400000Y49600000D02*
X77200000Y49600000D01*
X77200000Y49600000D02*
X77000000Y49400000D01*
X77000000Y49400000D02*
X76800000Y49400000D01*
X76800000Y49400000D02*
X76600000Y49200000D01*
X76600000Y49200000D02*
X72400000Y49200000D01*
X104800000Y77200000D02*
X103600000Y76000000D01*
X101800000Y76000000D02*
X96200000Y76000000D01*
X96200000Y76000000D02*
X90200000Y70000000D01*
X90200000Y70000000D02*
X90000000Y70000000D01*
X90000000Y70000000D02*
X89800000Y69800000D01*
X89800000Y69800000D02*
X87400000Y69800000D01*
X87400000Y69800000D02*
X76600000Y59000000D01*
X76600000Y59000000D02*
X73200000Y59000000D01*
X54400000Y49200000D02*
X68200000Y49200000D01*
X68200000Y49200000D02*
X69800000Y50800000D01*
X69800000Y50800000D02*
X70000000Y50800000D01*
X70000000Y50800000D02*
X75400000Y56200000D01*
X75400000Y56200000D02*
X75600000Y56200000D01*
X75600000Y56200000D02*
X75800000Y56400000D01*
X75800000Y56400000D02*
X78400000Y56400000D01*
X78400000Y56400000D02*
X87600000Y65600000D01*
X44400000Y12600000D02*
X44400000Y11400000D01*
X44400000Y11400000D02*
X47400000Y8400000D01*
X18800000Y68000000D02*
X20600000Y69800000D01*
X20600000Y69800000D02*
X20800000Y69800000D01*
X20800000Y69800000D02*
X21000000Y70000000D01*
X21000000Y70000000D02*
X21200000Y70000000D01*
X21200000Y70000000D02*
X21400000Y70200000D01*
X21400000Y70200000D02*
X23000000Y70200000D01*
X23000000Y70200000D02*
X24200000Y71400000D01*
X24200000Y71400000D02*
X24200000Y72000000D01*
X24200000Y72000000D02*
X24800000Y72600000D01*
X24800000Y72600000D02*
X27800000Y72600000D01*
X27800000Y72600000D02*
X28400000Y73200000D01*
X28400000Y73200000D02*
X28600000Y73200000D01*
X28600000Y73200000D02*
X28800000Y73400000D01*
X28800000Y73400000D02*
X29000000Y73400000D01*
X29000000Y73400000D02*
X30800000Y75200000D01*
X31600000Y76000000D02*
X32200000Y76600000D01*
X32200000Y76600000D02*
X32200000Y78600000D01*
X32200000Y78600000D02*
X33400000Y78600000D01*
X33400000Y78600000D02*
X33600000Y78800000D01*
X33600000Y78800000D02*
X34800000Y78800000D01*
X34800000Y78800000D02*
X35200000Y79200000D01*
X35200000Y79200000D02*
X41400000Y79200000D01*
X41400000Y79200000D02*
X42200000Y80000000D01*
X42200000Y80000000D02*
X42400000Y80000000D01*
X42400000Y80000000D02*
X42600000Y80200000D01*
X42600000Y80200000D02*
X46800000Y80200000D01*
X46800000Y80200000D02*
X47600000Y81000000D01*
X51600000Y44200000D02*
X51600000Y45200000D01*
X45000000Y51200000D02*
X44000000Y52200000D01*
X44000000Y52200000D02*
X43800000Y52200000D01*
X43800000Y52200000D02*
X43600000Y52400000D01*
X43600000Y52400000D02*
X41800000Y52400000D01*
X41800000Y52400000D02*
X41400000Y52800000D01*
X41400000Y52800000D02*
X41200000Y52800000D01*
X41200000Y52800000D02*
X41000000Y53000000D01*
X41000000Y53000000D02*
X40800000Y53000000D01*
X40800000Y53000000D02*
X40600000Y53200000D01*
X40600000Y53200000D02*
X40000000Y53200000D01*
X40000000Y53200000D02*
X39600000Y53600000D01*
X43800000Y15000000D02*
X58000000Y15000000D01*
X58000000Y15000000D02*
X60800000Y12200000D01*
X60800000Y12200000D02*
X73400000Y12200000D01*
X73400000Y12200000D02*
X77600000Y8000000D01*
X76800000Y41600000D02*
X76600000Y41600000D01*
X76600000Y41600000D02*
X76000000Y41000000D01*
X76000000Y41000000D02*
X75800000Y41000000D01*
X75800000Y41000000D02*
X75600000Y40800000D01*
X75600000Y40800000D02*
X71400000Y40800000D01*
X71400000Y40800000D02*
X52600000Y22000000D01*
X45000000Y14400000D02*
X44400000Y14400000D01*
X44400000Y14400000D02*
X44200000Y14200000D01*
X44200000Y14200000D02*
X42200000Y14200000D01*
X42200000Y14200000D02*
X37600000Y9600000D01*
X43200000Y47200000D02*
X51800000Y47200000D01*
X74200000Y47200000D02*
X79600000Y47200000D01*
X79600000Y47200000D02*
X84400000Y42400000D01*
X112600000Y35000000D02*
X112600000Y36200000D01*
X112600000Y36200000D02*
X110000000Y38800000D01*
X38000000Y10800000D02*
X38000000Y11800000D01*
X38000000Y11800000D02*
X34800000Y15000000D01*
X13600000Y38600000D02*
X13600000Y65600000D01*
X13600000Y65600000D02*
X18000000Y70000000D01*
X18000000Y70000000D02*
X18200000Y70000000D01*
X18200000Y70000000D02*
X19000000Y70800000D01*
X19000000Y70800000D02*
X19000000Y71000000D01*
X19000000Y71000000D02*
X19200000Y71200000D01*
X19200000Y71200000D02*
X19200000Y75000000D01*
X19200000Y75000000D02*
X19000000Y75200000D01*
X24800000Y86200000D02*
X17800000Y79200000D01*
X17800000Y79200000D02*
X17200000Y79200000D01*
X17200000Y79200000D02*
X16800000Y78800000D01*
X16800000Y78800000D02*
X15600000Y78800000D01*
X15600000Y78800000D02*
X15400000Y78600000D01*
X15400000Y78600000D02*
X14200000Y78600000D01*
X14200000Y78600000D02*
X14200000Y67200000D01*
X14200000Y67200000D02*
X13000000Y66000000D01*
X13000000Y66000000D02*
X13000000Y41800000D01*
X13000000Y41800000D02*
X10400000Y39200000D01*
X10400000Y39200000D02*
X10400000Y39000000D01*
X10400000Y39000000D02*
X10200000Y38800000D01*
X10200000Y38800000D02*
X10200000Y38600000D01*
X10200000Y38600000D02*
X10000000Y38400000D01*
X10000000Y38400000D02*
X10000000Y22000000D01*
X18000000Y13800000D02*
X18000000Y13600000D01*
X18000000Y13600000D02*
X18200000Y13400000D01*
X18200000Y13400000D02*
X18200000Y11600000D01*
X18200000Y11600000D02*
X19800000Y10000000D01*
X59800000Y76200000D02*
X64000000Y72000000D01*
X64000000Y72000000D02*
X64000000Y71600000D01*
X64000000Y71600000D02*
X64200000Y71400000D01*
X64200000Y71400000D02*
X64200000Y71200000D01*
X64200000Y71200000D02*
X64400000Y71000000D01*
X64400000Y71000000D02*
X64400000Y70800000D01*
X64400000Y70800000D02*
X69000000Y66200000D01*
X69000000Y66200000D02*
X69000000Y65800000D01*
X96600000Y39600000D02*
X110800000Y25400000D01*
X83400000Y53600000D02*
X82400000Y53600000D01*
X82400000Y53600000D02*
X77800000Y49000000D01*
X77800000Y49000000D02*
X77600000Y49000000D01*
X77600000Y49000000D02*
X77400000Y48800000D01*
X77400000Y48800000D02*
X77200000Y48800000D01*
X77200000Y48800000D02*
X77000000Y48600000D01*
X77000000Y48600000D02*
X74400000Y48600000D01*
X74400000Y48600000D02*
X60000000Y34200000D01*
X60000000Y34200000D02*
X60000000Y33600000D01*
X60000000Y33600000D02*
X59800000Y33400000D01*
X59800000Y33400000D02*
X59800000Y33200000D01*
X59800000Y33200000D02*
X59600000Y33000000D01*
X59600000Y33000000D02*
X59600000Y32800000D01*
X59600000Y32800000D02*
X59400000Y32600000D01*
X59400000Y32600000D02*
X59200000Y32600000D01*
X59200000Y32600000D02*
X59000000Y32400000D01*
X59000000Y32400000D02*
X58800000Y32400000D01*
X58800000Y32400000D02*
X58600000Y32200000D01*
X58600000Y32200000D02*
X56000000Y32200000D01*
X56000000Y32200000D02*
X54200000Y30400000D01*
X54200000Y30400000D02*
X54000000Y30400000D01*
X54000000Y30400000D02*
X53800000Y30200000D01*
X53800000Y30200000D02*
X31600000Y30200000D01*
X31600000Y30200000D02*
X27800000Y26400000D01*
D12*
X51200000Y76200000D03*
X17400000Y13000000D03*
X39400000Y13000000D03*
X61200000Y13000000D03*
X83000000Y13000000D03*
X104800000Y13000000D03*
X76200000Y76800000D03*
X58200000Y59800000D03*
X76200000Y59800000D03*
X58200000Y42800000D03*
X22200000Y76800000D03*
X40200000Y76800000D03*
X94200000Y76800000D03*
X112200000Y76800000D03*
X22200000Y59800000D03*
X40200000Y59800000D03*
X22200000Y42800000D03*
X40200000Y42800000D03*
X19800000Y43200000D03*
X18800000Y42000000D03*
X18400000Y45200000D03*
X36000000Y42000000D03*
X49600000Y44600000D03*
X54000000Y42000000D03*
X44400000Y62000000D03*
X50200000Y58800000D03*
X56000000Y60400000D03*
X103600000Y76000000D03*
X101800000Y76000000D03*
X44400000Y12600000D03*
X47400000Y8400000D03*
X18800000Y68000000D03*
X30800000Y75200000D03*
X31600000Y76000000D03*
X47600000Y81000000D03*
X51600000Y45200000D03*
X45000000Y51200000D03*
X39600000Y53600000D03*
X43800000Y15000000D03*
X77600000Y8000000D03*
X52600000Y22000000D03*
X45000000Y14400000D03*
X37600000Y9600000D03*
X43200000Y47200000D03*
X51800000Y47200000D03*
X74200000Y47200000D03*
X112600000Y35000000D03*
X38000000Y10800000D03*
X34800000Y15000000D03*
X13600000Y38600000D03*
X10000000Y22000000D03*
X18000000Y13800000D03*
X19800000Y10000000D03*
X59800000Y76200000D03*
X69000000Y65800000D03*
X96600000Y39600000D03*
X110800000Y25400000D03*
X83400000Y53600000D03*
X27800000Y26400000D03*
X6000000Y82000000D03*
X6000000Y70000000D03*
X6000000Y58000000D03*
X6000000Y46000000D03*
X6000000Y34000000D03*
X6000000Y22000000D03*
X18000000Y82000000D03*
X30000000Y82000000D03*
X30000000Y70000000D03*
X30000000Y46000000D03*
X30000000Y34000000D03*
X42000000Y82000000D03*
X42000000Y70000000D03*
X54000000Y46000000D03*
X54000000Y10000000D03*
X66000000Y82000000D03*
X66000000Y46000000D03*
X66000000Y34000000D03*
X66000000Y10000000D03*
X78000000Y82000000D03*
X78000000Y70000000D03*
X78000000Y34000000D03*
X78000000Y10000000D03*
X90000000Y82000000D03*
X90000000Y58000000D03*
X90000000Y34000000D03*
X90000000Y10000000D03*
X102000000Y82000000D03*
X102000000Y70000000D03*
X102000000Y58000000D03*
X102000000Y10000000D03*
X114000000Y82000000D03*
X114000000Y70000000D03*
X114000000Y58000000D03*
X114000000Y10000000D03*
X18000000Y77200000D03*
X57400000Y76200000D03*
X37200000Y60800000D03*
X18000000Y60400000D03*
X18000000Y43200000D03*
X36200000Y43200000D03*
D13*
X43230000Y86630000D03*
X43230000Y84090000D03*
X43230000Y81550000D03*
X43230000Y79010000D03*
X43230000Y76470000D03*
X43230000Y73930000D03*
X43230000Y71390000D03*
X43230000Y68850000D03*
X43230000Y66310000D03*
X43230000Y63770000D03*
X43230000Y61230000D03*
X43230000Y58690000D03*
X43230000Y56150000D03*
X43230000Y53610000D03*
X43230000Y51070000D03*
X43230000Y48530000D03*
X43230000Y45990000D03*
X43230000Y43450000D03*
X43230000Y40910000D03*
X43230000Y38370000D03*
X25450000Y38370000D03*
X25450000Y40910000D03*
X25450000Y43450000D03*
X25450000Y45990000D03*
X25450000Y48530000D03*
X25450000Y51070000D03*
X25450000Y53610000D03*
X25450000Y56150000D03*
X25450000Y58690000D03*
X25450000Y61230000D03*
X25450000Y63770000D03*
X25450000Y66310000D03*
X25450000Y68850000D03*
X25450000Y71390000D03*
X25450000Y73930000D03*
X25450000Y76470000D03*
X25450000Y79010000D03*
X25450000Y81550000D03*
X25450000Y84090000D03*
X25450000Y86630000D03*
D14*
X17000000Y66100000D03*
X22000000Y68200000D03*
X35000000Y66100000D03*
X40000000Y68200000D03*
X53000000Y66100000D03*
X58000000Y68200000D03*
X71000000Y66100000D03*
X76000000Y68200000D03*
X89000000Y66100000D03*
X94000000Y68200000D03*
X107000000Y66100000D03*
X112000000Y68200000D03*
X17000000Y49100000D03*
X22000000Y51200000D03*
X35000000Y49100000D03*
X40000000Y51200000D03*
X53000000Y49100000D03*
X58000000Y51200000D03*
X71000000Y49100000D03*
X76000000Y51200000D03*
X17000000Y32100000D03*
X22000000Y34200000D03*
X35000000Y32100000D03*
X40000000Y34200000D03*
X53000000Y32100000D03*
X58000000Y34200000D03*
D15*
X15350000Y75700000D03*
X15350000Y77700000D03*
X18650000Y77700000D03*
X18650000Y75700000D03*
X33350000Y75700000D03*
X33350000Y77700000D03*
X36650000Y77700000D03*
X36650000Y75700000D03*
X51350000Y75700000D03*
X51350000Y77700000D03*
X54650000Y77700000D03*
X54650000Y75700000D03*
X69350000Y75700000D03*
X69350000Y77700000D03*
X72650000Y77700000D03*
X72650000Y75700000D03*
X87350000Y75700000D03*
X87350000Y77700000D03*
X90650000Y77700000D03*
X90650000Y75700000D03*
X105350000Y75700000D03*
X105350000Y77700000D03*
X108650000Y77700000D03*
X108650000Y75700000D03*
X69350000Y58700000D03*
X69350000Y60700000D03*
X72650000Y60700000D03*
X72650000Y58700000D03*
X51350000Y58700000D03*
X51350000Y60700000D03*
X54650000Y60700000D03*
X54650000Y58700000D03*
X33350000Y58700000D03*
X33350000Y60700000D03*
X36650000Y60700000D03*
X36650000Y58700000D03*
X15350000Y58700000D03*
X15350000Y60700000D03*
X18650000Y60700000D03*
X18650000Y58700000D03*
X15350000Y41700000D03*
X15350000Y43700000D03*
X18650000Y43700000D03*
X18650000Y41700000D03*
X33350000Y41700000D03*
X33350000Y43700000D03*
X36650000Y43700000D03*
X36650000Y41700000D03*
X51350000Y41700000D03*
X51350000Y43700000D03*
X54650000Y43700000D03*
X54650000Y41700000D03*
D16*
X104500000Y39500000D03*
X107000000Y39500000D03*
X109500000Y39500000D03*
X104500000Y53500000D03*
X109500000Y53500000D03*
D17*
X74920000Y42000000D03*
X77460000Y42000000D03*
X80000000Y42000000D03*
X82540000Y42000000D03*
X85080000Y42000000D03*
D16*
X12250000Y11250000D03*
X5750000Y11250000D03*
X12250000Y6750000D03*
X5750000Y6750000D03*
G36*
X8000000Y21500000D02*
X28640000Y21500000D01*
X28640000Y15500000D01*
X8000000Y15500000D01*
X8000000Y21500000D01*
G37*
G36*
X29840000Y21500000D02*
X50480000Y21500000D01*
X50480000Y15500000D01*
X29840000Y15500000D01*
X29840000Y21500000D01*
G37*
G36*
X51680000Y21500000D02*
X72320000Y21500000D01*
X72320000Y15500000D01*
X51680000Y15500000D01*
X51680000Y21500000D01*
G37*
G36*
X73520000Y21500000D02*
X94160000Y21500000D01*
X94160000Y15500000D01*
X73520000Y15500000D01*
X73520000Y21500000D01*
G37*
G36*
X95360000Y21500000D02*
X116000000Y21500000D01*
X116000000Y15500000D01*
X95360000Y15500000D01*
X95360000Y21500000D01*
G37*
M02*
