%FSLAX46Y46*%
%MOMM*%
%TF.FileFunction,Paste,Top*%
%TF.Part,Single*%
%TF.GenerationSoftware,ClaudeMicro,build_pcb.py,1.0*%
%LPD*%
G01*
%ADD10R,1.100000X0.900000*%
D10*
X15350000Y75700000D03*
X15350000Y77700000D03*
X18650000Y77700000D03*
X18650000Y75700000D03*
X33350000Y75700000D03*
X33350000Y77700000D03*
X36650000Y77700000D03*
X36650000Y75700000D03*
X51350000Y75700000D03*
X51350000Y77700000D03*
X54650000Y77700000D03*
X54650000Y75700000D03*
X69350000Y75700000D03*
X69350000Y77700000D03*
X72650000Y77700000D03*
X72650000Y75700000D03*
X87350000Y75700000D03*
X87350000Y77700000D03*
X90650000Y77700000D03*
X90650000Y75700000D03*
X105350000Y75700000D03*
X105350000Y77700000D03*
X108650000Y77700000D03*
X108650000Y75700000D03*
X69350000Y58700000D03*
X69350000Y60700000D03*
X72650000Y60700000D03*
X72650000Y58700000D03*
X51350000Y58700000D03*
X51350000Y60700000D03*
X54650000Y60700000D03*
X54650000Y58700000D03*
X33350000Y58700000D03*
X33350000Y60700000D03*
X36650000Y60700000D03*
X36650000Y58700000D03*
X15350000Y58700000D03*
X15350000Y60700000D03*
X18650000Y60700000D03*
X18650000Y58700000D03*
X15350000Y41700000D03*
X15350000Y43700000D03*
X18650000Y43700000D03*
X18650000Y41700000D03*
X33350000Y41700000D03*
X33350000Y43700000D03*
X36650000Y43700000D03*
X36650000Y41700000D03*
X51350000Y41700000D03*
X51350000Y43700000D03*
X54650000Y43700000D03*
X54650000Y41700000D03*
M02*
